<svg id="svg" version="1.1" xmlns="http://www.w3.org/2000/svg" xmlns:xlink="http://www.w3.org/1999/xlink" width="400" height="416.0919540229885" viewBox="0, 0, 400,416.0919540229885"><g id="svgg"><path id="path0" d="M194.151 66.770 C 193.245 66.919,192.202 67.341,191.833 67.709 C 191.465 68.078,190.460 68.569,189.599 68.800 C 188.738 69.032,187.921 69.404,187.783 69.627 C 187.645 69.850,186.873 70.457,186.066 70.975 C 185.260 71.493,182.980 73.544,181.000 75.532 C 179.020 77.520,160.820 95.763,140.556 116.073 C 120.081 136.593,103.578 153.444,103.411 154.000 C 103.245 154.550,102.702 155.450,102.203 156.000 C 101.705 156.550,101.070 157.720,100.793 158.600 C 100.516 159.480,99.940 160.697,99.514 161.305 C 98.182 163.202,98.596 172.472,100.100 174.438 C 100.735 175.267,101.200 176.382,101.200 177.073 C 101.200 178.819,108.600 186.400,110.305 186.400 C 111.022 186.400,111.819 186.782,112.406 187.407 C 112.926 187.960,114.037 188.619,114.875 188.870 C 117.222 189.573,117.195 189.202,117.198 220.830 L 117.200 249.461 118.194 250.394 C 118.741 250.908,119.307 251.965,119.453 252.744 C 119.753 254.341,124.136 259.213,126.200 260.244 C 126.860 260.573,128.030 261.193,128.800 261.621 C 129.570 262.049,130.791 262.399,131.514 262.399 C 132.237 262.400,133.292 262.704,133.859 263.076 C 135.356 264.056,138.579 263.932,139.716 262.851 C 140.810 261.810,153.691 248.923,154.822 247.737 C 156.150 246.346,155.314 246.209,144.603 246.068 C 138.449 245.987,134.412 245.776,134.103 245.519 C 133.706 245.190,133.600 237.544,133.600 209.231 C 133.600 181.865,133.486 173.246,133.120 172.880 C 132.772 172.532,129.821 172.400,122.353 172.400 C 111.873 172.400,110.800 172.307,110.800 171.399 C 110.800 169.988,198.902 82.720,200.088 82.958 C 201.081 83.156,210.764 92.466,226.883 108.721 C 227.167 109.008,229.290 111.129,231.600 113.435 C 233.910 115.741,235.980 117.811,236.200 118.035 C 236.677 118.522,244.872 126.702,245.294 127.114 C 245.552 127.366,283.180 164.998,284.489 166.313 C 286.681 168.516,287.600 169.661,287.600 170.187 C 287.600 170.524,287.780 170.800,288.000 170.800 C 288.762 170.800,288.395 171.474,287.381 171.936 C 286.699 172.246,283.219 172.400,276.861 172.400 C 270.005 172.400,267.226 172.534,266.880 172.880 C 266.514 173.246,266.400 181.858,266.400 209.200 C 266.400 236.542,266.286 245.154,265.920 245.520 C 265.601 245.839,263.869 246.000,260.770 246.000 C 253.998 246.000,252.066 246.635,254.400 248.093 C 254.840 248.368,255.200 248.741,255.200 248.922 C 255.200 249.103,257.984 252.026,261.387 255.419 C 268.313 262.323,269.958 263.257,271.377 261.092 C 271.736 260.543,272.538 259.992,273.159 259.868 C 274.603 259.579,277.469 257.018,278.412 255.173 C 278.813 254.389,279.423 253.513,279.768 253.227 C 280.112 252.941,280.590 251.982,280.828 251.095 C 281.067 250.209,281.653 248.955,282.131 248.309 C 283.000 247.134,283.000 247.122,283.200 218.092 L 283.400 189.051 284.800 188.693 C 285.570 188.496,286.565 187.996,287.011 187.581 C 287.458 187.166,288.601 186.553,289.551 186.217 C 290.502 185.882,291.733 185.201,292.287 184.704 C 294.714 182.527,296.431 180.526,296.667 179.600 C 296.807 179.050,297.337 178.100,297.845 177.488 C 298.353 176.877,298.876 175.707,299.007 174.888 C 299.139 174.070,299.596 172.307,300.023 170.972 C 300.948 168.081,300.974 166.742,300.147 164.600 C 299.807 163.720,299.362 161.930,299.159 160.622 C 298.956 159.314,298.477 157.805,298.095 157.269 C 297.713 156.733,297.207 155.965,296.971 155.563 C 295.149 152.457,210.401 68.800,209.076 68.800 C 208.080 68.800,207.468 68.547,207.062 67.967 C 206.063 66.541,199.351 65.919,194.151 66.770 M152.349 175.461 C 151.644 176.309,151.315 195.921,151.986 197.173 C 152.697 198.503,154.985 198.795,164.690 198.798 L 173.979 198.800 174.609 197.583 C 175.468 195.921,175.330 176.518,174.451 175.461 C 173.966 174.877,172.675 174.800,163.400 174.800 C 154.125 174.800,152.834 174.877,152.349 175.461 M371.800 195.869 C 368.491 196.775,364.168 203.148,364.251 207.000 C 364.451 216.370,376.734 222.110,383.365 215.932 C 383.797 215.529,384.293 215.200,384.467 215.200 C 384.641 215.200,385.168 214.435,385.638 213.500 C 386.109 212.565,386.785 211.469,387.141 211.064 C 388.059 210.021,388.073 204.002,387.160 202.943 C 386.807 202.534,386.177 201.459,385.760 200.553 C 385.342 199.647,384.550 198.619,384.000 198.268 C 383.450 197.917,382.498 197.222,381.883 196.724 C 380.760 195.814,374.075 195.247,371.800 195.869 M227.216 247.607 C 225.529 249.202,225.423 249.432,225.271 251.820 C 225.159 253.584,224.881 254.592,224.349 255.162 C 223.307 256.281,222.800 257.751,222.800 259.653 C 222.800 260.738,222.482 261.670,221.813 262.548 C 221.143 263.426,220.740 264.607,220.561 266.221 C 220.393 267.727,220.009 268.916,219.514 269.462 C 219.028 269.997,218.603 271.286,218.393 272.862 C 218.206 274.258,217.591 276.286,217.027 277.368 C 216.462 278.450,216.000 279.964,216.000 280.733 C 216.000 281.514,215.544 282.908,214.966 283.895 C 214.368 284.914,213.776 286.753,213.565 288.247 C 213.360 289.695,212.847 291.312,212.401 291.917 C 211.897 292.602,211.512 293.956,211.352 295.600 C 211.158 297.606,210.883 298.409,210.150 299.116 C 209.359 299.879,209.200 300.431,209.200 302.416 C 209.200 304.282,209.023 304.977,208.384 305.616 C 207.308 306.692,206.800 308.102,206.800 310.012 C 206.800 311.058,206.405 312.195,205.600 313.464 C 204.750 314.806,204.400 315.854,204.400 317.064 C 204.400 320.037,202.622 321.600,199.239 321.600 C 196.222 321.600,195.600 321.221,195.600 319.384 C 195.600 318.693,195.063 317.154,194.407 315.964 C 193.636 314.564,193.212 313.219,193.207 312.156 C 193.203 311.101,192.864 310.017,192.264 309.132 C 191.691 308.288,191.220 306.833,191.049 305.377 C 190.879 303.927,190.404 302.454,189.830 301.600 C 189.231 300.708,188.812 299.363,188.673 297.891 C 188.515 296.207,188.177 295.251,187.428 294.360 C 186.602 293.379,186.400 292.714,186.400 290.983 C 186.400 289.159,186.216 288.618,185.200 287.461 C 184.191 286.312,184.000 285.759,184.000 283.982 C 184.000 282.486,183.723 281.393,183.051 280.235 C 182.530 279.336,181.978 277.574,181.825 276.321 C 181.663 274.989,181.209 273.611,180.733 273.006 C 180.234 272.371,179.797 270.989,179.604 269.433 C 179.412 267.888,178.881 266.197,178.245 265.112 C 177.619 264.045,177.200 262.726,177.200 261.824 C 177.200 260.996,176.767 259.481,176.238 258.459 C 175.709 257.437,175.087 255.559,174.856 254.286 C 174.625 253.014,174.079 251.517,173.641 250.961 C 173.204 250.405,172.641 249.331,172.392 248.575 C 172.142 247.819,171.787 247.200,171.602 247.200 C 171.191 247.200,157.200 261.051,157.200 261.458 C 157.200 261.618,156.819 262.154,156.354 262.649 L 155.508 263.550 157.967 264.058 C 160.624 264.606,160.512 264.461,160.995 267.996 C 161.130 268.983,161.613 270.188,162.069 270.674 C 162.648 271.290,162.981 272.346,163.169 274.167 C 163.356 275.970,163.696 277.059,164.268 277.689 C 164.824 278.300,165.172 279.371,165.324 280.943 C 165.472 282.474,165.891 283.792,166.530 284.743 C 167.163 285.686,167.598 287.047,167.763 288.600 C 167.919 290.070,168.341 291.443,168.853 292.144 C 169.353 292.828,169.813 294.296,170.000 295.800 C 170.187 297.308,170.647 298.770,171.149 299.456 C 171.651 300.143,172.139 301.696,172.369 303.342 C 172.580 304.856,173.050 306.413,173.418 306.820 C 173.785 307.225,174.331 308.851,174.633 310.434 C 174.935 312.017,175.484 313.774,175.854 314.338 C 178.242 317.983,177.466 322.000,174.374 322.000 C 173.577 322.000,171.862 322.378,170.563 322.839 C 168.740 323.487,166.672 323.753,161.516 324.003 C 155.570 324.291,154.583 324.441,152.568 325.363 C 150.768 326.187,149.684 326.400,147.287 326.400 C 144.833 326.400,143.965 326.578,142.635 327.353 C 141.680 327.910,139.962 328.425,138.505 328.592 C 137.021 328.762,135.615 329.188,135.037 329.642 C 134.502 330.063,133.465 330.521,132.732 330.660 C 130.866 331.014,130.020 331.484,128.310 333.118 L 126.821 334.542 128.481 336.075 C 129.394 336.917,130.836 337.794,131.686 338.023 C 132.536 338.252,134.061 338.881,135.075 339.420 C 136.190 340.012,137.584 340.400,138.600 340.400 C 139.635 340.400,141.021 340.793,142.207 341.424 C 143.672 342.203,144.955 342.503,147.567 342.676 C 149.964 342.835,151.657 343.198,153.176 343.881 C 155.066 344.730,156.116 344.884,161.176 345.055 C 165.627 345.205,167.660 345.457,169.800 346.126 C 174.147 347.483,224.884 347.493,229.600 346.138 C 231.759 345.517,234.178 345.215,238.231 345.062 C 242.985 344.883,244.263 344.692,246.431 343.841 C 248.118 343.178,250.206 342.745,252.513 342.579 C 255.419 342.370,256.225 342.159,257.171 341.363 C 258.012 340.655,258.797 340.400,260.132 340.400 C 262.288 340.400,263.671 339.929,264.784 338.816 C 265.294 338.306,266.124 338.000,266.999 338.000 C 268.422 338.000,271.600 335.688,271.600 334.653 C 271.599 333.726,267.694 330.800,266.456 330.800 C 265.768 330.800,264.762 330.380,264.085 329.810 C 263.251 329.108,262.222 328.747,260.554 328.570 C 259.146 328.421,257.720 327.982,257.007 327.479 C 256.105 326.843,254.932 326.574,252.207 326.378 C 249.925 326.214,247.792 325.791,246.400 325.226 C 244.594 324.493,242.984 324.272,237.400 323.994 C 232.514 323.751,230.150 323.464,229.000 322.975 C 228.120 322.601,226.183 322.159,224.696 321.993 C 220.912 321.571,220.527 321.166,221.783 318.919 C 222.328 317.943,222.970 316.032,223.208 314.672 C 223.447 313.312,223.992 311.713,224.420 311.118 C 224.865 310.498,225.374 308.793,225.610 307.132 C 225.874 305.265,226.296 303.937,226.790 303.411 C 227.308 302.859,227.648 301.716,227.834 299.895 C 228.042 297.865,228.345 296.945,229.055 296.178 C 229.794 295.381,230.000 294.709,230.000 293.101 C 230.000 291.544,230.249 290.683,231.024 289.565 C 231.670 288.633,232.178 287.169,232.400 285.602 C 232.593 284.235,232.997 282.821,233.298 282.459 C 234.205 281.367,234.800 279.647,234.800 278.116 C 234.800 277.312,235.226 275.944,235.759 275.034 C 236.286 274.134,236.847 272.361,237.006 271.093 C 237.164 269.826,237.600 268.386,237.974 267.894 C 238.348 267.403,238.890 266.413,239.178 265.695 C 239.825 264.082,240.095 264.019,246.795 263.897 C 254.095 263.766,254.143 264.052,245.333 255.152 C 236.779 246.510,236.667 246.433,232.324 246.142 L 229.000 245.920 227.216 247.607 " stroke="none" fill="#f5fafa" fill-rule="evenodd"></path><path id="path1" d="M169.675 24.885 C 169.414 25.146,169.203 25.549,169.206 25.780 C 169.209 26.011,169.387 25.930,169.600 25.600 C 169.833 25.239,169.990 25.190,169.994 25.476 C 170.004 26.268,169.544 26.349,164.476 26.445 C 161.794 26.496,159.600 26.666,159.600 26.824 C 159.600 26.982,159.287 27.086,158.904 27.056 C 158.522 27.025,158.029 27.405,157.809 27.900 C 157.458 28.692,157.096 28.806,154.805 28.851 C 153.372 28.879,151.840 28.960,151.400 29.030 C 150.960 29.100,150.195 29.206,149.700 29.264 C 148.819 29.368,148.721 29.482,148.640 30.500 C 148.613 30.840,147.515 31.064,145.200 31.200 C 142.567 31.355,141.788 31.535,141.746 32.000 C 141.717 32.330,141.672 32.825,141.646 33.100 C 141.614 33.447,140.754 33.600,138.829 33.600 C 136.186 33.600,135.171 33.984,134.736 35.149 C 134.661 35.349,133.437 35.603,132.015 35.714 C 129.916 35.878,129.273 36.100,128.590 36.894 C 128.013 37.565,127.152 37.953,125.842 38.132 C 123.518 38.451,123.200 38.630,123.200 39.624 C 123.200 40.275,122.915 40.400,121.429 40.400 C 119.619 40.400,118.400 41.136,118.400 42.229 C 118.400 42.620,117.897 42.816,116.800 42.850 C 114.351 42.927,114.284 42.949,114.168 43.737 C 114.024 44.718,113.927 44.786,112.568 44.869 C 111.926 44.908,110.896 45.401,110.279 45.965 C 109.663 46.528,108.403 47.172,107.479 47.395 C 106.360 47.665,105.668 48.100,105.405 48.700 C 105.188 49.195,104.708 49.600,104.338 49.600 C 103.058 49.600,102.400 50.090,102.400 51.043 C 102.400 51.923,102.242 52.000,100.424 52.000 C 99.337 52.000,98.319 52.208,98.162 52.462 C 97.979 52.758,98.053 52.815,98.368 52.620 C 98.727 52.398,98.718 52.542,98.333 53.158 C 98.044 53.621,97.626 54.021,97.404 54.046 C 97.182 54.072,96.730 54.117,96.400 54.146 C 96.061 54.177,95.745 54.678,95.673 55.300 C 95.560 56.282,95.386 56.400,94.050 56.400 C 93.227 56.400,92.204 56.670,91.776 57.001 C 91.012 57.593,91.012 57.598,91.800 57.368 C 92.589 57.138,92.589 57.143,91.824 57.767 C 91.396 58.115,91.216 58.424,91.424 58.453 C 91.631 58.482,91.170 58.617,90.400 58.753 C 89.244 58.957,88.978 59.192,88.873 60.100 C 88.767 61.021,88.556 61.200,87.573 61.200 C 86.588 61.200,86.400 61.361,86.400 62.200 C 86.400 62.993,86.198 63.200,85.426 63.200 C 83.873 63.200,82.340 63.943,82.115 64.805 C 82.000 65.242,81.645 65.600,81.325 65.600 C 80.559 65.600,79.485 66.691,79.781 67.169 C 80.072 67.640,79.354 68.101,78.246 68.157 C 77.781 68.181,77.376 68.470,77.346 68.800 C 77.317 69.130,77.272 69.613,77.246 69.873 C 77.221 70.134,76.705 70.404,76.100 70.473 C 75.350 70.560,74.999 70.832,74.997 71.330 C 74.995 71.731,74.680 72.235,74.297 72.450 C 73.914 72.664,73.600 72.719,73.600 72.571 C 73.600 72.423,73.332 72.524,73.004 72.796 C 72.677 73.068,72.485 73.414,72.578 73.564 C 72.886 74.063,72.141 74.839,71.292 74.903 C 70.832 74.938,70.464 75.064,70.475 75.183 C 70.606 76.629,70.309 77.157,69.300 77.273 C 68.443 77.372,68.173 77.638,68.076 78.476 C 67.980 79.307,67.707 79.580,66.876 79.676 C 66.031 79.773,65.798 80.015,65.791 80.800 C 65.784 81.529,65.592 81.768,65.082 81.680 C 64.179 81.526,63.056 82.647,63.349 83.410 C 63.564 83.971,63.387 84.069,62.004 84.162 C 61.673 84.184,61.307 84.735,61.182 85.401 C 61.050 86.098,60.738 86.552,60.436 86.486 C 59.684 86.321,58.727 87.234,58.975 87.879 C 59.091 88.182,58.920 88.533,58.593 88.658 C 58.267 88.783,58.000 89.136,58.000 89.443 C 58.000 89.749,57.732 90.000,57.405 90.000 C 57.021 90.000,56.720 90.561,56.557 91.578 C 56.345 92.906,56.138 93.175,55.252 93.278 C 54.465 93.369,54.188 93.637,54.153 94.344 C 54.105 95.297,53.418 95.983,52.500 95.994 C 52.225 95.997,52.000 96.437,52.000 96.972 C 52.000 97.676,51.751 97.980,51.100 98.072 C 50.605 98.142,50.200 98.410,50.200 98.667 C 50.200 98.923,50.065 99.268,49.900 99.433 C 49.735 99.598,49.600 100.311,49.600 101.017 C 49.600 102.123,49.434 102.333,48.397 102.541 C 47.735 102.673,47.216 102.920,47.244 103.091 C 47.444 104.313,47.144 105.153,46.584 104.938 C 46.191 104.788,46.010 104.902,46.084 105.251 C 46.148 105.553,45.986 105.759,45.725 105.708 C 45.448 105.655,45.313 105.948,45.402 106.408 C 45.485 106.844,45.384 107.200,45.177 107.200 C 44.970 107.200,44.800 107.709,44.800 108.332 C 44.800 109.248,44.629 109.457,43.900 109.432 C 43.115 109.404,42.984 109.627,42.873 111.180 C 42.788 112.370,42.633 112.776,42.404 112.406 C 42.006 111.763,40.734 112.543,40.858 113.353 C 40.895 113.599,40.818 114.070,40.687 114.400 C 40.555 114.730,40.389 115.360,40.318 115.799 C 40.241 116.279,39.879 116.599,39.414 116.599 C 38.563 116.600,38.105 117.722,38.040 119.967 C 38.018 120.718,37.882 121.215,37.737 121.070 C 37.592 120.925,37.197 121.030,36.860 121.303 C 36.357 121.710,36.308 121.699,36.585 121.238 C 36.822 120.845,36.776 120.767,36.435 120.979 C 36.166 121.145,36.042 121.533,36.160 121.840 C 36.278 122.148,36.201 122.400,35.987 122.400 C 35.774 122.400,35.600 123.120,35.600 124.000 C 35.600 124.880,35.420 125.623,35.200 125.650 C 34.980 125.678,34.575 125.722,34.300 125.750 C 33.980 125.782,33.757 126.621,33.681 128.080 C 33.581 129.988,33.456 130.320,32.915 130.112 C 32.487 129.948,32.366 130.021,32.555 130.327 C 32.748 130.640,32.617 130.705,32.151 130.526 C 31.616 130.321,31.521 130.416,31.726 130.951 C 31.872 131.331,31.840 131.549,31.657 131.435 C 31.473 131.321,31.289 132.245,31.249 133.488 C 31.175 135.738,30.710 136.829,29.851 136.768 C 29.570 136.749,29.589 136.660,29.902 136.534 C 30.179 136.423,30.286 136.139,30.141 135.904 C 29.984 135.651,30.065 135.593,30.338 135.762 C 30.592 135.919,30.800 135.857,30.800 135.624 C 30.800 134.882,30.045 135.168,29.547 136.099 C 29.065 136.999,28.914 137.892,28.840 140.272 C 28.808 141.272,28.607 141.572,27.900 141.672 C 27.330 141.753,27.020 142.057,27.056 142.500 C 27.086 142.885,26.940 143.200,26.730 143.200 C 26.521 143.200,26.382 143.515,26.421 143.900 C 26.729 146.932,26.387 148.695,25.500 148.648 C 24.647 148.602,24.594 148.766,24.483 151.800 C 24.343 155.671,24.229 156.063,23.350 155.725 C 22.920 155.560,22.766 155.621,22.932 155.890 C 23.077 156.124,22.933 156.417,22.612 156.540 C 22.164 156.712,22.002 157.719,21.914 160.882 C 21.808 164.695,21.741 165.000,21.000 165.000 C 20.560 165.000,20.183 165.270,20.161 165.600 C 20.140 165.930,19.993 166.496,19.834 166.859 C 19.676 167.221,19.579 167.761,19.620 168.059 C 20.061 171.261,19.539 176.323,18.748 176.529 C 18.166 176.682,17.974 176.956,18.143 177.397 C 18.280 177.751,18.232 177.943,18.038 177.824 C 17.304 177.370,17.228 180.144,17.239 206.815 C 17.250 234.800,17.303 236.400,18.223 236.400 C 18.514 236.400,18.863 236.578,18.997 236.795 C 19.142 237.030,18.963 237.084,18.555 236.927 C 18.089 236.749,17.962 236.815,18.158 237.132 C 18.317 237.389,18.707 237.600,19.024 237.600 C 19.481 237.600,19.607 238.361,19.635 241.300 C 19.691 247.264,20.007 249.000,21.039 249.000 C 21.730 249.000,21.810 249.377,21.914 253.115 C 21.977 255.378,22.182 257.135,22.369 257.019 C 22.556 256.903,22.685 257.122,22.655 257.504 C 22.623 257.909,22.881 258.202,23.272 258.205 C 24.285 258.213,24.330 258.352,24.450 261.880 C 24.554 264.918,24.628 265.171,25.481 265.385 C 26.378 265.610,26.711 267.199,26.468 270.100 C 26.436 270.485,26.595 270.800,26.822 270.800 C 27.049 270.800,27.182 271.115,27.118 271.500 C 27.033 272.001,27.256 272.191,27.900 272.168 C 28.666 272.141,28.805 272.350,28.833 273.568 C 28.909 276.828,29.364 278.271,30.420 278.606 C 31.151 278.838,31.486 280.405,31.221 282.340 C 31.180 282.637,31.340 282.761,31.576 282.615 C 31.812 282.469,32.114 282.631,32.246 282.975 C 32.378 283.319,32.736 283.600,33.043 283.600 C 33.429 283.600,33.615 284.152,33.650 285.400 C 33.724 288.068,33.739 288.115,34.537 288.232 C 35.567 288.383,35.672 288.556,35.718 290.172 C 35.740 290.957,35.922 291.600,36.122 291.600 C 36.322 291.600,36.388 291.853,36.269 292.163 C 36.131 292.523,36.404 292.815,37.027 292.971 C 37.780 293.160,38.000 293.479,38.000 294.384 C 38.000 295.027,38.172 295.659,38.383 295.789 C 38.593 295.919,38.664 296.290,38.540 296.613 C 38.416 296.936,38.514 297.223,38.757 297.250 C 39.001 297.278,39.422 297.322,39.693 297.350 C 39.964 297.377,40.302 298.110,40.443 298.977 C 40.600 299.944,41.092 300.893,41.715 301.429 C 42.274 301.909,42.792 302.730,42.866 303.251 C 42.952 303.860,43.306 304.244,43.854 304.322 C 44.686 304.440,45.240 305.723,45.357 307.800 C 45.384 308.284,45.685 308.601,46.118 308.603 C 46.942 308.608,47.614 309.498,47.337 310.219 C 47.234 310.489,47.700 310.954,48.374 311.253 C 49.356 311.687,49.600 312.039,49.600 313.016 C 49.600 313.881,49.945 314.524,50.783 315.219 C 51.434 315.758,51.974 316.493,51.983 316.851 C 52.002 317.564,53.180 318.720,53.561 318.400 C 53.693 318.290,53.980 318.755,54.200 319.434 C 54.420 320.112,54.780 320.610,55.000 320.540 C 55.734 320.307,56.281 320.985,56.656 322.595 C 56.906 323.666,57.351 324.351,58.010 324.680 C 58.551 324.949,59.012 325.402,59.036 325.685 C 59.153 327.098,59.241 327.270,59.751 327.074 C 60.508 326.783,61.200 327.566,61.200 328.713 C 61.200 329.295,61.394 329.602,61.696 329.501 C 62.191 329.336,63.355 330.246,63.450 330.871 C 63.477 331.052,63.523 331.368,63.550 331.573 C 63.578 331.779,64.095 332.004,64.700 332.073 C 65.331 332.146,65.817 332.456,65.839 332.800 C 65.924 334.102,66.012 334.398,66.300 334.353 C 67.391 334.180,67.926 334.530,68.130 335.550 C 68.307 336.435,68.570 336.688,69.274 336.650 C 69.992 336.611,70.233 336.857,70.398 337.800 C 70.513 338.460,70.831 339.023,71.104 339.050 C 71.377 339.078,71.881 339.123,72.224 339.150 C 72.567 339.178,72.746 339.364,72.622 339.564 C 72.161 340.310,72.906 341.200,73.991 341.200 C 74.778 341.200,75.095 341.402,75.093 341.900 C 75.087 343.374,75.229 343.600,76.157 343.600 C 76.833 343.600,77.184 343.881,77.354 344.560 C 77.503 345.153,78.053 345.680,78.794 345.938 C 79.593 346.217,79.918 346.549,79.769 346.937 C 79.646 347.257,79.766 347.655,80.035 347.821 C 80.325 348.001,80.421 347.957,80.271 347.715 C 80.132 347.490,80.641 347.588,81.403 347.933 C 82.325 348.351,82.623 348.662,82.295 348.865 C 81.484 349.366,83.206 350.373,84.900 350.387 C 86.297 350.399,86.400 350.482,86.400 351.600 C 86.400 352.667,86.533 352.800,87.600 352.800 C 88.613 352.800,88.800 352.956,88.800 353.800 C 88.800 354.350,88.980 354.822,89.200 354.850 C 89.420 354.878,89.780 354.945,90.000 355.000 C 90.220 355.055,90.664 355.123,90.987 355.150 C 91.355 355.181,91.483 355.440,91.329 355.840 C 90.992 356.719,91.880 357.187,93.900 357.194 C 95.619 357.200,95.680 357.270,95.584 359.100 C 95.576 359.265,96.161 359.491,96.884 359.603 C 97.901 359.760,98.170 359.978,98.069 360.561 C 97.894 361.572,98.655 361.987,100.700 361.994 C 102.094 361.999,102.400 362.135,102.400 362.751 C 102.400 363.562,103.465 364.669,103.862 364.271 C 104.222 363.911,105.660 364.780,105.400 365.200 C 105.084 365.712,106.535 366.400,107.931 366.400 C 109.014 366.400,109.850 367.220,109.664 368.100 C 109.629 368.265,109.645 368.409,109.700 368.420 C 109.755 368.432,110.610 368.532,111.600 368.644 C 114.128 368.930,114.364 369.050,114.134 369.930 C 114.022 370.359,114.154 370.848,114.427 371.017 C 114.777 371.233,114.824 371.158,114.585 370.762 C 114.320 370.323,114.408 370.331,114.985 370.800 C 115.391 371.130,115.785 371.355,115.861 371.300 C 116.382 370.924,118.749 371.271,118.592 371.700 C 118.285 372.537,119.084 373.358,120.274 373.429 C 120.893 373.467,121.785 373.520,122.257 373.548 C 122.796 373.581,123.200 373.945,123.347 374.531 C 123.554 375.356,123.843 375.473,125.886 375.556 C 127.985 375.640,129.991 376.543,129.398 377.135 C 129.285 377.249,128.929 376.995,128.609 376.571 C 128.288 376.147,128.020 376.003,128.013 376.251 C 127.987 377.150,129.186 377.645,131.944 377.877 C 134.608 378.100,134.764 378.168,134.879 379.156 C 134.997 380.171,135.088 380.204,138.200 380.334 C 141.801 380.485,141.621 380.424,141.704 381.527 C 141.738 381.977,141.909 382.256,142.083 382.149 C 142.257 382.041,142.400 382.135,142.400 382.358 C 142.400 382.580,142.805 382.745,143.300 382.725 C 146.896 382.574,148.767 382.821,148.538 383.416 C 148.388 383.809,148.502 383.990,148.851 383.916 C 149.153 383.852,149.366 383.993,149.324 384.229 C 149.275 384.505,150.691 384.693,153.309 384.757 C 157.804 384.868,158.076 384.938,157.715 385.878 C 157.558 386.285,157.625 386.432,157.890 386.268 C 158.124 386.123,158.407 386.242,158.519 386.532 C 158.669 386.923,160.044 387.085,163.844 387.158 C 169.017 387.257,169.787 387.374,169.400 388.000 C 168.410 389.602,225.974 390.688,227.930 389.105 C 228.449 388.685,228.502 388.701,228.247 389.200 C 228.079 389.530,228.224 389.451,228.570 389.024 C 228.917 388.596,229.200 388.101,229.200 387.924 C 229.200 387.746,229.402 387.600,229.649 387.600 C 229.947 387.600,229.918 387.835,229.561 388.300 C 229.266 388.685,229.480 388.595,230.038 388.100 C 230.967 387.275,231.445 387.200,235.749 387.200 C 239.234 387.200,240.373 387.079,240.158 386.732 C 239.964 386.417,240.087 386.348,240.534 386.519 C 240.900 386.660,241.200 386.590,241.200 386.364 C 241.200 386.138,241.371 386.058,241.579 386.187 C 241.788 386.316,241.892 386.079,241.812 385.661 C 241.677 384.961,241.966 384.895,245.459 384.830 C 249.355 384.757,251.200 384.277,251.200 383.336 C 251.200 382.959,251.853 382.785,253.400 382.750 C 255.448 382.703,255.919 382.654,256.700 382.404 C 256.865 382.351,257.270 382.283,257.600 382.254 C 257.950 382.222,258.187 381.826,258.168 381.300 C 258.138 380.452,258.293 380.400,260.845 380.400 C 262.460 380.400,263.668 380.214,263.838 379.938 C 264.026 379.635,263.931 379.576,263.562 379.768 C 263.253 379.928,263.342 379.782,263.759 379.442 C 264.176 379.103,264.676 378.923,264.869 379.043 C 265.062 379.162,265.170 379.021,265.110 378.730 C 265.032 378.353,265.694 378.142,267.400 378.000 C 269.663 377.811,269.807 377.737,269.927 376.700 C 270.049 375.637,270.133 375.600,272.445 375.600 C 274.480 375.600,274.990 375.447,275.864 374.572 C 276.464 373.973,277.374 373.530,278.046 373.511 C 278.681 373.493,279.200 373.349,279.200 373.191 C 279.200 373.033,279.605 372.926,280.100 372.952 C 280.767 372.988,280.967 372.808,280.873 372.260 C 280.797 371.816,280.917 371.625,281.173 371.783 C 281.408 371.929,281.600 371.857,281.600 371.624 C 281.600 371.391,282.038 371.200,282.574 371.200 C 284.220 371.200,285.709 370.461,285.445 369.774 C 285.310 369.422,285.379 369.263,285.605 369.403 C 285.822 369.537,286.000 369.457,286.000 369.224 C 286.000 368.991,286.540 368.800,287.200 368.800 C 287.978 368.800,288.418 368.589,288.450 368.200 C 288.478 367.870,288.522 367.390,288.550 367.133 C 288.616 366.520,289.600 366.198,289.600 366.790 C 289.600 367.042,289.450 367.155,289.267 367.041 C 289.083 366.928,288.933 367.125,288.933 367.479 C 288.933 367.996,289.066 367.959,289.607 367.291 C 289.989 366.819,290.867 366.404,291.640 366.330 C 292.763 366.223,292.992 366.043,292.952 365.300 C 292.915 364.597,293.134 364.387,293.952 364.339 C 295.546 364.246,295.730 364.201,296.700 363.667 C 297.195 363.395,297.600 362.908,297.600 362.586 C 297.600 362.202,298.013 362.000,298.800 362.000 C 299.507 362.000,300.000 361.790,300.000 361.489 C 300.000 360.678,301.351 359.736,302.939 359.438 C 304.149 359.211,304.400 358.995,304.400 358.182 C 304.400 357.358,304.593 357.200,305.600 357.200 C 306.613 357.200,306.800 357.044,306.800 356.200 C 306.800 355.268,307.481 354.929,308.900 355.153 C 309.065 355.179,309.200 355.043,309.200 354.852 C 309.200 354.661,309.605 354.526,310.100 354.552 C 310.794 354.589,310.989 354.394,310.952 353.700 C 310.913 352.970,311.115 352.800,312.020 352.800 C 312.935 352.800,313.184 352.584,313.400 351.600 C 313.619 350.601,313.859 350.400,314.832 350.400 C 315.863 350.400,316.000 350.259,316.000 349.200 C 316.000 348.133,316.133 348.000,317.200 348.000 C 318.213 348.000,318.400 347.844,318.400 347.000 C 318.400 346.259,318.612 346.000,319.220 346.000 C 320.248 346.000,322.400 344.910,322.400 344.390 C 322.400 344.175,322.209 344.000,321.976 344.000 C 321.743 344.000,321.681 344.208,321.838 344.462 C 322.015 344.748,321.948 344.815,321.662 344.638 C 321.408 344.481,321.200 344.573,321.200 344.843 C 321.200 345.113,321.084 345.218,320.943 345.076 C 320.483 344.616,321.673 343.600,322.673 343.600 C 323.209 343.600,323.549 343.440,323.428 343.245 C 323.307 343.050,323.522 342.915,323.904 342.945 C 324.374 342.982,324.559 342.759,324.473 342.260 C 324.397 341.816,324.517 341.625,324.773 341.783 C 325.008 341.929,325.200 341.783,325.200 341.461 C 325.200 341.075,325.469 340.945,325.986 341.080 C 326.586 341.237,326.931 340.953,327.444 339.878 C 327.830 339.068,328.330 338.552,328.620 338.663 C 328.930 338.782,329.228 338.384,329.394 337.628 C 329.542 336.953,329.874 336.379,330.132 336.354 C 330.389 336.328,330.870 336.283,331.200 336.254 C 331.556 336.222,331.781 335.834,331.752 335.300 C 331.718 334.661,331.928 334.400,332.476 334.400 C 332.900 334.400,333.137 334.222,333.003 334.005 C 332.865 333.781,333.018 333.709,333.355 333.838 C 333.793 334.006,334.025 333.675,334.228 332.594 C 334.418 331.576,334.607 331.288,334.837 331.660 C 335.105 332.093,335.313 332.046,335.886 331.422 C 336.482 330.773,336.488 330.728,335.923 331.152 C 335.340 331.589,335.254 331.548,335.306 330.858 C 335.339 330.417,335.464 330.064,335.583 330.075 C 336.377 330.147,336.800 329.923,336.800 329.429 C 336.800 329.115,337.240 328.512,337.777 328.089 C 338.315 327.667,338.872 326.854,339.015 326.283 C 339.178 325.632,339.596 325.200,340.138 325.123 C 340.742 325.037,341.038 324.671,341.127 323.900 C 341.243 322.891,341.771 322.594,343.217 322.725 C 343.336 322.736,343.460 322.395,343.492 321.968 C 343.569 320.949,344.668 319.871,345.259 320.236 C 345.548 320.415,345.616 320.349,345.438 320.062 C 345.281 319.808,345.351 319.600,345.594 319.600 C 345.837 319.600,345.982 319.362,345.918 319.071 C 345.853 318.780,346.385 317.956,347.100 317.240 C 347.959 316.380,348.400 315.551,348.400 314.797 C 348.400 313.918,348.607 313.626,349.300 313.528 C 349.977 313.432,350.261 313.054,350.447 312.000 C 350.583 311.230,350.718 310.757,350.747 310.949 C 350.776 311.141,351.105 311.051,351.477 310.749 C 352.059 310.276,352.111 310.283,351.847 310.800 C 351.679 311.130,351.824 311.051,352.170 310.624 C 352.517 310.196,352.800 309.161,352.800 308.324 C 352.800 306.863,353.144 306.543,354.493 306.750 C 354.654 306.775,354.907 306.301,355.055 305.698 C 355.202 305.094,355.440 304.510,355.583 304.400 C 356.164 303.952,357.600 301.258,357.600 300.615 C 357.600 300.236,357.943 299.835,358.363 299.726 C 359.200 299.507,359.586 298.496,359.595 296.500 C 359.599 295.398,359.746 295.200,360.553 295.200 C 361.614 295.200,361.985 294.358,361.995 291.937 C 361.999 290.673,362.108 290.503,362.800 290.684 C 363.265 290.806,363.600 290.696,363.600 290.423 C 363.600 290.164,363.780 290.064,364.000 290.200 C 364.248 290.353,364.400 289.604,364.400 288.224 C 364.400 286.289,364.501 286.000,365.176 286.000 C 366.367 286.000,366.620 285.429,366.750 282.452 C 366.790 281.528,366.975 281.314,367.700 281.352 C 368.540 281.397,368.613 281.202,368.800 278.436 C 368.964 276.007,369.126 275.455,369.702 275.372 C 370.088 275.316,370.301 275.437,370.174 275.642 C 370.048 275.846,369.777 275.909,369.572 275.783 C 369.368 275.656,369.200 275.743,369.200 275.976 C 369.200 276.209,369.358 276.400,369.551 276.400 C 370.387 276.400,371.014 274.894,371.200 272.440 C 371.338 270.622,371.556 269.831,371.900 269.900 C 372.175 269.955,372.400 269.820,372.400 269.600 C 372.400 269.380,372.624 269.245,372.897 269.300 C 373.249 269.371,373.431 268.525,373.522 266.400 C 373.610 264.318,373.843 263.216,374.281 262.800 C 374.628 262.470,374.787 262.425,374.633 262.700 C 374.288 263.316,375.046 263.372,375.425 262.759 C 375.575 262.516,375.784 260.851,375.889 259.059 C 376.048 256.337,376.236 255.634,377.026 254.793 C 377.890 253.872,377.982 253.389,378.086 249.193 C 378.197 244.728,378.225 244.601,379.091 244.647 C 379.581 244.673,379.885 244.538,379.767 244.347 C 379.649 244.156,379.717 244.000,379.917 244.000 C 380.119 244.000,380.319 241.060,380.365 237.435 C 380.461 229.811,381.045 230.600,375.000 230.193 C 372.177 230.003,370.641 229.705,369.782 229.180 C 369.111 228.770,367.802 228.314,366.873 228.165 C 365.943 228.017,365.099 227.760,364.997 227.595 C 364.692 227.102,361.652 228.806,361.396 229.613 C 361.266 230.023,360.817 230.467,360.400 230.600 C 359.983 230.733,359.533 231.183,359.400 231.600 C 359.267 232.017,358.797 232.474,358.355 232.614 C 357.913 232.755,357.355 233.300,357.115 233.827 C 356.875 234.354,356.335 234.894,355.915 235.027 C 355.495 235.160,354.955 235.700,354.715 236.227 C 354.475 236.754,353.935 237.294,353.515 237.427 C 353.095 237.560,352.555 238.100,352.315 238.627 C 352.075 239.154,351.555 239.687,351.160 239.813 C 350.764 239.938,350.333 240.383,350.200 240.800 C 350.067 241.217,349.597 241.674,349.155 241.814 C 348.713 241.955,348.155 242.500,347.915 243.027 C 347.675 243.554,347.135 244.094,346.715 244.227 C 346.295 244.360,345.755 244.900,345.515 245.427 C 345.275 245.954,344.735 246.494,344.315 246.627 C 343.895 246.760,343.355 247.300,343.115 247.827 C 342.875 248.354,342.355 248.887,341.960 249.013 C 341.564 249.138,341.138 249.564,341.013 249.960 C 340.887 250.355,340.338 250.882,339.792 251.131 C 339.247 251.379,338.800 251.726,338.800 251.900 C 338.800 252.383,335.384 256.000,334.928 256.000 C 334.708 256.000,334.330 256.434,334.089 256.965 C 333.847 257.496,333.305 258.040,332.885 258.173 C 332.465 258.306,331.925 258.846,331.685 259.373 C 331.445 259.900,330.878 260.448,330.424 260.592 C 329.971 260.736,329.600 261.015,329.600 261.212 C 329.600 261.692,326.170 265.200,325.700 265.200 C 325.496 265.200,325.130 265.634,324.889 266.165 C 324.647 266.696,324.105 267.240,323.685 267.373 C 323.265 267.506,322.725 268.046,322.485 268.573 C 322.245 269.100,321.678 269.648,321.224 269.792 C 320.771 269.936,320.400 270.215,320.400 270.412 C 320.400 270.892,316.970 274.400,316.500 274.400 C 316.296 274.400,315.930 274.834,315.689 275.365 C 315.447 275.896,314.905 276.440,314.485 276.573 C 314.065 276.706,313.525 277.246,313.285 277.773 C 313.045 278.300,312.497 278.842,312.068 278.978 C 310.787 279.385,310.743 284.000,312.020 284.000 C 312.753 284.000,313.196 287.240,313.196 292.600 C 313.196 297.964,312.753 301.200,312.019 301.200 C 311.830 301.200,311.395 302.022,311.053 303.026 C 309.933 306.313,303.464 312.807,300.774 313.345 C 300.124 313.475,299.039 313.991,298.363 314.491 C 296.528 315.848,284.881 315.886,282.996 314.541 C 282.334 314.069,281.049 313.482,280.140 313.238 C 279.154 312.972,278.224 312.391,277.834 311.796 C 277.475 311.248,276.966 310.800,276.702 310.800 C 276.150 310.800,270.800 305.204,270.800 304.627 C 270.800 304.416,270.370 303.603,269.843 302.822 C 269.052 301.645,267.662 295.828,267.497 293.000 C 267.388 291.140,269.051 283.377,269.672 282.845 C 271.140 281.588,270.559 280.752,262.969 273.197 C 258.882 269.129,255.105 265.133,254.575 264.318 C 253.198 262.198,218.052 227.600,217.275 227.600 C 216.041 227.600,212.452 228.575,211.400 229.196 C 208.986 230.621,200.122 230.534,198.458 229.069 C 198.096 228.750,197.170 228.357,196.400 228.196 C 195.630 228.034,194.350 227.573,193.555 227.171 C 192.125 226.448,192.100 226.449,191.256 227.320 C 190.786 227.804,190.059 228.533,189.641 228.940 C 188.776 229.781,188.194 230.371,187.489 231.119 C 187.220 231.405,186.767 231.855,186.481 232.119 C 186.196 232.384,185.116 233.450,184.081 234.490 C 183.047 235.529,181.993 236.582,181.740 236.830 C 180.543 238.002,179.042 239.520,178.289 240.319 C 178.020 240.605,177.562 241.055,177.271 241.319 C 176.981 241.584,176.414 242.133,176.011 242.540 C 175.609 242.947,175.065 243.487,174.802 243.740 C 174.540 243.993,173.852 244.695,173.273 245.300 C 172.695 245.905,172.037 246.403,171.811 246.406 C 171.314 246.414,154.400 263.384,154.400 263.876 C 154.400 264.066,153.905 264.691,153.300 265.265 C 152.695 265.838,151.984 266.553,151.719 266.854 C 151.455 267.154,151.005 267.620,150.719 267.889 C 150.434 268.158,150.020 268.554,149.800 268.769 C 149.580 268.984,149.040 269.502,148.600 269.920 C 148.160 270.338,147.080 271.516,146.200 272.537 C 145.320 273.558,144.404 274.395,144.164 274.397 C 143.925 274.399,143.530 274.834,143.289 275.365 C 143.047 275.896,142.505 276.440,142.085 276.573 C 141.665 276.706,141.125 277.246,140.885 277.773 C 140.645 278.300,140.078 278.848,139.624 278.992 C 138.279 279.419,138.326 282.343,139.707 284.200 C 140.934 285.849,141.096 299.368,139.905 300.684 C 139.523 301.106,139.003 302.070,138.750 302.826 C 137.715 305.915,131.908 311.924,128.868 313.051 C 127.841 313.432,126.460 314.116,125.800 314.572 C 123.956 315.844,112.247 315.828,110.518 314.550 C 109.886 314.083,108.781 313.572,108.063 313.414 C 107.345 313.256,106.207 312.649,105.535 312.064 C 102.923 309.791,98.400 305.118,98.400 304.692 C 98.400 304.445,97.955 303.602,97.412 302.818 C 96.780 301.905,96.273 300.385,96.005 298.596 C 95.775 297.058,95.448 295.174,95.278 294.408 C 94.724 291.903,96.543 282.400,97.576 282.400 C 97.792 282.400,98.153 281.716,98.379 280.879 C 98.898 278.952,103.511 274.195,105.900 273.124 C 106.835 272.705,107.600 272.198,107.600 271.997 C 107.600 271.796,108.365 271.434,109.300 271.192 C 110.235 270.950,112.183 270.403,113.628 269.976 C 116.754 269.053,119.301 268.989,121.535 269.777 C 122.434 270.094,124.178 270.540,125.411 270.768 C 126.643 270.996,128.122 271.553,128.698 272.006 L 129.745 272.829 130.572 272.018 C 132.944 269.694,139.167 263.861,140.299 262.901 C 141.014 262.296,141.824 261.566,142.099 261.281 C 142.375 260.995,142.827 260.545,143.104 260.281 C 143.381 260.016,144.911 258.467,146.504 256.839 C 148.097 255.210,149.735 253.590,150.145 253.239 C 150.554 252.887,151.094 252.381,151.345 252.114 C 151.595 251.847,152.016 251.397,152.281 251.114 C 152.545 250.831,152.995 250.375,153.281 250.099 C 153.566 249.823,154.388 248.923,155.107 248.099 C 155.826 247.275,160.011 242.933,164.407 238.452 C 168.803 233.971,172.400 230.158,172.400 229.979 C 172.400 229.800,172.751 229.543,173.180 229.406 C 173.608 229.270,174.074 228.797,174.214 228.355 C 174.355 227.913,174.884 227.362,175.391 227.132 C 175.897 226.901,176.508 226.282,176.747 225.756 C 176.987 225.230,177.461 224.800,177.800 224.800 C 178.139 224.800,178.613 224.370,178.853 223.844 C 179.092 223.318,179.718 222.692,180.244 222.453 C 180.770 222.213,181.200 221.739,181.200 221.400 C 181.200 221.061,181.649 220.578,182.199 220.328 C 184.014 219.501,184.115 213.466,182.349 211.338 C 181.631 210.474,181.583 203.584,182.289 202.734 C 182.557 202.410,182.984 201.168,183.236 199.973 C 183.974 196.473,190.091 188.000,191.880 188.000 C 192.102 188.000,192.760 187.558,193.343 187.018 C 193.926 186.478,195.077 185.916,195.901 185.769 C 196.726 185.623,198.030 185.120,198.800 184.651 C 200.713 183.488,209.836 183.365,211.074 184.486 C 211.491 184.864,212.771 185.374,213.917 185.620 C 215.063 185.865,216.226 186.386,216.501 186.776 C 216.775 187.166,217.370 187.602,217.823 187.745 C 218.934 188.096,223.025 192.102,223.798 193.597 C 224.140 194.258,224.589 194.800,224.795 194.800 C 225.001 194.800,225.432 195.655,225.753 196.700 C 226.075 197.745,226.712 199.313,227.169 200.185 C 228.491 202.706,228.398 211.532,227.022 214.120 C 225.306 217.348,225.212 220.096,226.800 220.600 C 227.217 220.733,227.674 221.203,227.814 221.645 C 227.955 222.087,228.504 222.647,229.035 222.889 C 229.566 223.130,230.000 223.539,230.000 223.797 C 230.000 224.054,230.405 224.497,230.900 224.780 C 231.395 225.063,232.610 226.249,233.600 227.416 C 234.590 228.582,235.688 229.645,236.039 229.776 C 236.391 229.908,236.875 230.446,237.115 230.973 C 237.355 231.500,237.922 232.048,238.376 232.192 C 238.829 232.336,239.200 232.705,239.200 233.013 C 239.200 233.320,239.518 233.742,239.907 233.950 C 240.496 234.266,244.131 237.848,246.900 240.843 C 247.285 241.259,247.780 241.600,248.000 241.600 C 248.220 241.600,248.400 241.874,248.400 242.209 C 248.400 242.543,248.812 243.005,249.315 243.234 C 249.819 243.464,250.807 244.495,251.512 245.526 C 252.839 247.465,266.789 261.434,269.164 263.200 C 269.904 263.750,270.890 264.624,271.355 265.143 C 272.741 266.689,276.908 270.701,278.247 271.778 C 279.480 272.770,279.501 272.773,280.201 271.998 C 280.591 271.568,281.560 271.109,282.355 270.980 C 283.150 270.850,284.998 270.396,286.462 269.972 C 289.807 269.002,291.393 269.002,294.738 269.972 C 296.202 270.396,298.052 270.850,298.849 270.980 C 299.645 271.110,300.708 271.573,301.210 272.008 C 301.712 272.444,302.169 272.800,302.226 272.800 C 302.282 272.800,314.315 260.813,328.964 246.162 C 358.160 216.965,356.852 218.500,354.770 215.852 C 352.937 213.523,352.950 198.000,354.784 198.000 C 354.979 198.000,355.356 197.341,355.622 196.535 C 356.480 193.933,361.369 188.379,363.353 187.753 C 363.819 187.606,364.421 187.172,364.690 186.789 C 364.960 186.406,365.851 185.967,366.672 185.813 C 367.492 185.659,368.876 185.169,369.749 184.724 C 370.811 184.182,372.401 183.857,374.567 183.738 C 376.345 183.640,378.394 183.469,379.121 183.358 L 380.441 183.156 380.321 176.296 L 380.200 169.435 379.200 169.201 C 378.224 168.972,378.195 168.860,378.000 164.583 C 377.814 160.499,377.351 158.661,376.427 158.335 C 376.216 158.261,376.008 156.940,375.964 155.400 C 375.870 152.075,375.429 150.627,374.607 150.942 C 373.781 151.259,373.667 150.915,373.536 147.713 C 373.472 146.146,373.280 144.951,373.110 145.056 C 372.939 145.161,372.800 144.947,372.800 144.581 C 372.800 144.163,372.584 143.997,372.220 144.137 C 371.538 144.399,371.282 143.698,371.147 141.200 C 371.026 138.948,370.493 137.684,369.539 137.381 C 368.942 137.191,368.800 136.736,368.800 135.016 C 368.800 133.078,368.710 132.864,367.800 132.636 C 366.866 132.401,366.435 130.907,366.767 129.058 C 366.877 128.441,365.884 127.559,365.321 127.775 C 364.659 128.029,364.477 127.568,364.307 125.200 C 364.191 123.576,364.072 123.388,363.089 123.273 C 362.024 123.150,361.645 121.804,361.970 119.300 C 362.034 118.809,361.699 118.688,360.300 118.693 C 359.754 118.695,359.590 118.334,359.554 117.048 C 359.479 114.366,359.431 114.200,358.728 114.195 C 357.793 114.188,357.641 113.960,357.420 112.230 C 357.206 110.559,356.597 109.600,355.751 109.600 C 355.405 109.600,355.200 109.153,355.200 108.400 C 355.200 107.333,355.067 107.200,354.000 107.200 C 352.799 107.200,352.466 106.343,352.779 104.060 C 352.825 103.725,352.665 103.636,352.359 103.825 C 352.014 104.039,351.941 103.930,352.119 103.466 C 352.363 102.830,352.241 102.731,351.100 102.640 C 350.825 102.618,350.510 102.060,350.400 101.400 C 350.244 100.461,350.004 100.210,349.300 100.248 C 348.611 100.285,348.400 100.078,348.400 99.367 C 348.400 97.954,347.618 96.537,346.575 96.062 C 345.992 95.796,345.691 95.365,345.776 94.918 C 345.944 94.033,345.203 93.294,344.285 93.429 C 343.672 93.519,343.363 92.704,343.553 91.500 C 343.598 91.213,343.313 91.127,342.018 91.038 C 341.698 91.016,341.330 90.548,341.201 89.999 C 341.054 89.368,340.641 88.953,340.084 88.872 C 339.473 88.784,339.200 88.467,339.200 87.847 C 339.200 87.323,338.722 86.597,338.049 86.100 C 337.332 85.569,336.801 84.729,336.640 83.870 C 336.461 82.919,336.175 82.509,335.714 82.546 C 335.347 82.576,334.840 82.196,334.588 81.702 C 334.335 81.209,334.028 80.906,333.904 81.029 C 333.781 81.152,333.707 80.933,333.740 80.540 C 333.780 80.070,333.446 79.755,332.758 79.614 C 332.060 79.471,331.750 79.173,331.821 78.712 C 331.878 78.334,331.807 78.064,331.663 78.112 C 331.518 78.161,331.366 78.042,331.325 77.849 C 331.284 77.657,330.834 77.287,330.325 77.027 C 329.816 76.768,329.448 76.271,329.507 75.923 C 329.566 75.576,329.332 75.183,328.986 75.050 C 328.571 74.891,328.443 74.977,328.610 75.305 C 328.748 75.577,328.487 75.375,328.030 74.856 C 327.574 74.336,327.200 73.661,327.200 73.356 C 327.200 73.050,326.840 72.800,326.400 72.800 C 325.565 72.800,323.722 71.234,323.906 70.681 C 323.965 70.506,323.785 70.392,323.506 70.428 C 322.126 70.609,321.391 70.394,322.000 69.986 C 322.854 69.414,321.113 68.000,319.556 68.000 C 318.538 68.000,318.400 67.856,318.400 66.800 C 318.400 65.745,318.261 65.600,317.250 65.600 C 316.287 65.600,316.060 65.401,315.855 64.373 C 315.720 63.699,315.444 63.249,315.241 63.375 C 314.540 63.808,313.600 63.111,313.600 62.157 C 313.600 61.360,313.399 61.200,312.400 61.200 C 311.474 61.200,311.200 61.021,311.200 60.414 C 311.200 59.420,310.058 58.800,308.226 58.800 C 306.933 58.800,306.800 58.696,306.800 57.687 C 306.800 56.768,306.613 56.559,305.722 56.485 C 304.575 56.390,303.897 55.705,304.181 54.927 C 304.282 54.652,303.819 54.349,303.077 54.203 C 301.279 53.851,300.000 53.157,300.000 52.532 C 300.000 52.208,299.532 52.000,298.800 52.000 C 297.668 52.000,297.415 51.692,297.570 50.500 C 297.606 50.225,297.447 49.978,297.218 49.950 C 296.988 49.923,296.620 49.855,296.400 49.800 C 296.180 49.745,295.290 49.678,294.423 49.650 C 293.079 49.607,292.868 49.483,292.998 48.808 C 293.170 47.917,292.619 47.447,291.315 47.374 C 290.829 47.347,289.850 46.757,289.140 46.063 C 288.429 45.368,287.444 44.800,286.951 44.800 C 286.403 44.800,285.954 44.486,285.798 43.994 C 285.657 43.551,285.375 43.292,285.171 43.418 C 284.967 43.544,284.800 43.457,284.800 43.224 C 284.800 42.991,284.125 42.792,283.300 42.783 C 282.138 42.770,281.579 42.500,280.819 41.583 C 280.027 40.628,279.525 40.400,278.215 40.400 C 277.015 40.400,276.460 40.187,276.083 39.584 C 275.803 39.136,275.411 38.870,275.212 38.993 C 275.012 39.116,274.703 38.988,274.525 38.708 C 274.184 38.174,274.103 38.156,271.688 38.060 C 270.415 38.010,270.107 37.818,269.743 36.853 C 269.347 35.804,269.127 35.700,267.155 35.623 C 264.096 35.503,263.978 35.489,264.197 35.270 C 264.305 35.162,264.189 34.828,263.940 34.528 C 263.582 34.096,263.625 34.035,264.143 34.234 C 264.505 34.372,264.800 34.676,264.800 34.909 C 264.800 35.143,264.916 35.218,265.057 35.076 C 265.877 34.256,264.150 33.600,261.174 33.600 C 258.272 33.600,258.057 33.543,258.198 32.808 C 258.287 32.348,258.152 32.055,257.875 32.108 C 257.614 32.159,257.448 31.966,257.506 31.681 C 257.565 31.396,257.385 31.192,257.106 31.228 C 254.784 31.533,250.846 31.145,251.044 30.631 C 251.170 30.301,250.899 29.867,250.401 29.600 C 249.591 29.167,249.567 29.195,250.005 30.070 C 250.444 30.947,250.418 30.941,249.536 29.969 C 248.720 29.070,248.240 28.926,245.800 28.847 C 242.353 28.735,241.628 28.533,240.555 27.383 C 239.776 26.548,239.345 26.474,234.992 26.428 C 231.112 26.388,230.187 26.262,229.792 25.721 C 229.527 25.359,228.971 24.964,228.555 24.844 C 226.882 24.357,170.163 24.397,169.675 24.885 M289.200 46.600 C 289.608 47.091,289.580 47.200,289.049 47.200 C 288.692 47.200,288.400 46.930,288.400 46.600 C 288.400 46.270,288.468 46.000,288.551 46.000 C 288.634 46.000,288.926 46.270,289.200 46.600 M204.939 66.776 C 205.785 66.973,206.741 67.508,207.062 67.967 C 207.468 68.547,208.080 68.800,209.076 68.800 C 210.401 68.800,295.149 152.457,296.971 155.563 C 297.207 155.965,297.713 156.733,298.095 157.269 C 298.477 157.805,298.956 159.314,299.159 160.622 C 299.362 161.930,299.807 163.720,300.147 164.600 C 300.974 166.742,300.948 168.081,300.023 170.972 C 299.596 172.307,299.139 174.070,299.007 174.888 C 298.876 175.707,298.353 176.877,297.845 177.488 C 297.337 178.100,296.807 179.050,296.667 179.600 C 296.431 180.526,294.714 182.527,292.287 184.704 C 291.733 185.201,290.502 185.882,289.551 186.217 C 288.601 186.553,287.458 187.166,287.011 187.581 C 286.565 187.996,285.570 188.496,284.800 188.693 L 283.400 189.051 283.200 218.092 C 283.000 247.122,283.000 247.134,282.131 248.309 C 281.653 248.955,281.067 250.209,280.828 251.095 C 280.590 251.982,280.112 252.941,279.768 253.227 C 279.423 253.513,278.813 254.389,278.412 255.173 C 277.469 257.018,274.603 259.579,273.159 259.868 C 272.538 259.992,271.736 260.543,271.377 261.092 C 269.958 263.257,268.313 262.323,261.387 255.419 C 257.984 252.026,255.200 249.103,255.200 248.922 C 255.200 248.741,254.840 248.368,254.400 248.093 C 252.066 246.635,253.998 246.000,260.770 246.000 C 263.869 246.000,265.601 245.839,265.920 245.520 C 266.286 245.154,266.400 236.542,266.400 209.200 C 266.400 181.858,266.514 173.246,266.880 172.880 C 267.226 172.534,270.005 172.400,276.861 172.400 C 283.219 172.400,286.699 172.246,287.381 171.936 C 288.395 171.474,288.762 170.800,288.000 170.800 C 287.780 170.800,287.600 170.524,287.600 170.187 C 287.600 169.661,286.681 168.516,284.489 166.313 C 283.180 164.998,245.552 127.366,245.294 127.114 C 244.872 126.702,236.677 118.522,236.200 118.035 C 235.980 117.811,233.910 115.741,231.600 113.435 C 229.290 111.129,227.167 109.008,226.883 108.721 C 210.764 92.466,201.081 83.156,200.088 82.958 C 198.902 82.720,110.800 169.988,110.800 171.399 C 110.800 172.307,111.873 172.400,122.353 172.400 C 129.821 172.400,132.772 172.532,133.120 172.880 C 133.486 173.246,133.600 181.865,133.600 209.231 C 133.600 237.544,133.706 245.190,134.103 245.519 C 134.412 245.776,138.449 245.987,144.603 246.068 C 155.314 246.209,156.150 246.346,154.822 247.737 C 153.691 248.923,140.810 261.810,139.716 262.851 C 138.579 263.932,135.356 264.056,133.859 263.076 C 133.292 262.704,132.237 262.400,131.514 262.399 C 130.791 262.399,129.570 262.049,128.800 261.621 C 128.030 261.193,126.860 260.573,126.200 260.244 C 124.136 259.213,119.753 254.341,119.453 252.744 C 119.307 251.965,118.741 250.908,118.194 250.394 L 117.200 249.461 117.198 220.830 C 117.195 189.202,117.222 189.573,114.875 188.870 C 114.037 188.619,112.926 187.960,112.406 187.407 C 111.819 186.782,111.022 186.400,110.305 186.400 C 108.600 186.400,101.200 178.819,101.200 177.073 C 101.200 176.382,100.735 175.267,100.100 174.438 C 98.596 172.472,98.182 163.202,99.514 161.305 C 99.940 160.697,100.516 159.480,100.793 158.600 C 101.070 157.720,101.705 156.550,102.203 156.000 C 102.702 155.450,103.245 154.550,103.411 154.000 C 103.578 153.444,120.081 136.593,140.556 116.073 C 160.820 95.763,179.020 77.520,181.000 75.532 C 182.980 73.544,185.260 71.493,186.066 70.975 C 186.873 70.457,187.645 69.850,187.783 69.627 C 187.921 69.404,188.738 69.032,189.599 68.800 C 190.460 68.569,191.465 68.078,191.833 67.709 C 192.992 66.550,201.389 65.952,204.939 66.776 M174.451 175.461 C 175.330 176.518,175.468 195.921,174.609 197.583 L 173.979 198.800 164.690 198.798 C 154.985 198.795,152.697 198.503,151.986 197.173 C 151.315 195.921,151.644 176.309,152.349 175.461 C 152.834 174.877,154.125 174.800,163.400 174.800 C 172.675 174.800,173.966 174.877,174.451 175.461 M374.200 195.226 C 372.986 195.424,373.412 195.500,375.967 195.543 C 377.818 195.574,379.258 195.535,379.167 195.455 C 378.789 195.126,375.690 194.984,374.200 195.226 M368.811 197.391 C 362.366 202.678,362.268 211.166,368.593 216.363 C 369.689 217.263,370.744 218.000,370.939 218.000 C 371.133 218.000,370.268 217.157,369.017 216.127 C 362.867 211.064,362.820 203.048,368.910 197.867 C 370.059 196.889,371.360 195.999,371.800 195.891 C 372.598 195.693,372.598 195.693,371.797 195.646 C 371.356 195.621,370.012 196.406,368.811 197.391 M380.511 196.003 C 381.122 196.186,382.230 196.870,382.972 197.522 C 383.715 198.174,384.475 198.773,384.661 198.854 C 384.848 198.934,385.351 199.720,385.780 200.600 C 386.209 201.480,386.839 202.534,387.180 202.943 C 387.633 203.485,387.798 204.589,387.794 207.035 C 387.790 209.312,387.898 210.099,388.130 209.492 C 388.817 207.700,388.179 203.779,386.848 201.616 C 386.162 200.501,385.600 199.407,385.600 199.185 C 385.600 198.964,385.150 198.578,384.600 198.327 C 384.050 198.077,383.600 197.718,383.600 197.530 C 383.600 196.997,381.091 195.599,380.200 195.636 C 379.610 195.660,379.691 195.756,380.511 196.003 M386.905 211.290 C 386.681 211.571,386.111 212.565,385.640 213.500 C 385.169 214.435,384.641 215.200,384.467 215.200 C 384.293 215.200,383.802 215.521,383.375 215.914 C 382.949 216.307,382.155 216.937,381.611 217.314 C 381.067 217.691,380.825 218.000,381.073 218.000 C 381.321 218.000,382.278 217.370,383.200 216.600 C 384.122 215.830,385.039 215.200,385.238 215.200 C 385.437 215.200,385.600 215.016,385.600 214.792 C 385.600 214.568,386.063 213.651,386.629 212.754 C 387.598 211.219,387.794 210.182,386.905 211.290 M372.800 218.431 C 374.112 218.811,378.396 218.824,379.345 218.451 C 379.755 218.290,378.225 218.154,375.945 218.150 C 373.596 218.145,372.233 218.267,372.800 218.431 M236.924 247.155 C 239.215 248.574,252.480 262.288,252.328 263.079 C 252.204 263.725,251.630 263.810,246.795 263.897 C 240.095 264.019,239.825 264.082,239.178 265.695 C 238.890 266.413,238.348 267.403,237.974 267.894 C 237.600 268.386,237.164 269.826,237.006 271.093 C 236.847 272.361,236.286 274.134,235.759 275.034 C 235.226 275.944,234.800 277.312,234.800 278.116 C 234.800 279.647,234.205 281.367,233.298 282.459 C 232.997 282.821,232.593 284.235,232.400 285.602 C 232.178 287.169,231.670 288.633,231.024 289.565 C 230.249 290.683,230.000 291.544,230.000 293.101 C 230.000 294.709,229.794 295.381,229.055 296.178 C 228.345 296.945,228.042 297.865,227.834 299.895 C 227.648 301.716,227.308 302.859,226.790 303.411 C 226.296 303.937,225.874 305.265,225.610 307.132 C 225.374 308.793,224.865 310.498,224.420 311.118 C 223.992 311.713,223.447 313.312,223.208 314.672 C 222.970 316.032,222.328 317.943,221.783 318.919 C 220.527 321.166,220.912 321.571,224.696 321.993 C 226.183 322.159,228.120 322.601,229.000 322.975 C 230.150 323.464,232.514 323.751,237.400 323.994 C 242.984 324.272,244.594 324.493,246.400 325.226 C 247.792 325.791,249.925 326.214,252.207 326.378 C 254.932 326.574,256.105 326.843,257.007 327.479 C 257.720 327.982,259.146 328.421,260.554 328.570 C 262.222 328.747,263.251 329.108,264.085 329.810 C 264.762 330.380,265.768 330.800,266.456 330.800 C 267.694 330.800,271.599 333.726,271.600 334.653 C 271.600 335.688,268.422 338.000,266.999 338.000 C 266.124 338.000,265.294 338.306,264.784 338.816 C 263.671 339.929,262.288 340.400,260.132 340.400 C 258.797 340.400,258.012 340.655,257.171 341.363 C 256.225 342.159,255.419 342.370,252.513 342.579 C 250.206 342.745,248.118 343.178,246.431 343.841 C 244.263 344.692,242.985 344.883,238.231 345.062 C 234.178 345.215,231.759 345.517,229.600 346.138 C 224.884 347.493,174.147 347.483,169.800 346.126 C 167.660 345.457,165.627 345.205,161.176 345.055 C 156.116 344.884,155.066 344.730,153.176 343.881 C 151.657 343.198,149.964 342.835,147.567 342.676 C 144.955 342.503,143.672 342.203,142.207 341.424 C 141.021 340.793,139.635 340.400,138.600 340.400 C 137.584 340.400,136.190 340.012,135.075 339.420 C 134.061 338.881,132.536 338.252,131.686 338.023 C 130.836 337.794,129.394 336.917,128.481 336.075 L 126.821 334.542 128.310 333.118 C 130.020 331.484,130.866 331.014,132.732 330.660 C 133.465 330.521,134.502 330.063,135.037 329.642 C 135.615 329.188,137.021 328.762,138.505 328.592 C 139.962 328.425,141.680 327.910,142.635 327.353 C 143.965 326.578,144.833 326.400,147.287 326.400 C 149.684 326.400,150.768 326.187,152.568 325.363 C 154.583 324.441,155.570 324.291,161.516 324.003 C 166.672 323.753,168.740 323.487,170.563 322.839 C 171.862 322.378,173.577 322.000,174.374 322.000 C 177.466 322.000,178.242 317.983,175.854 314.338 C 175.484 313.774,174.935 312.017,174.633 310.434 C 174.331 308.851,173.785 307.225,173.418 306.820 C 173.050 306.413,172.580 304.856,172.369 303.342 C 172.139 301.696,171.651 300.143,171.149 299.456 C 170.647 298.770,170.187 297.308,170.000 295.800 C 169.813 294.296,169.353 292.828,168.853 292.144 C 168.341 291.443,167.919 290.070,167.763 288.600 C 167.598 287.047,167.163 285.686,166.530 284.743 C 165.891 283.792,165.472 282.474,165.324 280.943 C 165.172 279.371,164.824 278.300,164.268 277.689 C 163.696 277.059,163.356 275.970,163.169 274.167 C 162.981 272.346,162.648 271.290,162.069 270.674 C 161.613 270.188,161.130 268.983,160.995 267.996 C 160.512 264.461,160.624 264.606,157.967 264.058 L 155.508 263.550 156.354 262.649 C 156.819 262.154,157.200 261.618,157.200 261.458 C 157.200 261.051,171.191 247.200,171.602 247.200 C 171.787 247.200,172.142 247.819,172.392 248.575 C 172.641 249.331,173.204 250.405,173.641 250.961 C 174.079 251.517,174.625 253.014,174.856 254.286 C 175.087 255.559,175.709 257.437,176.238 258.459 C 176.767 259.481,177.200 260.996,177.200 261.824 C 177.200 262.726,177.619 264.045,178.245 265.112 C 178.881 266.197,179.412 267.888,179.604 269.433 C 179.797 270.989,180.234 272.371,180.733 273.006 C 181.209 273.611,181.663 274.989,181.825 276.321 C 181.978 277.574,182.530 279.336,183.051 280.235 C 183.723 281.393,184.000 282.486,184.000 283.982 C 184.000 285.759,184.191 286.312,185.200 287.461 C 186.216 288.618,186.400 289.159,186.400 290.983 C 186.400 292.714,186.602 293.379,187.428 294.360 C 188.177 295.251,188.515 296.207,188.673 297.891 C 188.812 299.363,189.231 300.708,189.830 301.600 C 190.404 302.454,190.879 303.927,191.049 305.377 C 191.220 306.833,191.691 308.288,192.264 309.132 C 192.864 310.017,193.203 311.101,193.207 312.156 C 193.212 313.219,193.636 314.564,194.407 315.964 C 195.063 317.154,195.600 318.693,195.600 319.384 C 195.600 321.221,196.222 321.600,199.239 321.600 C 202.622 321.600,204.400 320.037,204.400 317.064 C 204.400 315.854,204.750 314.806,205.600 313.464 C 206.405 312.195,206.800 311.058,206.800 310.012 C 206.800 308.102,207.308 306.692,208.384 305.616 C 209.023 304.977,209.200 304.282,209.200 302.416 C 209.200 300.431,209.359 299.879,210.150 299.116 C 210.883 298.409,211.158 297.606,211.352 295.600 C 211.512 293.956,211.897 292.602,212.401 291.917 C 212.847 291.312,213.360 289.695,213.565 288.247 C 213.776 286.753,214.368 284.914,214.966 283.895 C 215.544 282.908,216.000 281.514,216.000 280.733 C 216.000 279.964,216.462 278.450,217.027 277.368 C 217.591 276.286,218.206 274.258,218.393 272.862 C 218.603 271.286,219.028 269.997,219.514 269.462 C 220.009 268.916,220.393 267.727,220.561 266.221 C 220.740 264.607,221.143 263.426,221.813 262.548 C 222.482 261.670,222.800 260.738,222.800 259.653 C 222.800 257.751,223.307 256.281,224.349 255.162 C 224.881 254.592,225.159 253.584,225.271 251.820 C 225.423 249.432,225.529 249.202,227.216 247.607 L 229.000 245.920 232.324 246.142 C 234.634 246.297,236.037 246.606,236.924 247.155 M377.200 254.200 C 376.643 254.872,376.000 254.994,376.000 254.429 C 376.000 254.225,376.315 253.976,376.700 253.876 C 377.085 253.775,377.467 253.672,377.549 253.646 C 377.631 253.621,377.474 253.870,377.200 254.200 M114.747 281.187 C 113.048 281.701,109.268 284.707,108.558 286.108 C 108.198 286.819,107.623 287.720,107.279 288.111 C 106.370 289.149,106.151 295.053,106.972 296.400 C 107.307 296.950,107.954 298.165,108.410 299.100 C 108.865 300.035,109.477 300.800,109.770 300.800 C 110.063 300.800,110.554 301.178,110.861 301.641 C 111.412 302.471,116.523 304.386,118.200 304.392 C 121.571 304.403,127.432 300.888,128.190 298.400 C 128.358 297.850,128.850 296.610,129.283 295.643 C 132.048 289.481,125.444 280.725,118.113 280.834 C 116.841 280.853,115.326 281.012,114.747 281.187 " stroke="none" fill="#04dbcc" fill-rule="evenodd"></path><path id="path2" d="M380.400 183.218 C 380.400 184.441,378.414 185.600,376.318 185.600 C 372.661 185.600,366.000 187.104,366.000 187.929 C 366.000 188.121,365.319 188.586,364.486 188.961 C 363.131 189.572,361.224 191.392,357.900 195.243 C 357.295 195.944,356.800 196.854,356.800 197.266 C 356.800 197.678,356.305 198.956,355.700 200.107 C 354.026 203.292,354.045 210.830,355.734 213.774 C 356.562 215.217,356.885 216.347,356.933 217.974 L 357.000 220.200 352.903 224.300 C 350.649 226.555,348.624 228.400,348.403 228.400 C 348.181 228.400,348.000 228.593,348.000 228.830 C 348.000 229.066,346.065 231.141,343.700 233.439 C 338.584 238.412,339.717 237.282,334.621 242.500 C 332.311 244.865,330.236 246.800,330.011 246.800 C 329.785 246.800,329.600 246.971,329.600 247.180 C 329.600 247.697,321.326 256.000,320.811 256.000 C 320.585 256.000,320.400 256.171,320.400 256.380 C 320.400 256.897,312.126 265.200,311.611 265.200 C 311.385 265.200,311.200 265.388,311.200 265.617 C 311.200 265.846,309.358 267.843,307.106 270.054 C 302.576 274.502,301.781 274.772,299.084 272.777 C 296.429 270.815,285.784 270.898,281.923 272.911 C 278.701 274.591,278.261 274.391,272.400 268.581 C 269.650 265.855,266.950 263.279,266.400 262.858 C 265.085 261.852,250.960 247.634,250.245 246.597 C 249.940 246.156,243.962 240.063,236.960 233.058 L 224.229 220.321 224.308 218.506 C 224.352 217.508,224.565 216.131,224.783 215.446 C 225.000 214.761,225.543 213.074,225.989 211.698 C 226.937 208.775,227.042 204.953,226.227 203.004 C 225.913 202.250,225.369 200.520,225.021 199.158 C 224.672 197.796,224.029 196.372,223.593 195.994 C 223.157 195.616,222.800 195.096,222.800 194.839 C 222.800 194.173,217.340 188.800,216.663 188.800 C 216.352 188.800,215.858 188.511,215.565 188.158 C 213.092 185.177,198.665 184.946,195.235 187.832 C 194.636 188.336,193.653 188.872,193.050 189.023 C 192.447 189.174,191.678 189.719,191.341 190.234 C 191.004 190.748,190.385 191.278,189.964 191.411 C 189.544 191.545,189.200 191.908,189.200 192.218 C 189.200 192.528,188.761 193.069,188.225 193.420 C 187.689 193.771,187.134 194.590,186.991 195.239 C 186.849 195.888,186.327 196.910,185.831 197.510 C 183.443 200.401,183.348 213.663,185.698 216.269 C 186.666 217.343,185.603 219.087,181.622 222.950 C 180.290 224.243,179.200 225.458,179.200 225.650 C 179.200 225.843,178.960 226.000,178.668 226.000 C 178.375 226.000,177.896 226.447,177.604 226.993 C 177.311 227.540,176.750 228.089,176.356 228.214 C 175.963 228.339,175.538 228.764,175.413 229.160 C 175.287 229.555,174.738 230.082,174.192 230.331 C 173.647 230.579,173.200 230.964,173.200 231.185 C 173.200 231.506,169.737 235.092,166.725 237.888 C 166.436 238.156,164.220 240.458,161.800 243.004 C 153.694 251.531,142.082 263.200,141.703 263.200 C 141.497 263.200,141.123 263.650,140.873 264.200 C 140.622 264.750,140.205 265.200,139.945 265.200 C 139.686 265.200,138.436 266.280,137.169 267.600 C 135.901 268.920,134.669 270.000,134.432 270.000 C 134.194 270.000,133.994 270.225,133.987 270.500 C 133.920 273.035,128.936 274.566,126.638 272.758 C 124.667 271.208,113.596 270.887,110.600 272.293 C 106.476 274.227,105.917 274.607,103.200 277.319 C 100.565 279.950,99.747 281.001,99.269 282.374 C 99.005 283.130,98.524 284.042,98.198 284.402 C 96.392 286.397,96.353 298.437,98.145 300.800 C 98.965 301.882,99.600 303.178,99.600 303.772 C 99.600 304.092,99.947 304.598,100.371 304.895 C 100.795 305.192,101.362 305.918,101.632 306.510 C 101.901 307.101,102.445 307.687,102.840 307.813 C 103.236 307.938,103.667 308.381,103.799 308.796 C 103.930 309.211,104.644 309.750,105.384 309.995 C 106.124 310.239,106.826 310.690,106.943 310.997 C 107.061 311.304,107.932 311.765,108.879 312.022 C 109.825 312.279,111.398 312.874,112.373 313.345 C 114.962 314.593,121.950 314.595,124.000 313.349 C 124.770 312.880,126.057 312.381,126.860 312.238 C 127.663 312.095,128.551 311.700,128.833 311.360 C 129.115 311.020,129.989 310.400,130.773 309.982 C 132.928 308.835,137.042 303.924,137.431 302.034 C 137.548 301.465,138.084 300.082,138.622 298.960 C 140.112 295.851,140.066 289.069,138.535 286.197 C 137.726 284.679,137.462 283.595,137.435 281.678 L 137.400 279.157 139.708 276.937 C 140.978 275.716,142.199 274.375,142.422 273.958 C 142.646 273.541,143.096 273.200,143.423 273.200 C 143.750 273.200,144.221 272.753,144.469 272.208 C 144.718 271.662,145.254 271.110,145.661 270.981 C 146.067 270.852,146.400 270.570,146.400 270.356 C 146.400 270.141,147.328 269.118,148.462 268.083 C 149.596 267.047,150.721 265.965,150.962 265.678 C 151.203 265.391,151.895 264.620,152.500 263.964 C 153.105 263.309,153.600 262.595,153.600 262.378 C 153.600 262.161,154.050 261.778,154.600 261.527 C 155.150 261.277,155.600 260.883,155.600 260.652 C 155.600 260.161,159.458 256.400,159.963 256.400 C 160.152 256.400,160.404 256.027,160.524 255.570 C 160.643 255.114,161.076 254.653,161.486 254.546 C 161.896 254.438,162.404 253.957,162.616 253.475 C 162.827 252.994,163.394 252.427,163.875 252.216 C 164.357 252.004,164.838 251.496,164.946 251.086 C 165.053 250.676,165.514 250.243,165.970 250.124 C 166.427 250.004,166.800 249.741,166.800 249.538 C 166.800 249.335,167.745 248.282,168.900 247.199 C 170.055 246.115,171.457 244.772,172.015 244.214 C 172.573 243.656,173.253 243.200,173.525 243.200 C 173.797 243.200,174.185 242.765,174.387 242.234 C 174.589 241.703,175.079 241.153,175.477 241.012 C 175.875 240.871,177.010 239.780,178.000 238.589 C 178.990 237.397,180.020 236.417,180.290 236.411 C 180.559 236.405,181.059 235.860,181.400 235.200 C 181.741 234.540,182.290 234.000,182.620 234.000 C 182.950 234.000,183.391 233.550,183.600 233.000 C 183.809 232.450,184.150 232.000,184.358 232.000 C 184.566 232.000,185.515 231.172,186.468 230.159 C 188.244 228.272,189.144 227.363,190.071 226.519 C 190.362 226.255,190.842 225.749,191.138 225.396 C 191.808 224.595,193.816 224.935,195.039 226.056 C 195.506 226.484,196.925 226.995,198.239 227.208 C 199.538 227.419,201.229 227.774,201.997 227.996 C 204.774 228.799,212.644 227.615,215.302 225.994 C 216.016 225.559,216.803 225.202,217.050 225.201 C 217.649 225.200,253.600 260.568,253.600 261.159 C 253.600 261.331,254.050 261.677,254.600 261.927 C 255.150 262.178,255.600 262.601,255.600 262.867 C 255.600 263.133,259.153 266.913,263.495 271.265 C 272.762 280.554,273.017 281.051,270.493 284.884 C 268.635 287.704,268.871 299.254,270.822 301.020 C 271.242 301.400,271.699 302.320,271.839 303.065 C 271.978 303.810,272.419 304.648,272.817 304.927 C 273.216 305.206,273.755 305.902,274.015 306.473 C 274.275 307.044,274.918 307.708,275.444 307.947 C 275.970 308.187,276.400 308.643,276.400 308.960 C 276.400 309.278,277.014 309.741,277.765 309.988 C 278.515 310.236,279.226 310.690,279.343 310.997 C 279.461 311.304,280.332 311.765,281.279 312.022 C 282.225 312.279,283.798 312.874,284.773 313.345 C 287.106 314.470,294.391 314.596,296.000 313.539 C 296.550 313.178,298.015 312.594,299.257 312.243 C 300.498 311.891,301.611 311.348,301.731 311.037 C 301.850 310.725,302.575 310.244,303.341 309.967 C 304.107 309.690,304.918 309.060,305.143 308.566 C 305.367 308.073,305.922 307.552,306.376 307.408 C 306.829 307.264,307.200 306.913,307.200 306.628 C 307.200 306.343,307.730 305.443,308.378 304.628 C 309.026 303.812,309.769 302.483,310.028 301.673 C 310.288 300.863,310.883 299.390,311.350 298.400 C 312.585 295.784,312.574 289.379,311.329 286.800 C 308.912 281.789,309.081 279.827,312.183 276.886 C 313.380 275.753,314.554 274.459,314.793 274.012 C 315.032 273.566,315.496 273.200,315.823 273.200 C 316.150 273.200,316.621 272.753,316.869 272.208 C 317.118 271.662,317.645 271.113,318.040 270.987 C 318.436 270.862,318.870 270.408,319.006 269.980 C 319.143 269.551,319.380 269.200,319.534 269.200 C 319.966 269.200,323.519 265.699,324.000 264.799 C 324.236 264.360,324.696 264.000,325.023 264.000 C 325.350 264.000,325.813 263.570,326.053 263.044 C 326.292 262.518,326.918 261.892,327.444 261.653 C 327.970 261.413,328.400 260.943,328.400 260.609 C 328.400 260.274,328.549 260.000,328.730 260.000 C 329.173 260.000,333.600 255.590,333.600 255.148 C 333.600 254.957,333.874 254.800,334.209 254.800 C 334.543 254.800,335.013 254.370,335.253 253.844 C 335.492 253.318,336.118 252.692,336.644 252.453 C 337.170 252.213,337.600 251.750,337.600 251.423 C 337.600 251.096,337.944 250.644,338.364 250.419 C 339.329 249.903,342.400 246.789,342.400 246.326 C 342.400 246.136,342.850 245.809,343.400 245.600 C 343.950 245.391,344.400 244.950,344.400 244.620 C 344.400 244.290,344.940 243.741,345.600 243.400 C 346.260 243.059,346.800 242.520,346.800 242.204 C 346.800 241.887,347.135 241.449,347.544 241.230 C 348.506 240.715,351.115 238.106,351.630 237.144 C 351.849 236.735,352.287 236.400,352.604 236.400 C 352.920 236.400,353.459 235.860,353.800 235.200 C 354.141 234.540,354.690 234.000,355.020 234.000 C 355.350 234.000,355.791 233.550,356.000 233.000 C 356.209 232.450,356.528 232.000,356.708 232.000 C 357.209 232.000,360.215 229.093,360.753 228.089 C 361.014 227.600,361.460 227.200,361.744 227.200 C 362.028 227.200,362.683 226.750,363.200 226.200 C 364.311 225.017,364.684 224.971,365.697 225.888 C 366.669 226.768,373.506 228.344,376.484 228.376 C 378.673 228.399,380.400 229.325,380.400 230.475 C 380.400 231.337,384.911 230.798,385.808 229.829 C 386.334 229.261,387.268 228.804,388.054 228.729 C 389.186 228.620,389.420 228.425,389.527 227.500 C 389.632 226.585,389.846 226.400,390.801 226.400 C 392.660 226.400,394.000 225.718,394.000 224.772 C 394.000 224.251,394.320 223.842,394.831 223.708 C 395.718 223.476,396.400 222.135,396.400 220.624 C 396.400 219.917,396.682 219.644,397.600 219.460 C 398.786 219.223,398.800 219.190,398.800 216.610 C 398.800 214.557,398.928 214.000,399.400 214.000 C 399.910 214.000,400.000 212.956,400.000 207.000 C 400.000 201.142,399.905 200.000,399.418 200.000 C 398.978 200.000,398.808 199.341,398.718 197.300 C 398.604 194.686,398.565 194.596,397.500 194.473 C 396.535 194.362,396.400 194.176,396.400 192.955 C 396.400 191.966,396.082 191.251,395.300 190.482 C 394.695 189.887,394.016 189.040,393.790 188.600 C 393.485 188.003,392.900 187.769,391.490 187.678 C 389.692 187.562,389.600 187.499,389.600 186.378 C 389.600 185.272,389.503 185.200,388.012 185.200 C 386.711 185.200,386.263 184.983,385.537 184.000 C 384.624 182.766,380.400 182.123,380.400 183.218 M379.420 193.794 C 379.651 194.091,380.540 194.465,381.397 194.626 C 382.254 194.787,383.333 195.297,383.796 195.760 C 384.260 196.223,385.125 196.921,385.719 197.310 C 386.314 197.700,386.800 198.277,386.800 198.593 C 386.800 198.909,387.294 199.625,387.897 200.185 C 389.649 201.809,389.719 213.600,387.977 213.600 C 387.763 213.600,387.288 214.228,386.921 214.996 C 386.555 215.764,385.923 216.497,385.517 216.626 C 385.111 216.755,384.492 217.298,384.141 217.833 C 383.721 218.475,382.977 218.890,381.955 219.054 C 381.103 219.190,380.017 219.639,379.542 220.051 C 378.331 221.101,374.100 221.105,372.754 220.058 C 372.229 219.650,371.170 219.197,370.400 219.051 C 368.954 218.778,364.800 215.325,364.800 214.397 C 364.800 214.132,364.350 213.381,363.800 212.727 C 362.237 210.870,362.438 200.800,364.037 200.800 C 364.207 200.800,364.470 200.410,364.621 199.933 C 365.140 198.300,368.732 195.130,370.520 194.728 C 371.433 194.523,372.296 194.168,372.438 193.938 C 373.145 192.795,378.556 192.684,379.420 193.794 M208.307 195.279 C 216.973 196.876,220.121 208.908,213.585 215.451 C 208.662 220.380,199.101 219.943,195.600 214.630 C 195.270 214.129,194.640 213.206,194.200 212.579 C 192.488 210.138,192.952 201.877,194.880 200.477 C 195.276 200.190,195.600 199.733,195.600 199.462 C 195.600 196.658,202.845 194.273,208.307 195.279 M121.965 279.966 C 123.444 280.176,124.352 280.547,124.829 281.137 C 125.214 281.611,125.734 282.000,125.985 282.000 C 126.594 282.000,129.138 284.792,129.447 285.800 C 129.582 286.240,130.076 287.020,130.546 287.532 C 131.972 289.088,131.811 296.019,130.300 298.156 C 129.695 299.012,129.200 299.881,129.200 300.087 C 129.200 300.599,125.512 304.000,124.957 304.000 C 124.712 304.000,123.849 304.450,123.038 305.000 C 121.744 305.878,121.138 306.000,118.060 306.000 C 114.950 306.000,114.403 305.887,113.200 305.000 C 112.455 304.450,111.638 304.000,111.386 304.000 C 110.763 304.000,107.200 300.598,107.200 300.004 C 107.200 299.742,106.795 299.200,106.300 298.800 C 105.451 298.113,105.400 297.779,105.400 292.929 L 105.400 287.786 106.950 285.450 C 107.802 284.165,109.107 282.756,109.850 282.318 C 110.592 281.879,111.200 281.381,111.200 281.209 C 111.200 280.013,117.318 279.306,121.965 279.966 M294.324 280.368 C 295.273 280.552,296.395 281.039,296.817 281.451 C 297.240 281.863,298.354 282.827,299.293 283.594 C 303.419 286.963,304.614 293.007,302.124 297.916 C 297.320 307.387,285.787 308.061,279.698 299.226 L 278.200 297.051 278.200 292.626 L 278.200 288.200 279.853 285.800 C 283.224 280.906,287.944 279.135,294.324 280.368 M289.314 367.480 C 288.827 367.986,288.574 368.400,288.752 368.400 C 289.142 368.400,290.598 366.845,290.364 366.677 C 290.274 366.613,289.801 366.974,289.314 367.480 " stroke="none" fill="#0c2645" fill-rule="evenodd"></path><path id="path3" d="M337.362 85.542 C 338.209 86.495,338.400 86.582,338.400 86.014 C 338.400 85.802,337.995 85.416,337.500 85.156 C 336.605 84.686,336.604 84.688,337.362 85.542 M201.361 195.363 C 199.284 195.867,195.600 198.488,195.600 199.462 C 195.600 199.733,195.276 200.190,194.880 200.477 C 192.952 201.877,192.488 210.138,194.200 212.579 C 194.640 213.206,195.270 214.129,195.600 214.630 C 200.364 221.859,213.787 219.497,216.452 210.959 C 219.544 201.052,211.628 192.871,201.361 195.363 M287.000 280.373 C 284.731 280.761,281.782 283.000,279.853 285.800 L 278.200 288.200 278.200 292.626 L 278.200 297.051 279.698 299.226 C 285.787 308.061,297.320 307.387,302.124 297.916 C 304.614 293.007,303.419 286.963,299.293 283.594 C 298.354 282.827,297.240 281.863,296.817 281.451 C 295.519 280.185,291.004 279.689,287.000 280.373 " stroke="none" fill="#f68224" fill-rule="evenodd"></path><path id="path4" d="M263.940 34.528 C 264.189 34.828,264.305 35.162,264.197 35.270 C 264.088 35.378,264.253 35.467,264.562 35.467 C 265.276 35.467,264.941 34.540,264.112 34.222 C 263.621 34.033,263.584 34.099,263.940 34.528 M274.653 38.800 C 274.895 39.130,275.174 39.661,275.273 39.980 C 275.389 40.352,275.548 40.407,275.717 40.134 C 275.862 39.899,275.583 39.368,275.097 38.953 C 274.611 38.539,274.412 38.470,274.653 38.800 M288.400 46.600 C 288.400 46.930,288.692 47.200,289.049 47.200 C 289.580 47.200,289.608 47.091,289.200 46.600 C 288.926 46.270,288.634 46.000,288.551 46.000 C 288.468 46.000,288.400 46.270,288.400 46.600 M30.800 135.557 C 30.800 135.827,30.592 135.919,30.338 135.762 C 30.065 135.593,29.984 135.651,30.141 135.904 C 30.286 136.139,30.179 136.423,29.902 136.534 C 29.589 136.660,29.570 136.749,29.851 136.768 C 30.434 136.809,31.393 135.660,31.057 135.324 C 30.916 135.182,30.800 135.287,30.800 135.557 M375.394 183.603 C 372.586 183.802,370.907 184.133,369.776 184.710 C 368.889 185.163,367.492 185.659,366.672 185.813 C 365.851 185.967,364.960 186.406,364.690 186.789 C 364.421 187.172,363.819 187.606,363.353 187.753 C 361.369 188.379,356.480 193.933,355.622 196.535 C 355.356 197.341,354.979 198.000,354.784 198.000 C 352.950 198.000,352.937 213.523,354.770 215.852 C 356.852 218.500,358.160 216.965,328.964 246.162 C 314.315 260.813,302.282 272.800,302.226 272.800 C 302.169 272.800,301.712 272.444,301.210 272.008 C 300.708 271.573,299.645 271.110,298.849 270.980 C 298.052 270.850,296.202 270.396,294.738 269.972 C 293.274 269.547,291.412 269.200,290.600 269.200 C 289.788 269.200,287.926 269.547,286.462 269.972 C 284.998 270.396,283.150 270.850,282.355 270.980 C 281.560 271.109,280.591 271.568,280.201 271.998 C 279.501 272.773,279.480 272.770,278.247 271.778 C 276.908 270.701,272.741 266.689,271.355 265.143 C 270.890 264.624,269.904 263.750,269.164 263.200 C 266.789 261.434,252.839 247.465,251.512 245.526 C 250.807 244.495,249.819 243.464,249.315 243.234 C 248.812 243.005,248.400 242.543,248.400 242.209 C 248.400 241.874,248.220 241.600,248.000 241.600 C 247.780 241.600,247.285 241.259,246.900 240.843 C 244.131 237.848,240.496 234.266,239.907 233.950 C 239.518 233.742,239.200 233.337,239.200 233.050 C 239.200 232.763,238.766 232.330,238.235 232.089 C 237.704 231.847,237.155 231.287,237.014 230.845 C 236.874 230.403,236.453 229.928,236.080 229.789 C 235.706 229.650,234.590 228.582,233.600 227.416 C 232.610 226.249,231.395 225.063,230.900 224.780 C 230.405 224.497,230.000 224.037,230.000 223.759 C 230.000 223.481,229.629 223.136,229.176 222.992 C 228.722 222.848,228.155 222.300,227.915 221.773 C 227.675 221.246,227.155 220.713,226.760 220.587 C 225.212 220.096,225.325 217.313,227.022 214.120 C 228.398 211.532,228.491 202.706,227.169 200.185 C 226.712 199.313,226.075 197.745,225.753 196.700 C 225.432 195.655,225.001 194.800,224.795 194.800 C 224.589 194.800,224.140 194.258,223.798 193.597 C 223.025 192.102,218.934 188.096,217.823 187.745 C 217.370 187.602,216.775 187.166,216.501 186.776 C 216.226 186.386,215.063 185.865,213.917 185.620 C 212.771 185.374,211.491 184.864,211.074 184.486 C 209.836 183.365,200.713 183.488,198.800 184.651 C 198.030 185.120,196.726 185.623,195.901 185.769 C 195.077 185.916,193.926 186.478,193.343 187.018 C 192.760 187.558,192.102 188.000,191.880 188.000 C 190.091 188.000,183.974 196.473,183.236 199.973 C 182.984 201.168,182.557 202.410,182.289 202.734 C 181.583 203.584,181.631 210.474,182.349 211.338 C 184.115 213.466,184.014 219.501,182.199 220.328 C 181.649 220.578,181.200 221.061,181.200 221.400 C 181.200 221.739,180.770 222.213,180.244 222.453 C 179.718 222.692,179.092 223.318,178.853 223.844 C 178.613 224.370,178.139 224.800,177.800 224.800 C 177.461 224.800,176.979 225.247,176.731 225.792 C 176.482 226.338,175.935 226.894,175.515 227.027 C 175.095 227.160,174.555 227.700,174.315 228.227 C 174.075 228.754,173.546 229.290,173.139 229.419 C 172.733 229.548,172.400 229.800,172.400 229.979 C 172.400 230.158,168.803 233.971,164.407 238.452 C 160.011 242.933,155.826 247.275,155.107 248.099 C 154.388 248.923,153.566 249.823,153.281 250.099 C 152.995 250.375,152.545 250.838,152.281 251.128 C 152.016 251.419,151.465 251.959,151.055 252.328 C 150.103 253.187,149.964 253.325,146.504 256.850 C 144.911 258.473,143.381 260.016,143.104 260.281 C 142.827 260.545,142.375 260.995,142.099 261.281 C 141.824 261.566,141.014 262.296,140.299 262.901 C 139.167 263.861,132.944 269.694,130.572 272.018 L 129.745 272.829 128.698 272.006 C 128.122 271.553,126.643 270.996,125.411 270.768 C 124.178 270.540,122.434 270.094,121.535 269.777 C 119.301 268.989,116.754 269.053,113.628 269.976 C 112.183 270.403,110.235 270.950,109.300 271.192 C 108.365 271.434,107.600 271.796,107.600 271.997 C 107.600 272.198,106.835 272.705,105.900 273.124 C 103.511 274.195,98.898 278.952,98.379 280.879 C 98.153 281.716,97.792 282.400,97.576 282.400 C 96.543 282.400,94.724 291.903,95.278 294.408 C 95.448 295.174,95.775 297.058,96.005 298.596 C 96.273 300.385,96.780 301.905,97.412 302.818 C 97.955 303.602,98.400 304.445,98.400 304.692 C 98.400 305.118,102.923 309.791,105.535 312.064 C 106.207 312.649,107.345 313.256,108.063 313.414 C 108.781 313.572,109.886 314.083,110.518 314.550 C 112.247 315.828,123.956 315.844,125.800 314.572 C 126.460 314.116,127.841 313.432,128.868 313.051 C 131.908 311.924,137.715 305.915,138.750 302.826 C 139.003 302.070,139.523 301.106,139.905 300.684 C 141.096 299.368,140.934 285.849,139.707 284.200 C 138.263 282.258,138.292 279.560,139.765 278.889 C 140.296 278.647,140.840 278.105,140.973 277.685 C 141.106 277.265,141.646 276.725,142.173 276.485 C 142.700 276.245,143.248 275.678,143.392 275.224 C 143.536 274.771,143.867 274.399,144.127 274.397 C 144.387 274.395,145.320 273.558,146.200 272.537 C 147.692 270.806,148.341 270.130,149.671 268.919 C 149.962 268.655,150.420 268.205,150.689 267.919 C 151.907 266.626,152.268 266.260,153.300 265.273 C 153.905 264.695,154.400 264.066,154.400 263.876 C 154.400 263.384,171.314 246.414,171.811 246.406 C 172.037 246.403,172.695 245.905,173.273 245.300 C 173.852 244.695,174.540 243.993,174.802 243.740 C 175.065 243.487,175.609 242.947,176.011 242.540 C 176.414 242.133,176.981 241.584,177.271 241.319 C 177.562 241.055,178.020 240.605,178.289 240.319 C 179.042 239.520,180.543 238.002,181.740 236.830 C 181.993 236.582,183.047 235.529,184.081 234.490 C 185.116 233.450,186.196 232.384,186.481 232.119 C 186.767 231.855,187.220 231.405,187.489 231.119 C 188.194 230.371,188.776 229.781,189.641 228.940 C 190.059 228.533,190.786 227.804,191.256 227.320 C 192.100 226.449,192.125 226.448,193.555 227.171 C 194.350 227.573,195.630 228.034,196.400 228.196 C 197.170 228.357,198.096 228.750,198.458 229.069 C 200.122 230.534,208.986 230.621,211.400 229.196 C 212.452 228.575,216.041 227.600,217.275 227.600 C 218.052 227.600,253.198 262.198,254.575 264.318 C 255.105 265.133,258.882 269.129,262.969 273.197 C 270.559 280.752,271.140 281.588,269.672 282.845 C 269.051 283.377,267.388 291.140,267.497 293.000 C 267.662 295.828,269.052 301.645,269.843 302.822 C 270.370 303.603,270.800 304.416,270.800 304.627 C 270.800 305.204,276.150 310.800,276.702 310.800 C 276.966 310.800,277.475 311.248,277.834 311.796 C 278.224 312.391,279.154 312.972,280.140 313.238 C 281.049 313.482,282.334 314.069,282.996 314.541 C 284.881 315.886,296.528 315.848,298.363 314.491 C 299.039 313.991,300.124 313.475,300.774 313.345 C 303.464 312.807,309.933 306.313,311.053 303.026 C 311.395 302.022,311.830 301.200,312.019 301.200 C 312.753 301.200,313.196 297.964,313.196 292.600 C 313.196 287.240,312.753 284.000,312.020 284.000 C 310.648 284.000,310.809 279.507,312.204 278.871 C 312.714 278.639,313.240 278.105,313.373 277.685 C 313.506 277.265,314.046 276.725,314.573 276.485 C 315.100 276.245,315.648 275.678,315.792 275.224 C 315.936 274.771,316.238 274.400,316.463 274.400 C 316.937 274.400,320.400 270.925,320.400 270.449 C 320.400 270.273,320.834 269.930,321.365 269.689 C 321.896 269.447,322.440 268.905,322.573 268.485 C 322.706 268.065,323.246 267.525,323.773 267.285 C 324.300 267.045,324.848 266.478,324.992 266.024 C 325.136 265.571,325.438 265.200,325.663 265.200 C 326.137 265.200,329.600 261.725,329.600 261.249 C 329.600 261.073,330.034 260.730,330.565 260.489 C 331.096 260.247,331.640 259.705,331.773 259.285 C 331.906 258.865,332.446 258.325,332.973 258.085 C 333.500 257.845,334.048 257.278,334.192 256.824 C 334.336 256.371,334.650 256.000,334.891 256.000 C 335.373 256.000,338.800 252.406,338.800 251.900 C 338.800 251.726,339.247 251.379,339.792 251.131 C 340.338 250.882,340.887 250.355,341.013 249.960 C 341.138 249.564,341.564 249.138,341.960 249.013 C 342.355 248.887,342.875 248.354,343.115 247.827 C 343.355 247.300,343.895 246.760,344.315 246.627 C 344.735 246.494,345.275 245.954,345.515 245.427 C 345.755 244.900,346.295 244.360,346.715 244.227 C 347.135 244.094,347.675 243.554,347.915 243.027 C 348.155 242.500,348.713 241.955,349.155 241.814 C 349.597 241.674,350.067 241.217,350.200 240.800 C 350.333 240.383,350.764 239.938,351.160 239.813 C 351.555 239.687,352.075 239.154,352.315 238.627 C 352.555 238.100,353.095 237.560,353.515 237.427 C 353.935 237.294,354.475 236.754,354.715 236.227 C 354.955 235.700,355.513 235.155,355.955 235.014 C 356.397 234.874,356.874 234.397,357.014 233.955 C 357.155 233.513,357.700 232.955,358.227 232.715 C 358.754 232.475,359.287 231.955,359.413 231.560 C 359.538 231.164,359.983 230.733,360.400 230.600 C 360.817 230.467,361.266 230.023,361.396 229.613 C 361.652 228.806,364.692 227.102,364.997 227.595 C 365.099 227.760,365.943 228.017,366.873 228.165 C 367.802 228.314,369.111 228.770,369.782 229.180 C 370.641 229.705,372.177 230.003,375.000 230.193 C 377.200 230.341,379.315 230.550,379.700 230.658 C 380.633 230.919,380.585 230.350,379.584 229.275 C 378.936 228.580,378.300 228.395,376.484 228.376 C 373.506 228.344,366.669 226.768,365.697 225.888 C 364.684 224.971,364.311 225.017,363.200 226.200 C 362.683 226.750,362.028 227.200,361.744 227.200 C 361.460 227.200,361.014 227.600,360.753 228.089 C 360.215 229.093,357.209 232.000,356.708 232.000 C 356.528 232.000,356.209 232.450,356.000 233.000 C 355.791 233.550,355.350 234.000,355.020 234.000 C 354.690 234.000,354.141 234.540,353.800 235.200 C 353.459 235.860,352.920 236.400,352.604 236.400 C 352.287 236.400,351.849 236.735,351.630 237.144 C 351.115 238.106,348.506 240.715,347.544 241.230 C 347.135 241.449,346.800 241.887,346.800 242.204 C 346.800 242.520,346.260 243.059,345.600 243.400 C 344.940 243.741,344.400 244.290,344.400 244.620 C 344.400 244.950,343.950 245.391,343.400 245.600 C 342.850 245.809,342.400 246.136,342.400 246.326 C 342.400 246.789,339.329 249.903,338.364 250.419 C 337.944 250.644,337.600 251.096,337.600 251.423 C 337.600 251.750,337.170 252.213,336.644 252.453 C 336.118 252.692,335.492 253.318,335.253 253.844 C 335.013 254.370,334.543 254.800,334.209 254.800 C 333.874 254.800,333.600 254.957,333.600 255.148 C 333.600 255.590,329.173 260.000,328.730 260.000 C 328.549 260.000,328.400 260.274,328.400 260.609 C 328.400 260.943,327.970 261.413,327.444 261.653 C 326.918 261.892,326.292 262.518,326.053 263.044 C 325.813 263.570,325.350 264.000,325.023 264.000 C 324.696 264.000,324.236 264.360,324.000 264.799 C 323.519 265.699,319.966 269.200,319.534 269.200 C 319.380 269.200,319.143 269.551,319.006 269.980 C 318.870 270.408,318.436 270.862,318.040 270.987 C 317.645 271.113,317.118 271.662,316.869 272.208 C 316.621 272.753,316.150 273.200,315.823 273.200 C 315.496 273.200,315.032 273.566,314.793 274.012 C 314.554 274.459,313.380 275.753,312.183 276.886 C 309.081 279.827,308.912 281.789,311.329 286.800 C 312.574 289.379,312.585 295.784,311.350 298.400 C 310.883 299.390,310.288 300.863,310.028 301.673 C 309.769 302.483,309.026 303.812,308.378 304.628 C 307.730 305.443,307.200 306.343,307.200 306.628 C 307.200 306.913,306.829 307.264,306.376 307.408 C 305.922 307.552,305.367 308.073,305.143 308.566 C 304.918 309.060,304.107 309.690,303.341 309.967 C 302.575 310.244,301.850 310.725,301.731 311.037 C 301.611 311.348,300.498 311.891,299.257 312.243 C 298.015 312.594,296.550 313.178,296.000 313.539 C 294.391 314.596,287.106 314.470,284.773 313.345 C 283.798 312.874,282.225 312.279,281.279 312.022 C 280.332 311.765,279.461 311.304,279.343 310.997 C 279.226 310.690,278.515 310.236,277.765 309.988 C 277.014 309.741,276.400 309.278,276.400 308.960 C 276.400 308.643,275.970 308.187,275.444 307.947 C 274.918 307.708,274.275 307.044,274.015 306.473 C 273.755 305.902,273.216 305.206,272.817 304.927 C 272.419 304.648,271.978 303.810,271.839 303.065 C 271.699 302.320,271.242 301.400,270.822 301.020 C 268.871 299.254,268.635 287.704,270.493 284.884 C 273.017 281.051,272.762 280.554,263.495 271.265 C 259.153 266.913,255.600 263.133,255.600 262.867 C 255.600 262.601,255.150 262.178,254.600 261.927 C 254.050 261.677,253.600 261.331,253.600 261.159 C 253.600 260.568,217.649 225.200,217.050 225.201 C 216.803 225.202,216.016 225.559,215.302 225.994 C 212.644 227.615,204.774 228.799,201.997 227.996 C 201.229 227.774,199.538 227.419,198.239 227.208 C 196.925 226.995,195.506 226.484,195.039 226.056 C 193.816 224.935,191.808 224.595,191.138 225.396 C 190.842 225.749,190.362 226.255,190.071 226.519 C 189.144 227.363,188.244 228.272,186.468 230.159 C 185.515 231.172,184.566 232.000,184.358 232.000 C 184.150 232.000,183.809 232.450,183.600 233.000 C 183.391 233.550,182.950 234.000,182.620 234.000 C 182.290 234.000,181.741 234.540,181.400 235.200 C 181.059 235.860,180.559 236.405,180.290 236.411 C 180.020 236.417,178.990 237.397,178.000 238.589 C 177.010 239.780,175.875 240.871,175.477 241.012 C 175.079 241.153,174.589 241.703,174.387 242.234 C 174.185 242.765,173.797 243.200,173.525 243.200 C 173.253 243.200,172.573 243.656,172.015 244.214 C 171.457 244.772,170.055 246.115,168.900 247.199 C 167.745 248.282,166.800 249.335,166.800 249.538 C 166.800 249.741,166.427 250.004,165.970 250.124 C 165.514 250.243,165.053 250.676,164.946 251.086 C 164.838 251.496,164.357 252.004,163.875 252.216 C 163.394 252.427,162.827 252.994,162.616 253.475 C 162.404 253.957,161.896 254.438,161.486 254.546 C 161.076 254.653,160.643 255.114,160.524 255.570 C 160.404 256.027,160.152 256.400,159.963 256.400 C 159.458 256.400,155.600 260.161,155.600 260.652 C 155.600 260.883,155.150 261.277,154.600 261.527 C 154.050 261.778,153.600 262.161,153.600 262.378 C 153.600 262.595,153.105 263.309,152.500 263.964 C 151.895 264.620,151.203 265.391,150.962 265.678 C 150.721 265.965,149.596 267.047,148.462 268.083 C 147.328 269.118,146.400 270.141,146.400 270.356 C 146.400 270.570,146.067 270.852,145.661 270.981 C 145.254 271.110,144.718 271.662,144.469 272.208 C 144.221 272.753,143.750 273.200,143.423 273.200 C 143.096 273.200,142.646 273.541,142.422 273.958 C 142.199 274.375,140.978 275.716,139.708 276.937 L 137.400 279.157 137.435 281.678 C 137.462 283.595,137.726 284.679,138.535 286.197 C 140.066 289.069,140.112 295.851,138.622 298.960 C 138.084 300.082,137.548 301.465,137.431 302.034 C 137.042 303.924,132.928 308.835,130.773 309.982 C 129.989 310.400,129.115 311.020,128.833 311.360 C 128.551 311.700,127.663 312.095,126.860 312.238 C 126.057 312.381,124.770 312.880,124.000 313.349 C 121.950 314.595,114.962 314.593,112.373 313.345 C 111.398 312.874,109.825 312.279,108.879 312.022 C 107.932 311.765,107.061 311.304,106.943 310.997 C 106.826 310.690,106.124 310.239,105.384 309.995 C 104.644 309.750,103.930 309.211,103.799 308.796 C 103.667 308.381,103.236 307.938,102.840 307.813 C 102.445 307.687,101.901 307.101,101.632 306.510 C 101.362 305.918,100.795 305.192,100.371 304.895 C 99.947 304.598,99.600 304.092,99.600 303.772 C 99.600 303.178,98.965 301.882,98.145 300.800 C 96.353 298.437,96.392 286.397,98.198 284.402 C 98.524 284.042,99.005 283.130,99.269 282.374 C 99.747 281.001,100.565 279.950,103.200 277.319 C 105.917 274.607,106.476 274.227,110.600 272.293 C 113.596 270.887,124.667 271.208,126.638 272.758 C 128.936 274.566,133.920 273.035,133.987 270.500 C 133.994 270.225,134.194 270.000,134.432 270.000 C 134.669 270.000,135.901 268.920,137.169 267.600 C 138.436 266.280,139.686 265.200,139.945 265.200 C 140.205 265.200,140.622 264.750,140.873 264.200 C 141.123 263.650,141.497 263.200,141.703 263.200 C 142.082 263.200,153.694 251.531,161.800 243.004 C 164.220 240.458,166.436 238.156,166.725 237.888 C 169.737 235.092,173.200 231.506,173.200 231.185 C 173.200 230.964,173.647 230.579,174.192 230.331 C 174.738 230.082,175.287 229.555,175.413 229.160 C 175.538 228.764,175.963 228.339,176.356 228.214 C 176.750 228.089,177.311 227.540,177.604 226.993 C 177.896 226.447,178.375 226.000,178.668 226.000 C 178.960 226.000,179.200 225.843,179.200 225.650 C 179.200 225.458,180.290 224.243,181.622 222.950 C 185.603 219.087,186.666 217.343,185.698 216.269 C 183.348 213.663,183.443 200.401,185.831 197.510 C 186.327 196.910,186.849 195.888,186.991 195.239 C 187.134 194.590,187.689 193.771,188.225 193.420 C 188.761 193.069,189.200 192.528,189.200 192.218 C 189.200 191.908,189.544 191.545,189.964 191.411 C 190.385 191.278,191.004 190.748,191.341 190.234 C 191.678 189.719,192.447 189.174,193.050 189.023 C 193.653 188.872,194.636 188.336,195.235 187.832 C 198.665 184.946,213.092 185.177,215.565 188.158 C 215.858 188.511,216.352 188.800,216.663 188.800 C 217.340 188.800,222.800 194.173,222.800 194.839 C 222.800 195.096,223.157 195.616,223.593 195.994 C 224.029 196.372,224.672 197.796,225.021 199.158 C 225.369 200.520,225.913 202.250,226.227 203.004 C 227.042 204.953,226.937 208.775,225.989 211.698 C 225.543 213.074,225.000 214.761,224.783 215.446 C 224.565 216.131,224.352 217.508,224.308 218.506 L 224.229 220.321 236.960 233.058 C 243.962 240.063,249.940 246.156,250.245 246.597 C 250.960 247.634,265.085 261.852,266.400 262.858 C 266.950 263.279,269.650 265.855,272.400 268.581 C 278.261 274.391,278.701 274.591,281.923 272.911 C 285.784 270.898,296.429 270.815,299.084 272.777 C 301.781 274.772,302.576 274.502,307.106 270.054 C 309.358 267.843,311.200 265.846,311.200 265.617 C 311.200 265.388,311.385 265.200,311.611 265.200 C 312.126 265.200,320.400 256.897,320.400 256.380 C 320.400 256.171,320.585 256.000,320.811 256.000 C 321.326 256.000,329.600 247.697,329.600 247.180 C 329.600 246.971,329.785 246.800,330.011 246.800 C 330.236 246.800,332.311 244.865,334.621 242.500 C 339.717 237.282,338.584 238.412,343.700 233.439 C 346.065 231.141,348.000 229.066,348.000 228.830 C 348.000 228.593,348.181 228.400,348.403 228.400 C 348.624 228.400,350.649 226.555,352.903 224.300 L 357.000 220.200 356.933 217.974 C 356.885 216.347,356.562 215.217,355.734 213.774 C 354.045 210.830,354.026 203.292,355.700 200.107 C 356.305 198.956,356.800 197.678,356.800 197.266 C 356.800 196.854,357.295 195.944,357.900 195.243 C 361.224 191.392,363.131 189.572,364.486 188.961 C 365.319 188.586,366.000 188.121,366.000 187.929 C 366.000 187.126,372.635 185.600,376.126 185.600 C 378.297 185.600,379.385 185.148,380.005 183.991 C 380.326 183.391,380.304 183.214,379.914 183.259 C 379.631 183.292,377.597 183.447,375.394 183.603 M374.048 193.186 C 373.305 193.370,372.580 193.708,372.438 193.938 C 372.296 194.168,371.433 194.523,370.520 194.728 C 368.732 195.130,365.140 198.300,364.621 199.933 C 364.470 200.410,364.207 200.800,364.037 200.800 C 362.438 200.800,362.237 210.870,363.800 212.727 C 364.350 213.381,364.800 214.132,364.800 214.397 C 364.800 215.325,368.954 218.778,370.400 219.051 C 371.170 219.197,372.229 219.650,372.754 220.058 C 374.100 221.105,378.331 221.101,379.542 220.051 C 380.017 219.639,381.103 219.190,381.955 219.054 C 382.977 218.890,383.721 218.475,384.141 217.833 C 384.492 217.298,385.111 216.755,385.517 216.626 C 385.923 216.497,386.555 215.764,386.921 214.996 C 387.288 214.228,387.763 213.600,387.977 213.600 C 389.719 213.600,389.649 201.809,387.897 200.185 C 387.294 199.625,386.800 198.909,386.800 198.593 C 386.800 198.277,386.314 197.700,385.719 197.310 C 385.125 196.921,384.260 196.223,383.796 195.760 C 383.333 195.297,382.254 194.787,381.397 194.626 C 380.540 194.465,379.651 194.091,379.420 193.794 C 378.882 193.103,375.798 192.754,374.048 193.186 M379.043 195.401 C 381.040 195.654,383.600 196.850,383.600 197.530 C 383.600 197.718,384.050 198.077,384.600 198.327 C 385.150 198.578,385.600 198.964,385.600 199.185 C 385.600 199.407,386.185 200.536,386.900 201.694 C 388.629 204.496,388.772 208.733,387.234 211.600 C 386.703 212.590,386.073 213.804,385.834 214.297 C 385.595 214.790,385.271 215.195,385.114 215.197 C 384.957 215.199,384.209 215.743,383.453 216.407 C 376.420 222.582,363.874 216.567,363.828 207.000 C 363.798 200.626,370.875 193.881,376.400 195.019 C 376.730 195.087,377.919 195.259,379.043 195.401 M376.700 253.876 C 376.315 253.976,376.000 254.225,376.000 254.429 C 376.000 254.994,376.643 254.872,377.200 254.200 C 377.474 253.870,377.631 253.621,377.549 253.646 C 377.467 253.672,377.085 253.775,376.700 253.876 M114.600 279.876 C 113.062 280.076,111.200 280.806,111.200 281.209 C 111.200 281.381,110.592 281.879,109.850 282.318 C 109.107 282.756,107.802 284.165,106.950 285.450 L 105.400 287.786 105.400 292.929 C 105.400 297.779,105.451 298.113,106.300 298.800 C 106.795 299.200,107.200 299.742,107.200 300.004 C 107.200 300.598,110.763 304.000,111.386 304.000 C 111.638 304.000,112.455 304.450,113.200 305.000 C 114.403 305.887,114.950 306.000,118.060 306.000 C 121.138 306.000,121.744 305.878,123.038 305.000 C 123.849 304.450,124.712 304.000,124.957 304.000 C 125.512 304.000,129.200 300.599,129.200 300.087 C 129.200 299.881,129.695 299.012,130.300 298.156 C 131.811 296.019,131.972 289.088,130.546 287.532 C 130.076 287.020,129.582 286.240,129.447 285.800 C 129.138 284.792,126.594 282.000,125.985 282.000 C 125.734 282.000,125.214 281.611,124.829 281.137 C 123.844 279.920,118.921 279.313,114.600 279.876 M121.713 281.421 C 125.853 283.420,127.695 285.206,128.850 288.339 C 130.095 291.717,130.206 293.587,129.283 295.643 C 128.850 296.610,128.358 297.850,128.190 298.400 C 127.432 300.888,121.571 304.403,118.200 304.392 C 116.523 304.386,111.412 302.471,110.861 301.641 C 110.554 301.178,110.063 300.800,109.770 300.800 C 109.477 300.800,108.865 300.035,108.410 299.100 C 107.954 298.165,107.307 296.950,106.972 296.400 C 106.151 295.053,106.370 289.149,107.279 288.111 C 107.623 287.720,108.198 286.819,108.558 286.108 C 110.581 282.113,117.811 279.537,121.713 281.421 M335.303 330.897 C 335.256 331.519,335.352 331.572,335.823 331.181 C 336.540 330.586,336.565 330.133,335.880 330.133 C 335.594 330.133,335.334 330.477,335.303 330.897 M321.192 344.210 C 320.914 344.545,320.802 344.935,320.943 345.076 C 321.084 345.218,321.200 345.113,321.200 344.843 C 321.200 344.573,321.408 344.481,321.662 344.638 C 321.935 344.807,322.016 344.749,321.859 344.496 C 321.714 344.261,321.821 343.977,322.098 343.866 C 322.411 343.740,322.430 343.651,322.149 343.632 C 321.901 343.614,321.470 343.874,321.192 344.210 M288.769 366.500 C 288.425 367.624,288.517 368.001,289.032 367.573 C 289.690 367.027,289.780 366.400,289.200 366.400 C 288.980 366.400,288.786 366.445,288.769 366.500 M264.000 379.187 C 263.192 379.809,263.143 379.936,263.745 379.848 C 264.155 379.789,264.659 379.438,264.865 379.070 C 265.338 378.224,265.233 378.238,264.000 379.187 " stroke="none" fill="#266c7e" fill-rule="evenodd"></path></g></svg>