<svg id="svg" version="1.1" xmlns="http://www.w3.org/2000/svg" xmlns:xlink="http://www.w3.org/1999/xlink" width="400" height="132.1167883211679" viewBox="0, 0, 400,132.1167883211679"><g id="svgg"><path id="path0" d="M139.000 58.241 C 139.000 58.545,138.363 59.001,138.087 58.895 C 137.641 58.724,134.831 59.345,134.242 59.744 C 132.927 60.637,131.500 62.242,131.500 62.829 C 131.500 62.974,131.369 63.278,131.208 63.505 C 130.786 64.101,130.785 67.224,131.207 67.844 C 131.367 68.079,131.545 68.613,131.602 69.030 L 131.706 69.788 123.071 78.409 C 113.621 87.843,114.114 87.441,113.118 86.540 C 112.565 86.039,108.437 86.117,107.701 86.641 C 106.692 87.361,106.888 87.515,100.167 80.718 C 98.746 79.281,95.727 76.231,93.458 73.940 C 91.190 71.649,89.335 69.694,89.336 69.596 C 89.338 69.497,89.499 68.854,89.695 68.167 C 90.281 66.110,90.042 63.018,89.234 62.210 C 89.105 62.081,89.000 61.922,89.000 61.855 C 89.000 61.632,87.704 60.382,86.931 59.860 C 85.277 58.744,81.509 58.647,80.188 59.686 C 79.968 59.859,79.705 60.000,79.603 60.001 C 79.257 60.002,77.500 61.884,77.500 62.252 C 77.500 62.381,77.331 62.644,77.125 62.836 C 76.556 63.366,76.552 67.638,77.119 68.434 L 77.488 68.951 77.119 69.447 C 76.916 69.720,74.950 71.759,72.750 73.980 C 70.550 76.200,67.400 79.400,65.750 81.090 C 64.100 82.779,62.701 84.163,62.642 84.164 C 62.582 84.166,61.896 84.804,61.117 85.583 C 59.542 87.158,59.506 87.171,58.401 86.583 C 55.736 85.166,50.562 87.011,49.754 89.667 C 49.684 89.896,49.505 90.222,49.355 90.392 C 49.134 90.644,49.083 91.099,49.083 92.833 C 49.083 94.567,49.134 95.023,49.355 95.274 C 49.505 95.444,49.684 95.771,49.753 96.000 C 49.822 96.229,50.056 96.629,50.273 96.888 C 50.489 97.147,50.667 97.428,50.667 97.513 C 50.667 97.597,50.771 97.667,50.899 97.667 C 51.027 97.667,51.172 97.773,51.221 97.902 C 51.312 98.138,51.739 98.409,52.833 98.925 C 53.154 99.076,53.629 99.305,53.889 99.433 C 54.434 99.703,57.256 99.760,57.414 99.505 C 57.469 99.415,57.828 99.258,58.211 99.155 C 58.594 99.052,59.122 98.787,59.383 98.567 C 59.645 98.347,59.933 98.167,60.024 98.167 C 60.450 98.167,61.614 96.437,62.234 94.884 C 62.783 93.508,62.785 91.902,62.240 90.845 C 62.078 90.530,61.911 89.913,61.869 89.474 L 61.792 88.676 63.688 86.778 C 66.146 84.316,67.667 82.675,67.667 82.485 C 67.667 82.402,67.737 82.333,67.822 82.333 C 67.907 82.333,68.985 81.321,70.217 80.083 C 71.449 78.846,72.491 77.833,72.532 77.833 C 72.574 77.833,74.065 76.372,75.846 74.585 C 79.311 71.109,79.464 71.012,80.333 71.749 C 80.798 72.144,83.299 72.540,84.151 72.354 C 84.572 72.262,85.213 72.139,85.575 72.080 C 85.937 72.021,86.385 71.866,86.570 71.736 C 87.225 71.278,87.306 71.350,96.612 80.667 C 105.463 89.528,104.931 88.838,104.149 90.453 C 103.696 91.390,103.723 94.912,104.189 95.441 C 104.338 95.611,104.516 95.938,104.585 96.167 C 104.653 96.396,104.811 96.696,104.936 96.833 C 105.061 96.971,105.417 97.365,105.726 97.708 C 106.036 98.052,106.333 98.333,106.387 98.333 C 106.441 98.333,106.761 98.521,107.099 98.750 C 107.437 98.979,107.834 99.167,107.982 99.168 C 108.129 99.168,108.472 99.285,108.743 99.426 C 109.296 99.714,111.984 99.794,112.152 99.527 C 112.206 99.441,112.541 99.290,112.897 99.193 C 114.311 98.804,116.649 96.653,116.664 95.727 C 116.665 95.622,116.815 95.209,116.996 94.810 C 117.463 93.783,117.452 91.851,116.974 90.833 C 116.781 90.421,116.618 89.744,116.612 89.330 L 116.603 88.577 125.135 80.039 C 133.515 71.652,133.956 71.260,134.487 71.736 C 134.765 71.986,137.894 72.585,138.137 72.435 C 138.342 72.308,139.000 72.809,139.000 73.093 C 139.000 73.521,140.216 73.397,140.734 72.917 C 140.982 72.688,141.367 72.500,141.592 72.500 C 141.889 72.500,142.000 72.409,142.000 72.167 C 142.000 71.925,142.111 71.833,142.405 71.833 C 142.949 71.833,143.973 70.842,144.104 70.189 C 144.176 69.827,144.304 69.667,144.521 69.667 C 144.787 69.667,144.833 69.536,144.833 68.780 C 144.833 68.042,144.903 67.833,145.250 67.531 C 145.637 67.195,145.667 67.061,145.667 65.667 C 145.667 64.272,145.637 64.139,145.250 63.802 C 144.903 63.501,144.833 63.291,144.833 62.553 C 144.833 61.797,144.787 61.667,144.521 61.667 C 144.306 61.667,144.177 61.508,144.107 61.162 C 143.968 60.465,143.000 59.500,142.441 59.500 C 142.111 59.500,142.000 59.416,142.000 59.167 C 142.000 58.909,141.889 58.833,141.512 58.833 C 141.190 58.833,140.913 58.692,140.696 58.417 C 140.314 57.930,139.000 57.794,139.000 58.241 M201.167 61.333 C 201.167 61.561,201.056 61.667,200.818 61.667 C 200.611 61.667,200.434 61.800,200.383 61.994 C 200.336 62.175,200.155 62.367,199.982 62.422 C 199.680 62.518,199.667 62.795,199.667 69.162 L 199.667 75.802 199.259 75.609 C 199.034 75.503,198.816 75.286,198.774 75.125 C 198.726 74.943,198.537 74.833,198.269 74.833 C 197.996 74.833,197.742 74.682,197.568 74.417 C 197.418 74.188,197.162 74.000,197.000 74.000 C 196.838 74.000,196.666 73.850,196.618 73.667 C 196.550 73.404,196.391 73.333,195.868 73.333 C 195.346 73.333,195.187 73.263,195.118 73.000 C 195.040 72.701,194.891 72.667,193.682 72.667 C 192.585 72.667,192.333 72.619,192.333 72.413 C 192.333 72.010,191.599 71.833,189.927 71.833 C 187.916 71.833,187.333 71.950,187.333 72.354 C 187.333 72.635,187.190 72.667,185.901 72.667 C 184.609 72.667,184.460 72.699,184.382 73.000 C 184.313 73.263,184.154 73.333,183.632 73.333 C 183.109 73.333,182.950 73.404,182.882 73.667 C 182.826 73.878,182.654 74.000,182.411 74.000 C 181.808 74.000,181.500 74.175,181.500 74.518 C 181.500 74.743,181.381 74.833,181.083 74.833 C 180.778 74.833,180.667 74.922,180.667 75.167 C 180.667 75.389,180.556 75.500,180.333 75.500 C 180.089 75.500,180.000 75.611,180.000 75.917 C 180.000 76.250,179.917 76.333,179.583 76.333 C 179.278 76.333,179.167 76.422,179.167 76.667 C 179.167 76.889,179.056 77.000,178.833 77.000 C 178.618 77.000,178.500 77.111,178.500 77.314 C 178.500 77.488,178.351 77.667,178.167 77.715 C 177.975 77.765,177.833 77.942,177.833 78.132 C 177.833 78.319,177.692 78.498,177.505 78.547 C 177.273 78.608,177.144 78.830,177.069 79.302 C 176.996 79.762,176.864 79.997,176.648 80.053 C 176.383 80.122,176.333 80.296,176.333 81.151 C 176.333 82.056,176.297 82.167,176.000 82.167 C 175.697 82.167,175.665 82.285,175.644 83.458 C 175.624 84.642,175.613 84.682,175.509 83.938 C 175.445 83.475,175.276 83.037,175.115 82.919 C 174.890 82.755,174.833 82.437,174.833 81.341 C 174.833 80.109,174.799 79.960,174.500 79.882 C 174.246 79.815,174.167 79.654,174.167 79.208 C 174.167 78.797,174.042 78.506,173.750 78.235 C 173.516 78.018,173.333 77.663,173.333 77.425 C 173.333 77.111,173.246 77.000,173.000 77.000 C 172.778 77.000,172.667 76.889,172.667 76.667 C 172.667 76.422,172.556 76.333,172.250 76.333 C 171.917 76.333,171.833 76.250,171.833 75.917 C 171.833 75.611,171.744 75.500,171.500 75.500 C 171.278 75.500,171.167 75.389,171.167 75.167 C 171.167 74.944,171.056 74.833,170.833 74.833 C 170.650 74.833,170.500 74.764,170.500 74.679 C 170.500 74.367,169.964 74.000,169.508 74.000 C 169.179 74.000,169.013 73.900,168.952 73.667 C 168.877 73.380,168.724 73.333,167.868 73.333 C 167.012 73.333,166.860 73.286,166.785 73.000 C 166.700 72.674,166.558 72.667,160.694 72.667 C 154.836 72.667,154.687 72.675,154.583 73.000 C 154.492 73.288,154.331 73.333,153.390 73.333 C 152.442 73.333,152.291 73.376,152.215 73.667 C 152.148 73.922,151.987 74.001,151.522 74.002 C 150.628 74.006,150.208 74.159,150.114 74.515 C 150.066 74.700,149.885 74.833,149.682 74.833 C 149.380 74.833,149.333 74.933,149.333 75.583 C 149.333 76.222,149.284 76.333,149.000 76.333 C 148.695 76.333,148.667 76.444,148.667 77.647 C 148.667 78.821,148.702 78.970,149.000 79.048 C 149.241 79.111,149.333 79.276,149.333 79.642 C 149.333 80.210,149.833 80.667,150.454 80.667 C 150.722 80.667,150.833 80.764,150.833 81.000 C 150.833 81.311,150.944 81.333,152.516 81.333 C 154.058 81.333,154.205 81.306,154.285 81.000 C 154.359 80.716,154.512 80.667,155.324 80.667 C 156.123 80.667,156.338 80.600,156.667 80.250 C 157.055 79.837,157.084 79.833,159.906 79.833 C 162.750 79.833,162.755 79.834,163.067 80.250 C 163.306 80.568,163.532 80.667,164.023 80.667 C 164.556 80.667,164.667 80.724,164.667 81.000 C 164.667 81.215,164.778 81.333,164.981 81.333 C 165.154 81.333,165.333 81.482,165.382 81.667 C 165.434 81.866,165.609 82.000,165.818 82.000 C 166.079 82.000,166.167 82.105,166.167 82.417 C 166.167 82.722,166.256 82.833,166.500 82.833 C 166.806 82.833,166.832 82.940,166.820 84.125 C 166.813 84.835,166.769 85.323,166.723 85.208 C 166.663 85.060,166.127 85.000,164.860 85.000 C 163.261 85.000,163.059 84.966,162.872 84.667 C 162.559 84.165,157.109 84.151,156.842 84.651 C 156.696 84.924,156.439 84.977,155.009 85.026 C 153.687 85.072,153.303 85.141,153.132 85.366 C 153.008 85.529,152.633 85.671,152.250 85.700 C 151.704 85.741,151.574 85.818,151.530 86.125 C 151.485 86.439,151.373 86.500,150.841 86.500 C 150.346 86.500,150.186 86.574,150.118 86.833 C 150.066 87.033,149.891 87.167,149.682 87.167 C 149.421 87.167,149.333 87.272,149.333 87.583 C 149.333 87.889,149.244 88.000,149.000 88.000 C 148.778 88.000,148.667 88.111,148.667 88.333 C 148.667 88.578,148.556 88.667,148.250 88.667 C 147.890 88.667,147.833 88.741,147.833 89.213 C 147.833 89.569,147.717 89.844,147.500 90.000 C 147.265 90.169,147.167 90.431,147.167 90.886 C 147.167 91.381,147.092 91.551,146.849 91.614 C 146.130 91.802,146.044 97.726,146.750 98.432 C 147.052 98.733,147.167 99.028,147.167 99.496 C 147.167 99.998,147.242 100.168,147.500 100.250 C 147.683 100.308,147.833 100.489,147.833 100.652 C 147.833 100.815,147.992 101.091,148.186 101.266 C 148.380 101.440,148.604 101.754,148.683 101.963 C 148.763 102.171,148.955 102.390,149.110 102.450 C 149.265 102.509,149.528 102.695,149.696 102.862 C 149.863 103.030,150.182 103.167,150.405 103.167 C 150.698 103.167,150.825 103.270,150.863 103.542 C 150.906 103.841,151.040 103.927,151.525 103.967 C 151.961 104.004,152.156 104.109,152.217 104.342 C 152.290 104.622,152.452 104.667,153.382 104.667 C 154.321 104.667,154.472 104.710,154.548 105.000 C 154.632 105.319,154.776 105.333,157.818 105.333 C 160.778 105.333,161.023 105.310,161.333 105.000 C 161.594 104.740,161.889 104.667,162.682 104.667 C 163.558 104.667,163.710 104.621,163.785 104.333 C 163.842 104.114,164.012 104.000,164.280 104.000 C 164.822 104.000,165.333 103.714,165.333 103.411 C 165.333 103.277,165.483 103.167,165.667 103.167 C 165.889 103.167,166.000 103.056,166.000 102.833 C 166.000 102.098,167.470 102.377,167.532 103.125 C 167.569 103.578,167.683 103.794,167.948 103.910 C 168.149 103.998,168.348 104.204,168.391 104.368 C 168.514 104.838,173.823 104.824,173.946 104.354 C 173.991 104.181,174.209 103.958,174.431 103.857 C 174.743 103.715,174.833 103.545,174.833 103.098 C 174.833 102.669,174.918 102.496,175.167 102.417 C 175.489 102.314,175.501 102.152,175.528 97.530 C 175.543 94.901,175.599 93.337,175.653 94.054 C 175.727 95.054,175.818 95.395,176.042 95.520 C 176.253 95.638,176.333 95.892,176.333 96.441 C 176.333 97.042,176.398 97.215,176.648 97.280 C 176.861 97.336,176.995 97.569,177.065 98.003 C 177.135 98.443,177.272 98.678,177.500 98.750 C 177.683 98.808,177.833 99.001,177.833 99.178 C 177.833 99.389,177.948 99.500,178.167 99.500 C 178.411 99.500,178.500 99.611,178.500 99.917 C 178.500 100.222,178.589 100.333,178.833 100.333 C 179.031 100.333,179.167 100.444,179.167 100.606 C 179.167 100.947,179.986 101.666,180.375 101.666 C 180.575 101.667,180.667 101.798,180.667 102.083 C 180.667 102.417,180.750 102.500,181.083 102.500 C 181.389 102.500,181.500 102.589,181.500 102.833 C 181.500 103.092,181.611 103.167,181.996 103.167 C 182.341 103.167,182.575 103.293,182.765 103.583 C 182.979 103.909,183.179 104.000,183.686 104.000 C 184.222 104.000,184.333 104.057,184.333 104.333 C 184.333 104.633,184.444 104.667,185.432 104.667 C 186.391 104.667,186.542 104.709,186.618 105.000 C 186.702 105.318,186.846 105.333,189.785 105.333 C 192.724 105.333,192.869 105.318,192.952 105.000 C 193.027 104.711,193.179 104.667,194.092 104.667 C 194.987 104.667,195.160 104.618,195.247 104.343 C 195.320 104.114,195.530 104.004,195.967 103.968 C 196.460 103.927,196.594 103.842,196.637 103.542 C 196.674 103.276,196.802 103.167,197.077 103.167 C 197.290 103.167,197.507 103.057,197.558 102.922 C 197.610 102.787,197.918 102.566,198.243 102.430 C 198.568 102.295,198.833 102.067,198.833 101.925 C 198.833 101.783,198.942 101.667,199.075 101.667 C 199.208 101.667,199.393 101.535,199.487 101.375 C 199.615 101.154,199.658 101.336,199.662 102.125 C 199.666 103.041,199.705 103.167,199.988 103.167 C 200.195 103.167,200.329 103.301,200.363 103.542 C 200.398 103.783,200.551 103.936,200.792 103.970 C 201.033 104.004,201.167 104.138,201.167 104.345 C 201.167 104.649,201.308 104.667,203.667 104.667 C 206.026 104.667,206.167 104.649,206.167 104.345 C 206.167 104.138,206.301 104.004,206.542 103.970 C 206.783 103.936,206.936 103.783,206.970 103.542 C 207.004 103.301,207.138 103.167,207.345 103.167 C 207.846 103.167,207.852 62.581,207.351 62.422 C 207.178 62.367,206.997 62.175,206.950 61.994 C 206.899 61.800,206.722 61.667,206.516 61.667 C 206.278 61.667,206.167 61.561,206.167 61.333 C 206.167 61.015,206.056 61.000,203.667 61.000 C 201.278 61.000,201.167 61.015,201.167 61.333 M261.083 61.333 C 261.010 61.564,260.831 61.667,260.502 61.667 C 259.866 61.667,259.500 61.821,259.500 62.090 C 259.500 62.211,259.350 62.358,259.167 62.417 C 258.879 62.508,258.833 62.669,258.833 63.595 C 258.833 64.556,258.799 64.667,258.500 64.667 C 258.216 64.667,258.167 64.778,258.167 65.418 C 258.167 65.964,258.258 66.248,258.500 66.455 C 258.737 66.658,258.833 66.947,258.833 67.454 C 258.833 68.047,258.887 68.167,259.155 68.167 C 259.362 68.167,259.496 68.301,259.530 68.542 C 259.564 68.783,259.717 68.936,259.958 68.970 C 260.165 68.999,260.333 69.129,260.333 69.258 C 260.333 69.810,265.547 69.841,265.854 69.292 C 265.943 69.131,266.161 69.000,266.338 69.000 C 266.543 69.000,266.699 68.848,266.765 68.583 C 266.830 68.323,266.987 68.167,267.185 68.167 C 267.480 68.167,267.500 68.006,267.500 65.597 C 267.500 62.890,267.445 62.500,267.060 62.500 C 266.930 62.500,266.774 62.369,266.715 62.208 C 266.566 61.803,266.331 61.672,265.748 61.669 C 265.429 61.668,265.171 61.545,265.039 61.333 C 264.851 61.033,264.650 61.000,263.010 61.000 C 261.336 61.000,261.181 61.027,261.083 61.333 M138.750 61.500 C 139.117 61.677,139.534 61.825,139.678 61.828 C 139.822 61.831,140.095 62.012,140.285 62.230 C 140.474 62.448,140.694 62.654,140.773 62.688 C 141.771 63.117,142.229 67.035,141.375 67.830 C 141.169 68.022,141.000 68.289,141.000 68.423 C 141.000 68.557,140.925 68.667,140.832 68.667 C 140.740 68.667,140.501 68.854,140.302 69.083 C 140.103 69.313,139.822 69.503,139.678 69.506 C 139.534 69.509,139.117 69.656,138.750 69.833 C 137.894 70.247,137.394 70.247,136.623 69.833 C 136.281 69.650,135.870 69.500,135.709 69.499 C 135.363 69.498,134.510 68.685,133.874 67.750 C 132.851 66.248,133.276 63.962,134.872 62.376 C 135.172 62.078,135.548 61.835,135.709 61.834 C 135.870 61.834,136.281 61.683,136.623 61.500 C 137.394 61.087,137.894 61.087,138.750 61.500 M84.464 62.008 C 86.317 62.405,87.630 64.739,87.062 66.625 C 85.760 70.948,79.667 70.184,79.667 65.698 C 79.667 62.871,81.590 61.392,84.464 62.008 M224.541 71.951 C 224.335 71.991,224.088 72.168,223.994 72.345 C 223.851 72.611,223.638 72.667,222.755 72.667 C 221.836 72.667,221.675 72.712,221.583 73.000 C 221.504 73.250,221.331 73.333,220.890 73.333 C 220.448 73.333,220.281 73.414,220.217 73.657 C 220.171 73.835,219.972 74.004,219.775 74.032 C 219.551 74.064,219.397 74.224,219.363 74.458 C 219.329 74.699,219.195 74.833,218.988 74.833 C 218.778 74.833,218.667 74.948,218.667 75.167 C 218.667 75.385,218.556 75.500,218.344 75.500 C 218.121 75.500,218.001 75.640,217.953 75.958 C 217.910 76.241,217.874 76.114,217.858 75.625 C 217.837 74.961,217.781 74.833,217.510 74.833 C 217.248 74.833,217.176 74.698,217.135 74.125 C 217.093 73.547,217.017 73.407,216.725 73.366 C 216.528 73.338,216.329 73.169,216.283 72.991 C 216.149 72.481,211.333 72.490,211.333 73.000 C 211.333 73.183,211.229 73.333,211.101 73.333 C 210.596 73.333,209.833 74.275,209.833 74.900 C 209.833 75.302,209.757 75.500,209.601 75.500 C 209.180 75.500,209.167 75.922,209.167 88.816 C 209.167 100.986,209.181 101.620,209.472 101.932 C 209.640 102.112,209.826 102.557,209.885 102.920 C 209.944 103.284,210.075 103.608,210.176 103.642 C 210.276 103.675,210.581 103.920,210.852 104.185 L 211.345 104.667 213.761 104.667 C 215.807 104.667,216.193 104.626,216.278 104.404 C 216.333 104.259,216.556 104.074,216.773 103.991 C 217.043 103.888,217.167 103.710,217.167 103.421 C 217.167 103.174,217.262 103.000,217.397 103.000 C 217.802 103.000,217.829 102.414,217.831 93.487 L 217.833 84.725 218.250 84.333 C 218.529 84.071,218.667 83.763,218.667 83.399 C 218.667 83.002,218.757 82.827,219.000 82.750 C 219.183 82.692,219.333 82.508,219.333 82.342 C 219.333 82.175,219.483 82.000,219.667 81.952 C 219.850 81.904,220.000 81.753,220.000 81.617 C 220.000 81.481,220.188 81.322,220.417 81.265 C 220.646 81.207,220.833 81.058,220.833 80.932 C 220.833 80.802,221.092 80.655,221.435 80.591 C 221.831 80.517,222.066 80.368,222.121 80.156 C 222.252 79.655,225.154 79.666,225.285 80.168 C 225.347 80.402,225.563 80.533,226.005 80.604 C 226.432 80.672,226.665 80.807,226.720 81.019 C 226.767 81.201,226.949 81.333,227.151 81.333 C 227.389 81.333,227.500 81.439,227.500 81.667 C 227.500 81.889,227.611 82.000,227.833 82.000 C 228.110 82.000,228.167 82.111,228.167 82.655 C 228.167 83.162,228.242 83.335,228.496 83.415 C 228.818 83.518,228.826 83.725,228.871 92.698 L 228.917 101.876 229.292 102.125 C 229.574 102.313,229.667 102.535,229.667 103.026 C 229.667 103.494,229.749 103.707,229.958 103.784 C 230.119 103.844,230.415 104.066,230.617 104.279 C 231.137 104.828,235.973 104.890,236.114 104.349 C 236.160 104.174,236.341 103.993,236.515 103.948 C 236.697 103.900,236.833 103.719,236.833 103.524 C 236.833 103.337,237.021 102.982,237.250 102.734 L 237.667 102.285 237.667 93.226 C 237.667 84.278,237.671 84.167,238.000 84.167 C 238.277 84.167,238.333 84.056,238.333 83.511 C 238.333 83.002,238.408 82.832,238.667 82.750 C 238.850 82.692,239.000 82.527,239.000 82.383 C 239.000 82.111,239.740 81.333,239.999 81.333 C 240.081 81.333,240.246 81.193,240.366 81.022 C 240.485 80.851,240.828 80.658,241.126 80.592 C 241.425 80.527,241.746 80.329,241.841 80.153 C 242.106 79.658,245.000 79.668,245.000 80.165 C 245.000 80.421,245.147 80.520,245.652 80.600 C 246.096 80.671,246.331 80.805,246.387 81.019 C 246.434 81.201,246.616 81.333,246.818 81.333 C 247.056 81.333,247.167 81.439,247.167 81.667 C 247.167 81.889,247.278 82.000,247.500 82.000 C 247.778 82.000,247.833 82.111,247.833 82.663 C 247.833 83.232,247.893 83.342,248.250 83.432 L 248.667 83.536 248.667 92.846 C 248.667 101.984,248.673 102.158,249.000 102.333 C 249.236 102.460,249.333 102.682,249.333 103.094 C 249.333 103.497,249.423 103.710,249.625 103.784 C 249.785 103.844,250.082 104.066,250.284 104.279 C 250.804 104.828,255.640 104.890,255.781 104.349 C 255.827 104.174,256.007 103.993,256.182 103.948 C 256.395 103.892,256.500 103.717,256.500 103.420 C 256.500 102.967,256.833 102.500,257.156 102.500 C 257.283 102.500,257.323 99.343,257.293 91.708 L 257.250 80.917 256.875 80.752 C 256.544 80.607,256.500 80.466,256.500 79.544 C 256.500 78.611,256.465 78.500,256.167 78.500 C 255.883 78.500,255.833 78.389,255.833 77.750 C 255.833 77.111,255.784 77.000,255.500 77.000 C 255.253 77.000,255.167 76.889,255.167 76.572 C 255.167 76.013,254.885 75.500,254.577 75.500 C 254.443 75.500,254.333 75.350,254.333 75.167 C 254.333 74.944,254.222 74.833,254.000 74.833 C 253.776 74.833,253.667 74.722,253.667 74.496 C 253.667 74.255,253.525 74.130,253.175 74.060 C 252.905 74.006,252.556 73.820,252.399 73.648 C 252.243 73.475,251.957 73.333,251.764 73.333 C 251.571 73.333,251.320 73.183,251.205 73.000 C 251.028 72.716,250.817 72.667,249.768 72.667 C 248.713 72.667,248.527 72.623,248.458 72.359 C 248.260 71.600,243.500 71.594,243.500 72.353 C 243.500 72.635,243.360 72.667,242.095 72.667 C 240.836 72.667,240.678 72.701,240.583 73.000 C 240.501 73.259,240.331 73.333,239.822 73.333 C 239.278 73.333,239.167 73.390,239.167 73.667 C 239.167 73.913,239.056 74.000,238.742 74.000 C 238.503 74.000,238.148 74.182,237.931 74.417 C 237.719 74.646,237.422 74.833,237.273 74.833 C 237.123 74.833,237.000 74.948,237.000 75.087 C 237.000 75.227,236.813 75.413,236.583 75.500 C 236.328 75.597,236.167 75.789,236.167 75.996 C 236.167 76.218,236.057 76.333,235.845 76.333 C 235.644 76.333,235.496 76.474,235.451 76.708 C 235.411 76.915,235.369 76.758,235.356 76.359 C 235.338 75.799,235.262 75.617,235.015 75.552 C 234.841 75.507,234.660 75.326,234.614 75.151 C 234.569 74.976,234.417 74.833,234.277 74.833 C 234.137 74.833,233.976 74.687,233.919 74.509 C 233.863 74.330,233.663 74.135,233.475 74.075 C 233.287 74.016,232.991 73.824,232.817 73.650 C 232.643 73.476,232.318 73.333,232.095 73.333 C 231.836 73.333,231.651 73.213,231.583 73.000 C 231.489 72.704,231.331 72.667,230.155 72.667 C 229.082 72.667,228.833 72.619,228.833 72.413 C 228.833 71.916,226.196 71.632,224.541 71.951 M284.265 72.250 C 283.900 72.616,283.705 72.667,282.674 72.667 C 281.611 72.667,281.500 72.698,281.500 73.000 C 281.500 73.279,281.389 73.333,280.818 73.333 C 280.282 73.333,280.117 73.403,280.051 73.657 C 280.004 73.835,279.805 74.004,279.608 74.032 C 279.384 74.064,279.230 74.224,279.197 74.458 C 279.163 74.699,279.029 74.833,278.822 74.833 C 278.611 74.833,278.500 74.948,278.500 75.167 C 278.500 75.385,278.389 75.500,278.178 75.500 C 277.954 75.500,277.834 75.640,277.786 75.958 C 277.743 76.241,277.707 76.114,277.692 75.625 C 277.671 74.961,277.615 74.833,277.343 74.833 C 277.081 74.833,277.009 74.698,276.968 74.125 C 276.926 73.547,276.851 73.407,276.559 73.366 C 276.362 73.338,276.163 73.169,276.116 72.991 C 276.001 72.552,271.273 72.483,271.106 72.918 C 271.053 73.056,270.801 73.261,270.546 73.373 C 269.947 73.636,269.839 73.801,269.836 74.458 C 269.834 74.756,269.748 75.000,269.643 75.000 C 269.019 75.000,269.011 75.167,269.005 88.780 C 269.000 102.645,268.993 102.500,269.679 102.500 C 269.764 102.500,269.833 102.770,269.833 103.099 C 269.833 103.554,269.912 103.718,270.161 103.784 C 270.341 103.831,270.531 104.003,270.583 104.167 C 270.781 104.790,275.836 104.952,276.161 104.345 C 276.255 104.167,276.483 103.975,276.666 103.917 C 276.900 103.843,277.000 103.665,277.000 103.324 C 277.000 103.017,277.123 102.759,277.333 102.628 C 277.660 102.424,277.667 102.239,277.667 93.293 L 277.667 84.167 278.083 84.167 C 278.456 84.167,278.500 84.099,278.500 83.519 C 278.500 83.012,278.572 82.853,278.833 82.785 C 279.025 82.735,279.167 82.558,279.167 82.368 C 279.167 82.179,279.308 82.002,279.500 81.952 C 279.683 81.904,279.833 81.745,279.833 81.599 C 279.833 81.440,279.974 81.333,280.182 81.333 C 280.391 81.333,280.566 81.199,280.618 81.000 C 280.679 80.766,280.846 80.667,281.174 80.667 C 281.630 80.667,282.167 80.300,282.167 79.988 C 282.167 79.595,285.807 79.812,285.863 80.208 C 285.908 80.520,286.036 80.592,286.625 80.635 C 287.198 80.676,287.333 80.748,287.333 81.010 C 287.333 81.222,287.448 81.333,287.667 81.333 C 287.889 81.333,288.000 81.444,288.000 81.667 C 288.000 81.886,288.111 82.000,288.324 82.000 C 288.585 82.000,288.657 82.136,288.699 82.708 C 288.741 83.297,288.813 83.426,289.125 83.470 L 289.500 83.523 289.500 92.944 C 289.500 102.224,289.505 102.366,289.833 102.452 C 290.084 102.517,290.167 102.679,290.167 103.106 C 290.167 103.550,290.258 103.715,290.583 103.864 C 290.813 103.968,291.000 104.146,291.000 104.259 C 291.000 104.794,296.470 104.901,296.609 104.368 C 296.652 104.204,296.851 103.998,297.052 103.910 C 297.314 103.795,297.431 103.578,297.467 103.142 C 297.504 102.705,297.609 102.510,297.842 102.449 C 298.360 102.314,298.351 81.517,297.833 81.382 C 297.546 81.306,297.500 81.153,297.498 80.272 C 297.495 78.932,297.369 78.500,296.981 78.500 C 296.720 78.500,296.667 78.373,296.667 77.750 C 296.667 77.111,296.617 77.000,296.333 77.000 C 296.138 77.000,296.000 76.889,296.000 76.732 C 296.000 76.585,295.813 76.242,295.583 75.970 C 295.354 75.697,295.167 75.368,295.167 75.237 C 295.167 75.107,295.094 75.000,295.006 75.000 C 294.917 75.000,294.615 74.775,294.333 74.500 C 294.045 74.218,293.643 74.000,293.411 74.000 C 293.111 74.000,293.000 73.910,293.000 73.667 C 293.000 73.391,292.889 73.333,292.353 73.333 C 291.846 73.333,291.687 73.261,291.618 73.000 C 291.542 72.706,291.391 72.667,290.349 72.667 C 289.693 72.667,289.167 72.594,289.167 72.504 C 289.167 71.729,285.002 71.513,284.265 72.250 M260.465 72.958 C 260.344 73.119,260.096 73.333,259.914 73.434 C 259.698 73.553,259.565 73.828,259.532 74.225 C 259.491 74.698,259.408 74.833,259.157 74.833 C 258.647 74.833,258.648 102.316,259.158 102.449 C 259.391 102.510,259.496 102.705,259.533 103.142 C 259.569 103.584,259.686 103.795,259.958 103.915 C 260.165 104.005,260.333 104.166,260.333 104.272 C 260.333 104.604,260.793 104.667,263.222 104.664 C 265.654 104.661,265.866 104.621,266.049 104.125 C 266.108 103.965,266.270 103.833,266.409 103.833 C 266.576 103.833,266.699 103.606,266.769 103.171 C 266.839 102.730,266.979 102.476,267.187 102.410 C 267.675 102.255,267.677 75.309,267.189 74.968 C 267.018 74.848,266.824 74.505,266.758 74.205 C 266.668 73.793,266.498 73.601,266.067 73.421 C 265.753 73.289,265.451 73.066,265.396 72.924 C 265.239 72.515,260.777 72.546,260.465 72.958 M194.098 80.250 C 194.310 80.479,194.666 80.667,194.889 80.667 C 195.154 80.667,195.325 80.782,195.382 81.000 C 195.434 81.199,195.609 81.333,195.818 81.333 C 196.256 81.333,197.500 82.557,197.500 82.989 C 197.500 83.166,197.650 83.358,197.833 83.417 C 198.017 83.475,198.167 83.638,198.167 83.779 C 198.167 83.920,198.354 84.183,198.583 84.363 C 198.927 84.633,199.000 84.835,199.000 85.511 C 199.000 86.150,199.073 86.376,199.333 86.539 C 199.637 86.728,199.667 86.927,199.667 88.771 C 199.667 90.654,199.644 90.800,199.333 90.882 C 199.047 90.957,199.000 91.109,199.000 91.973 C 199.000 92.886,198.966 92.982,198.627 93.030 C 198.412 93.061,198.227 93.224,198.190 93.415 C 198.155 93.597,197.986 93.845,197.813 93.966 C 197.627 94.096,197.500 94.385,197.500 94.676 C 197.500 95.056,197.424 95.167,197.167 95.167 C 196.922 95.167,196.833 95.278,196.833 95.583 C 196.833 95.935,196.755 96.000,196.335 96.000 C 196.017 96.000,195.761 96.121,195.628 96.333 C 195.513 96.517,195.243 96.667,195.028 96.667 C 194.783 96.667,194.604 96.785,194.553 96.982 C 194.484 97.245,194.276 97.308,193.299 97.364 C 192.338 97.418,192.073 97.496,191.828 97.798 C 191.454 98.260,190.833 98.293,190.833 97.851 C 190.833 97.454,190.521 97.333,189.486 97.333 C 188.897 97.333,188.667 97.268,188.667 97.101 C 188.667 96.821,188.308 96.667,187.653 96.667 C 187.278 96.667,187.167 96.591,187.167 96.333 C 187.167 96.111,187.056 96.000,186.833 96.000 C 186.615 96.000,186.500 95.889,186.500 95.678 C 186.500 95.501,186.358 95.311,186.185 95.256 C 186.011 95.201,185.831 95.008,185.784 94.828 C 185.735 94.641,185.556 94.500,185.367 94.500 C 185.124 94.500,185.009 94.351,184.931 93.933 C 184.872 93.621,184.714 93.323,184.579 93.271 C 184.418 93.210,184.333 92.943,184.333 92.501 C 184.333 91.933,184.267 91.800,183.917 91.667 L 183.500 91.508 183.500 88.599 C 183.500 85.709,183.502 85.689,183.875 85.637 C 184.178 85.594,184.260 85.461,184.302 84.948 C 184.331 84.598,184.500 84.167,184.677 83.989 C 184.855 83.812,185.000 83.484,185.000 83.262 C 185.000 82.968,185.104 82.842,185.375 82.803 C 185.616 82.769,185.769 82.616,185.803 82.375 C 185.837 82.134,185.971 82.000,186.178 82.000 C 186.389 82.000,186.500 81.885,186.500 81.667 C 186.500 81.444,186.611 81.333,186.833 81.333 C 187.052 81.333,187.167 81.222,187.167 81.010 C 187.167 80.748,187.302 80.676,187.875 80.635 C 188.464 80.592,188.592 80.520,188.637 80.208 C 188.724 79.591,193.521 79.628,194.098 80.250 M57.079 88.828 C 57.443 88.913,57.826 89.098,57.931 89.241 C 58.035 89.383,58.192 89.500,58.279 89.500 C 58.517 89.500,59.281 90.366,59.404 90.777 C 59.464 90.975,59.623 91.228,59.756 91.339 C 60.087 91.613,60.086 93.760,59.755 94.333 C 59.622 94.563,59.444 94.900,59.357 95.083 C 58.877 96.103,57.035 97.167,55.750 97.167 C 54.593 97.167,52.333 95.927,52.333 95.292 C 52.333 95.223,52.183 95.017,52.000 94.833 C 51.601 94.435,51.512 91.682,51.877 91.075 C 52.532 89.990,52.772 89.709,53.363 89.333 C 54.377 88.688,55.700 88.509,57.079 88.828 M111.693 88.983 C 112.317 89.128,112.366 89.158,113.281 89.954 C 116.547 92.797,112.971 98.419,109.056 96.596 C 106.188 95.261,105.549 91.249,107.960 89.715 C 108.211 89.555,108.465 89.356,108.524 89.272 C 108.770 88.924,110.687 88.749,111.693 88.983 M161.272 90.247 C 161.422 90.639,162.443 90.831,164.375 90.832 C 166.055 90.833,166.167 90.854,166.167 91.167 C 166.167 91.444,166.278 91.500,166.833 91.500 L 167.500 91.500 167.500 92.325 C 167.500 92.915,167.422 93.193,167.228 93.302 C 167.050 93.402,166.926 93.760,166.871 94.332 C 166.806 95.005,166.714 95.229,166.477 95.291 C 166.295 95.339,166.167 95.521,166.167 95.732 C 166.167 95.931,166.031 96.203,165.865 96.338 C 165.292 96.804,164.582 97.273,164.276 97.387 C 164.107 97.450,163.929 97.651,163.881 97.834 C 163.807 98.118,163.653 98.167,162.833 98.167 C 162.012 98.167,161.859 98.215,161.785 98.500 C 161.704 98.808,161.558 98.833,159.849 98.833 C 158.111 98.833,158.000 98.813,158.000 98.500 C 158.000 98.216,157.889 98.167,157.250 98.167 C 156.611 98.167,156.500 98.117,156.500 97.833 C 156.500 97.650,156.436 97.500,156.358 97.500 C 156.016 97.500,155.176 96.469,155.074 95.924 C 154.993 95.495,154.877 95.333,154.648 95.333 C 154.197 95.333,154.203 94.406,154.656 94.288 C 154.871 94.232,155.017 93.996,155.095 93.579 C 155.160 93.235,155.333 92.824,155.481 92.664 C 155.629 92.504,155.900 92.180,156.083 91.944 C 156.293 91.674,156.586 91.513,156.875 91.508 C 157.220 91.502,157.333 91.417,157.333 91.167 C 157.333 90.866,157.444 90.833,158.479 90.833 C 160.033 90.833,160.694 90.683,160.792 90.308 C 160.888 89.938,161.141 89.906,161.272 90.247 " stroke="none" fill="#0c2444" fill-rule="evenodd"></path><path id="path1" d="M78.750 21.642 C 78.292 21.887,77.703 22.231,77.441 22.407 C 76.955 22.735,57.635 42.010,53.417 46.375 C 50.956 48.922,50.333 49.660,50.333 50.029 C 50.333 50.153,50.183 50.535,50.000 50.877 C 49.730 51.381,49.667 51.817,49.667 53.181 C 49.667 54.612,49.717 54.928,50.000 55.288 C 50.183 55.521,50.333 55.890,50.333 56.107 C 50.333 56.450,51.184 57.552,51.970 58.228 C 52.091 58.332,52.348 58.585,52.542 58.792 C 52.735 58.998,53.064 59.167,53.274 59.167 C 53.483 59.167,53.788 59.311,53.952 59.486 C 54.116 59.662,54.457 59.858,54.710 59.922 C 55.345 60.081,55.318 59.673,55.370 69.949 L 55.417 79.148 55.792 79.497 C 55.998 79.689,56.167 80.018,56.167 80.227 C 56.167 81.030,58.764 83.151,59.760 83.161 C 60.040 83.164,60.415 83.277,60.593 83.411 C 61.050 83.757,62.259 83.736,62.645 83.375 C 64.270 81.856,67.000 79.111,67.000 78.996 C 67.000 78.917,67.156 78.743,67.346 78.610 C 67.949 78.187,67.401 78.087,64.000 78.000 L 60.750 77.917 60.667 66.333 L 60.583 54.750 57.097 54.667 C 54.676 54.609,53.591 54.525,53.547 54.391 C 53.439 54.066,81.282 26.333,81.716 26.333 C 81.987 26.333,85.286 29.533,93.836 38.092 C 100.297 44.559,106.108 50.369,106.750 51.003 C 110.673 54.881,110.709 54.661,106.145 54.664 C 103.891 54.666,103.164 54.719,103.022 54.891 C 102.890 55.050,102.823 58.431,102.793 66.516 L 102.750 77.917 100.808 77.963 C 98.808 78.012,98.212 78.245,99.006 78.670 C 99.186 78.766,99.333 78.913,99.333 78.995 C 99.333 79.266,103.160 82.913,103.597 83.060 C 103.931 83.171,104.105 83.126,104.398 82.851 C 104.603 82.658,104.850 82.500,104.946 82.500 C 105.504 82.500,106.839 81.006,107.328 79.833 C 107.424 79.604,107.633 79.192,107.793 78.917 C 108.057 78.463,108.091 77.567,108.167 69.167 L 108.250 59.917 108.637 59.862 C 108.850 59.832,109.292 59.625,109.619 59.404 C 109.946 59.182,110.302 59.000,110.412 59.000 C 110.750 59.000,112.293 57.448,112.567 56.833 C 112.710 56.512,112.894 56.137,112.977 56.000 C 113.541 55.063,113.811 52.596,113.431 51.860 C 113.285 51.580,113.167 51.106,113.167 50.809 C 113.167 50.490,112.978 49.996,112.708 49.606 C 111.834 48.344,85.141 21.833,84.745 21.833 C 84.543 21.833,84.188 21.683,83.955 21.500 C 83.249 20.945,79.887 21.037,78.750 21.642 M66.552 55.708 C 66.200 56.252,66.287 62.287,66.652 62.652 C 67.069 63.069,73.233 63.200,73.633 62.800 C 73.845 62.589,73.933 56.287,73.732 55.764 C 73.598 55.414,66.776 55.361,66.552 55.708 M136.448 62.159 C 135.882 62.341,134.502 63.444,134.494 63.719 C 134.491 63.828,134.344 64.217,134.167 64.583 C 133.990 64.950,133.845 65.438,133.845 65.667 C 133.845 65.896,133.990 66.383,134.167 66.750 C 134.344 67.117,134.491 67.501,134.494 67.605 C 134.508 68.046,136.050 69.066,136.860 69.170 C 138.799 69.419,140.069 68.848,140.947 67.333 C 142.542 64.582,139.563 61.155,136.448 62.159 M90.377 78.531 C 89.974 78.953,89.809 79.306,89.729 79.923 C 89.670 80.378,89.516 80.872,89.388 81.021 C 89.259 81.169,89.092 81.676,89.018 82.147 C 88.944 82.617,88.759 83.139,88.608 83.306 C 88.452 83.479,88.333 83.891,88.332 84.263 C 88.332 84.632,88.188 85.134,88.003 85.414 C 87.823 85.688,87.625 86.248,87.563 86.658 C 87.502 87.069,87.313 87.633,87.143 87.911 C 86.973 88.189,86.834 88.643,86.834 88.919 C 86.834 89.195,86.683 89.701,86.500 90.044 C 86.317 90.386,86.167 90.880,86.167 91.141 C 86.167 91.403,85.979 91.970,85.750 92.401 C 85.515 92.842,85.333 93.462,85.333 93.820 C 85.333 94.203,85.201 94.623,85.000 94.879 C 84.794 95.140,84.667 95.555,84.667 95.962 C 84.667 96.370,84.539 96.784,84.332 97.047 C 84.148 97.281,83.950 97.835,83.893 98.278 C 83.835 98.721,83.683 99.205,83.554 99.354 C 83.425 99.503,83.259 100.009,83.185 100.480 C 82.984 101.751,82.660 102.025,81.430 101.965 L 80.425 101.917 80.304 101.207 C 80.238 100.817,80.067 100.331,79.925 100.128 C 79.783 99.925,79.667 99.531,79.667 99.252 C 79.667 98.973,79.528 98.484,79.359 98.164 C 79.189 97.845,78.999 97.254,78.936 96.851 C 78.873 96.448,78.674 95.911,78.494 95.658 C 78.302 95.388,78.167 94.927,78.167 94.541 C 78.167 94.124,78.045 93.744,77.833 93.500 C 77.629 93.264,77.500 92.876,77.500 92.497 C 77.500 92.116,77.362 91.703,77.140 91.421 C 76.918 91.138,76.751 90.638,76.703 90.107 C 76.661 89.636,76.529 89.138,76.411 89.000 C 76.293 88.862,76.117 88.320,76.021 87.796 C 75.925 87.271,75.740 86.671,75.609 86.462 C 75.479 86.254,75.325 85.762,75.267 85.369 C 75.208 84.976,75.012 84.377,74.830 84.038 C 74.649 83.699,74.500 83.187,74.500 82.900 C 74.500 82.613,74.350 82.188,74.167 81.955 C 73.983 81.721,73.832 81.280,73.831 80.974 C 73.830 80.667,73.722 80.229,73.591 80.000 C 73.460 79.771,73.240 79.340,73.102 79.042 C 72.822 78.439,72.759 78.409,72.411 78.708 C 71.595 79.411,68.167 82.863,68.167 82.982 C 68.167 83.061,68.051 83.222,67.909 83.340 C 67.588 83.606,67.863 83.827,68.521 83.831 C 69.082 83.834,69.267 84.079,69.380 84.971 C 69.430 85.368,69.581 85.818,69.715 85.971 C 69.848 86.125,69.995 86.601,70.040 87.029 C 70.086 87.465,70.280 88.008,70.478 88.260 C 70.713 88.558,70.833 88.950,70.833 89.413 C 70.833 89.903,70.934 90.206,71.167 90.417 C 71.401 90.629,71.500 90.930,71.500 91.433 C 71.500 91.832,71.640 92.391,71.818 92.699 C 71.992 93.002,72.186 93.564,72.247 93.949 C 72.309 94.333,72.503 94.930,72.680 95.276 C 72.856 95.621,73.000 96.095,73.000 96.329 C 73.000 96.563,73.150 97.035,73.333 97.377 C 73.517 97.719,73.667 98.206,73.667 98.460 C 73.667 98.714,73.817 99.201,74.000 99.544 C 74.183 99.886,74.333 100.348,74.333 100.572 C 74.333 100.795,74.406 101.169,74.495 101.403 C 74.678 101.884,74.353 102.167,73.615 102.167 C 73.392 102.167,72.880 102.287,72.479 102.434 C 72.040 102.594,70.857 102.748,69.500 102.821 C 67.914 102.907,67.093 103.025,66.717 103.221 C 66.396 103.389,65.796 103.500,65.214 103.500 C 64.593 103.500,64.037 103.610,63.664 103.808 C 63.345 103.977,62.732 104.162,62.304 104.220 C 61.875 104.277,61.275 104.476,60.970 104.661 C 60.666 104.847,60.300 104.999,60.158 104.999 C 60.015 105.000,59.579 105.235,59.189 105.522 L 58.478 106.045 59.022 106.606 C 59.321 106.914,59.690 107.167,59.841 107.167 C 59.993 107.167,60.470 107.354,60.901 107.583 C 61.332 107.813,61.887 108.002,62.134 108.004 C 62.381 108.006,62.921 108.164,63.333 108.356 C 63.764 108.556,64.579 108.739,65.250 108.787 C 65.892 108.833,66.604 108.989,66.833 109.134 C 67.136 109.327,67.796 109.416,69.250 109.462 C 70.570 109.504,71.505 109.620,72.000 109.804 C 73.032 110.188,90.210 110.231,91.167 109.852 C 91.487 109.725,92.688 109.568,93.834 109.503 C 95.148 109.428,96.102 109.291,96.417 109.132 C 96.692 108.993,97.464 108.836,98.132 108.782 C 98.930 108.718,99.539 108.567,99.902 108.342 C 100.218 108.147,100.741 108.000,101.119 108.000 C 101.543 108.000,101.921 107.880,102.167 107.667 C 102.378 107.483,102.728 107.333,102.945 107.333 C 103.161 107.333,103.618 107.077,103.959 106.764 L 104.580 106.195 103.965 105.598 C 103.595 105.238,103.185 105.000,102.937 105.000 C 102.710 105.000,102.406 104.882,102.262 104.738 C 101.967 104.443,101.121 104.167,100.514 104.167 C 100.292 104.167,99.974 104.044,99.809 103.895 C 99.613 103.717,99.087 103.594,98.296 103.540 C 97.629 103.494,96.864 103.345,96.595 103.208 C 96.288 103.052,95.268 102.910,93.845 102.825 C 92.560 102.748,91.268 102.576,90.854 102.428 C 90.453 102.284,89.812 102.167,89.429 102.167 C 88.404 102.167,88.270 101.937,88.759 101.019 C 88.983 100.597,89.167 100.036,89.167 99.771 C 89.167 99.506,89.307 99.055,89.479 98.770 C 89.650 98.484,89.838 97.880,89.896 97.429 C 89.954 96.977,90.109 96.489,90.240 96.345 C 90.371 96.200,90.531 95.670,90.597 95.166 C 90.662 94.662,90.855 94.071,91.025 93.853 C 91.199 93.628,91.333 93.184,91.333 92.833 C 91.333 92.464,91.469 92.040,91.667 91.788 C 91.872 91.526,92.000 91.112,92.000 90.705 C 92.000 90.301,92.127 89.883,92.328 89.628 C 92.508 89.399,92.706 88.883,92.768 88.481 C 92.830 88.079,93.020 87.472,93.190 87.132 C 93.361 86.792,93.500 86.328,93.500 86.101 C 93.500 85.649,93.677 85.183,94.141 84.417 L 94.443 83.917 96.344 83.869 C 98.591 83.813,98.714 83.738,97.949 82.893 C 93.621 78.118,91.784 77.060,90.377 78.531 " stroke="none" fill="#f5fafa" fill-rule="evenodd"></path><path id="path2" d="M72.196 7.871 C 72.088 7.979,72.000 8.164,72.000 8.283 C 72.000 8.446,71.607 8.500,70.430 8.500 C 68.721 8.500,68.333 8.580,68.333 8.934 C 68.333 9.113,68.030 9.167,67.011 9.167 C 65.836 9.167,65.677 9.204,65.583 9.500 C 65.498 9.770,65.321 9.837,64.655 9.854 C 64.203 9.866,63.758 9.894,63.667 9.917 C 63.575 9.940,63.425 9.968,63.333 9.979 C 63.242 9.991,63.167 10.150,63.167 10.333 C 63.167 10.630,63.056 10.667,62.151 10.667 C 61.299 10.667,61.122 10.717,61.054 10.978 C 60.991 11.219,60.762 11.311,60.040 11.386 C 59.448 11.447,59.054 11.577,58.962 11.741 C 58.882 11.883,58.679 12.000,58.511 12.000 C 58.103 12.000,57.300 12.425,57.365 12.606 C 57.394 12.685,57.154 12.775,56.834 12.805 C 56.201 12.865,55.783 13.118,55.928 13.352 C 55.979 13.433,55.796 13.500,55.523 13.500 C 54.811 13.500,54.500 13.657,54.500 14.018 C 54.500 14.273,54.377 14.333,53.853 14.333 C 53.346 14.333,53.187 14.406,53.118 14.667 C 53.060 14.889,52.891 15.000,52.609 15.000 C 52.376 15.000,52.139 15.076,52.082 15.169 C 52.024 15.263,51.905 15.294,51.818 15.240 C 51.730 15.186,51.679 15.235,51.704 15.348 C 51.729 15.461,51.563 15.601,51.333 15.659 C 51.073 15.724,50.897 15.902,50.863 16.132 C 50.819 16.442,50.704 16.500,50.139 16.500 C 49.609 16.500,49.451 16.570,49.382 16.833 C 49.333 17.018,49.154 17.167,48.981 17.167 C 48.778 17.167,48.667 17.285,48.667 17.500 C 48.667 17.795,48.408 17.924,47.958 17.853 C 47.890 17.842,47.833 17.906,47.833 17.995 C 47.833 18.084,47.716 18.111,47.573 18.056 C 47.400 17.990,47.283 18.075,47.221 18.312 C 47.165 18.523,46.994 18.667,46.798 18.667 C 46.611 18.667,46.432 18.808,46.383 18.994 C 46.336 19.175,46.155 19.367,45.982 19.422 C 45.809 19.477,45.667 19.663,45.667 19.835 C 45.667 20.075,45.523 20.158,45.042 20.198 C 44.637 20.232,44.432 20.326,44.461 20.466 C 44.485 20.585,44.278 20.762,43.999 20.859 C 43.677 20.971,43.510 21.133,43.538 21.305 C 43.563 21.454,43.490 21.587,43.375 21.600 C 43.260 21.614,43.097 21.634,43.011 21.646 C 42.926 21.657,42.808 21.817,42.750 22.000 C 42.692 22.183,42.499 22.333,42.322 22.333 C 42.111 22.333,42.000 22.448,42.000 22.667 C 42.000 22.969,41.927 23.021,41.542 22.990 C 41.473 22.985,41.376 23.154,41.326 23.365 C 41.276 23.577,41.126 23.750,40.992 23.750 C 40.859 23.750,40.709 23.900,40.660 24.083 C 40.610 24.267,40.404 24.441,40.202 24.470 C 39.977 24.502,39.833 24.641,39.833 24.825 C 39.833 24.992,39.683 25.167,39.500 25.215 C 39.301 25.267,39.167 25.442,39.167 25.651 C 39.167 25.912,39.062 26.000,38.750 26.000 C 38.453 26.000,38.333 26.090,38.333 26.314 C 38.333 26.488,38.184 26.667,38.000 26.715 C 37.801 26.767,37.667 26.942,37.667 27.151 C 37.667 27.466,37.585 27.527,37.217 27.488 C 37.080 27.473,36.766 28.182,36.814 28.395 C 36.832 28.475,36.739 28.499,36.607 28.449 C 36.437 28.384,36.336 28.519,36.262 28.910 C 36.195 29.267,36.042 29.494,35.829 29.549 C 35.634 29.601,35.500 29.777,35.500 29.984 C 35.500 30.221,35.394 30.333,35.170 30.333 C 34.960 30.333,34.803 30.480,34.739 30.734 C 34.684 30.955,34.495 31.173,34.319 31.219 C 34.079 31.281,34.000 31.451,34.000 31.901 C 34.000 32.389,33.938 32.500,33.667 32.500 C 33.422 32.500,33.333 32.611,33.333 32.917 C 33.333 33.290,33.249 33.367,32.894 33.319 C 32.702 33.293,32.505 33.741,32.503 34.208 C 32.500 34.617,32.351 34.748,31.958 34.686 C 31.890 34.676,31.833 34.836,31.833 35.043 C 31.833 35.250,31.672 35.520,31.476 35.643 C 31.187 35.824,31.163 35.895,31.351 36.014 C 31.537 36.132,31.525 36.162,31.292 36.164 C 31.096 36.166,31.000 36.298,31.000 36.564 C 31.000 36.821,30.882 36.992,30.667 37.048 C 30.404 37.117,30.333 37.276,30.333 37.799 C 30.333 38.329,30.274 38.458,30.042 38.440 C 29.813 38.422,29.739 38.570,29.699 39.125 C 29.658 39.682,29.582 39.833,29.342 39.833 C 28.994 39.833,28.833 40.148,28.833 40.828 C 28.833 41.140,28.732 41.321,28.528 41.374 C 28.309 41.432,28.216 41.625,28.200 42.055 C 28.186 42.413,28.040 42.793,27.839 42.995 C 27.602 43.231,27.500 43.552,27.500 44.055 C 27.500 44.655,27.429 44.815,27.083 45.000 C 26.712 45.199,26.667 45.329,26.667 46.195 C 26.667 47.056,26.629 47.167,26.333 47.167 C 26.150 47.167,26.009 47.223,26.020 47.292 C 26.175 48.274,25.970 49.334,25.625 49.336 C 25.364 49.338,25.316 49.380,25.466 49.476 C 25.643 49.588,25.643 49.646,25.464 49.794 C 25.340 49.897,25.224 50.421,25.195 51.019 C 25.159 51.747,25.058 52.134,24.863 52.294 C 24.663 52.459,24.654 52.494,24.833 52.417 C 25.030 52.332,25.026 52.356,24.816 52.530 C 24.613 52.698,24.542 53.108,24.516 54.250 C 24.488 55.512,24.432 55.790,24.160 56.000 C 23.655 56.392,23.656 74.943,24.162 75.333 C 24.437 75.546,24.490 75.816,24.515 77.125 C 24.531 77.973,24.613 78.667,24.698 78.667 C 24.783 78.667,24.799 78.753,24.734 78.859 C 24.663 78.974,24.688 79.006,24.796 78.940 C 25.073 78.769,25.144 79.005,25.183 80.220 C 25.205 80.906,25.305 81.407,25.441 81.520 C 25.563 81.622,25.621 81.773,25.569 81.856 C 25.517 81.940,25.575 81.988,25.696 81.962 C 25.858 81.929,25.930 82.215,25.966 83.042 C 26.009 84.030,26.055 84.167,26.341 84.167 C 26.648 84.167,26.804 84.994,26.679 85.959 C 26.664 86.073,26.843 86.254,27.076 86.360 C 27.435 86.524,27.500 86.664,27.500 87.277 C 27.500 87.782,27.602 88.102,27.839 88.339 C 28.040 88.540,28.186 88.920,28.200 89.278 C 28.216 89.709,28.309 89.902,28.528 89.959 C 28.732 90.012,28.833 90.193,28.833 90.506 C 28.833 91.185,28.994 91.500,29.342 91.500 C 29.582 91.500,29.658 91.651,29.699 92.208 C 29.739 92.763,29.813 92.912,30.042 92.894 C 30.274 92.875,30.333 93.004,30.333 93.534 C 30.333 94.047,30.406 94.217,30.651 94.281 C 30.853 94.334,31.007 94.570,31.075 94.930 C 31.133 95.241,31.328 95.574,31.507 95.671 C 31.699 95.773,31.833 96.019,31.833 96.266 C 31.833 96.497,31.893 96.649,31.966 96.604 C 32.297 96.400,32.541 96.852,32.653 97.875 C 32.660 97.944,32.817 98.000,33.000 98.000 C 33.244 98.000,33.333 98.111,33.333 98.417 C 33.333 98.722,33.422 98.833,33.667 98.833 C 33.938 98.833,34.000 98.944,34.000 99.432 C 34.000 99.882,34.079 100.052,34.319 100.115 C 34.495 100.161,34.684 100.378,34.739 100.598 C 34.794 100.818,34.894 100.990,34.961 100.979 C 35.328 100.923,35.500 101.036,35.500 101.333 C 35.500 101.556,35.611 101.667,35.833 101.667 C 36.056 101.667,36.167 101.778,36.167 102.002 C 36.167 102.186,36.313 102.462,36.491 102.615 C 36.670 102.768,36.778 102.954,36.732 103.030 C 36.685 103.105,36.726 103.167,36.823 103.167 C 36.921 103.167,37.000 103.317,37.000 103.500 C 37.000 103.722,37.111 103.833,37.333 103.833 C 37.561 103.833,37.667 103.944,37.667 104.182 C 37.667 104.391,37.801 104.566,38.000 104.618 C 38.184 104.667,38.333 104.846,38.333 105.019 C 38.333 105.192,38.390 105.324,38.458 105.314 C 38.911 105.242,39.167 105.371,39.167 105.672 C 39.167 105.858,39.287 106.057,39.433 106.113 C 39.777 106.245,40.422 106.890,40.554 107.233 C 40.610 107.380,40.809 107.500,40.995 107.500 C 41.245 107.500,41.333 107.609,41.333 107.917 C 41.333 108.146,41.390 108.324,41.458 108.314 C 41.827 108.255,42.000 108.368,42.000 108.667 C 42.000 108.913,42.111 109.000,42.427 109.000 C 42.661 109.000,42.816 109.060,42.771 109.133 C 42.641 109.343,42.920 109.684,43.267 109.738 C 43.445 109.766,43.564 109.900,43.538 110.043 C 43.511 110.200,43.693 110.368,44.009 110.478 C 44.293 110.577,44.482 110.727,44.430 110.812 C 44.315 110.997,44.713 111.167,45.264 111.167 C 45.551 111.167,45.667 111.259,45.667 111.489 C 45.667 111.666,45.813 111.857,45.991 111.914 C 46.170 111.971,46.362 112.162,46.418 112.338 C 46.474 112.515,46.572 112.653,46.635 112.644 C 46.970 112.596,47.137 112.701,47.218 113.010 C 47.267 113.199,47.407 113.340,47.529 113.324 C 48.330 113.215,48.667 113.341,48.667 113.750 C 48.667 114.047,48.757 114.167,48.981 114.167 C 49.154 114.167,49.333 114.316,49.382 114.500 C 49.451 114.764,49.609 114.833,50.139 114.833 C 50.708 114.833,50.818 114.890,50.863 115.208 C 50.898 115.449,51.051 115.602,51.292 115.637 C 51.509 115.667,51.668 115.807,51.669 115.970 C 51.671 116.187,51.704 116.200,51.813 116.028 C 51.926 115.849,51.973 115.857,52.055 116.069 C 52.111 116.215,52.343 116.333,52.572 116.333 C 52.818 116.333,53.061 116.470,53.167 116.667 C 53.292 116.902,53.516 117.000,53.923 117.000 C 54.389 117.000,54.500 117.064,54.500 117.333 C 54.500 117.517,54.556 117.675,54.625 117.686 C 54.694 117.696,54.965 117.730,55.228 117.761 C 55.492 117.791,55.815 117.970,55.946 118.158 C 56.109 118.390,56.370 118.500,56.759 118.500 C 57.137 118.500,57.333 118.579,57.333 118.731 C 57.333 118.966,57.819 119.160,58.418 119.164 C 58.602 119.166,58.849 119.320,58.965 119.506 C 59.082 119.693,59.245 119.805,59.327 119.754 C 59.410 119.703,59.524 119.737,59.582 119.831 C 59.639 119.924,59.973 120.000,60.324 120.000 C 60.821 120.000,60.980 120.073,61.048 120.333 C 61.123 120.621,61.276 120.667,62.151 120.667 C 63.056 120.667,63.167 120.703,63.167 121.000 C 63.167 121.183,63.242 121.343,63.333 121.354 C 63.425 121.366,63.575 121.394,63.667 121.417 C 63.758 121.440,64.200 121.468,64.647 121.479 C 65.311 121.496,65.477 121.561,65.548 121.833 C 65.627 122.134,65.776 122.167,67.049 122.167 C 68.293 122.167,68.460 122.202,68.440 122.458 C 68.413 122.792,68.395 122.788,70.458 122.814 C 71.681 122.829,72.000 122.883,72.000 123.073 C 72.000 123.206,72.087 123.367,72.192 123.433 C 72.317 123.510,72.339 123.478,72.255 123.342 C 72.178 123.217,72.293 123.242,72.538 123.402 C 72.907 123.644,73.890 123.667,81.990 123.628 L 91.030 123.583 91.333 123.208 C 91.608 122.869,91.781 122.833,93.162 122.833 C 94.272 122.833,94.654 122.781,94.567 122.641 C 94.489 122.514,94.522 122.494,94.666 122.583 C 94.799 122.665,94.956 122.618,95.070 122.463 C 95.198 122.288,95.638 122.187,96.480 122.140 C 97.369 122.089,97.758 121.995,97.905 121.794 C 98.032 121.621,98.384 121.503,98.845 121.480 C 99.862 121.430,100.390 121.221,100.272 120.914 C 100.195 120.712,100.360 120.667,101.172 120.667 C 101.962 120.667,102.167 120.613,102.167 120.407 C 102.167 120.264,102.242 120.193,102.333 120.250 C 102.425 120.307,102.500 120.274,102.500 120.177 C 102.500 120.079,102.719 120.000,102.986 120.000 C 103.690 120.000,104.000 119.841,104.000 119.482 C 104.000 119.220,104.125 119.167,104.736 119.167 C 105.631 119.167,106.000 119.040,106.000 118.732 C 106.000 118.573,106.207 118.500,106.657 118.500 C 107.018 118.500,107.367 118.413,107.433 118.308 C 107.511 118.181,107.471 118.157,107.317 118.237 C 107.189 118.303,107.229 118.240,107.407 118.096 C 107.585 117.951,107.866 117.833,108.032 117.833 C 108.198 117.833,108.333 117.767,108.333 117.685 C 108.333 117.604,108.465 117.547,108.625 117.560 C 108.808 117.575,108.908 117.475,108.894 117.292 C 108.876 117.076,108.996 117.000,109.352 117.000 C 109.617 117.000,109.983 116.850,110.167 116.667 C 110.350 116.483,110.657 116.333,110.849 116.333 C 111.058 116.333,111.233 116.199,111.285 116.000 C 111.363 115.703,111.641 115.578,112.059 115.653 C 112.137 115.667,112.377 115.488,112.593 115.256 C 112.808 115.023,113.069 114.833,113.174 114.833 C 113.278 114.833,113.488 114.686,113.640 114.506 C 113.792 114.325,114.141 114.150,114.416 114.117 C 114.775 114.073,114.915 113.966,114.916 113.736 C 114.916 113.532,115.052 113.397,115.292 113.363 C 115.533 113.329,115.667 113.195,115.667 112.988 C 115.667 112.759,115.783 112.667,116.070 112.667 C 116.564 112.667,117.021 112.503,116.933 112.358 C 116.854 112.226,117.374 111.724,117.496 111.814 C 117.544 111.850,117.657 111.719,117.748 111.523 C 117.838 111.327,118.036 111.167,118.187 111.167 C 118.338 111.167,118.500 111.017,118.548 110.833 C 118.600 110.634,118.776 110.500,118.984 110.500 C 119.222 110.500,119.333 110.394,119.333 110.167 C 119.333 109.942,119.444 109.833,119.674 109.833 C 119.862 109.833,120.203 109.646,120.432 109.417 C 120.661 109.188,120.907 109.000,120.978 109.000 C 121.048 109.000,121.270 108.813,121.469 108.583 C 121.668 108.354,121.907 108.167,121.999 108.167 C 122.091 108.167,122.167 108.029,122.167 107.860 C 122.167 107.691,122.354 107.468,122.583 107.364 C 122.813 107.259,123.000 107.060,123.000 106.920 C 123.000 106.781,123.056 106.676,123.125 106.686 C 123.494 106.745,123.667 106.632,123.667 106.333 C 123.667 106.111,123.778 106.000,124.000 106.000 C 124.215 106.000,124.333 105.889,124.333 105.686 C 124.333 105.513,124.482 105.333,124.665 105.286 C 124.847 105.238,125.064 105.020,125.147 104.801 C 125.231 104.582,125.419 104.303,125.566 104.181 C 125.713 104.059,125.833 103.781,125.833 103.563 C 125.833 103.272,125.926 103.167,126.182 103.167 C 126.391 103.167,126.566 103.033,126.618 102.833 C 126.695 102.541,126.850 102.439,127.174 102.469 C 127.223 102.473,127.276 102.314,127.291 102.116 C 127.306 101.917,127.401 101.727,127.502 101.694 C 127.603 101.660,127.757 101.547,127.845 101.441 C 127.933 101.336,128.192 101.040,128.419 100.783 C 128.647 100.526,128.833 100.133,128.833 99.908 C 128.833 99.611,128.924 99.500,129.167 99.500 C 129.413 99.500,129.500 99.389,129.500 99.073 C 129.500 98.832,129.572 98.692,129.667 98.750 C 129.758 98.807,129.833 98.769,129.833 98.667 C 129.833 98.564,129.907 98.526,129.997 98.581 C 130.088 98.638,130.208 98.385,130.268 98.008 C 130.336 97.586,130.465 97.333,130.613 97.333 C 130.744 97.333,130.929 97.108,131.025 96.834 C 131.121 96.559,131.267 96.376,131.351 96.427 C 131.507 96.524,131.571 96.394,131.734 95.645 C 131.789 95.394,131.975 95.168,132.170 95.118 C 132.357 95.069,132.499 94.966,132.485 94.889 C 132.368 94.224,132.527 93.667,132.833 93.667 C 133.118 93.667,133.167 93.556,133.167 92.907 C 133.167 92.421,133.230 92.186,133.341 92.255 C 133.642 92.441,134.000 91.981,134.000 91.407 C 134.000 91.004,134.089 90.828,134.330 90.751 C 134.511 90.693,134.653 90.595,134.644 90.532 C 134.553 89.893,134.705 89.362,135.000 89.285 C 135.272 89.214,135.333 89.058,135.333 88.432 C 135.333 87.871,135.398 87.667,135.577 87.667 C 135.924 87.667,136.167 87.131,136.167 86.364 C 136.167 85.851,136.239 85.687,136.492 85.621 C 136.763 85.549,136.825 85.363,136.867 84.476 C 136.894 83.893,136.979 83.454,137.055 83.500 C 137.290 83.641,137.612 82.837,137.643 82.034 C 137.659 81.614,137.789 81.142,137.932 80.983 C 138.258 80.623,138.305 80.371,138.321 78.894 C 138.332 77.874,138.378 77.694,138.649 77.623 C 138.926 77.550,139.232 73.231,138.966 73.152 C 138.939 73.144,138.279 73.078,137.500 73.004 C 136.721 72.931,135.638 72.712,135.094 72.517 C 133.714 72.023,134.319 71.526,125.227 80.633 C 117.039 88.834,116.969 88.910,117.061 89.481 C 117.113 89.797,117.251 90.116,117.369 90.189 C 117.718 90.405,117.669 95.199,117.314 95.608 C 117.166 95.778,116.998 96.113,116.941 96.353 C 116.788 97.002,114.655 99.090,113.889 99.341 C 113.538 99.456,113.066 99.670,112.841 99.817 C 112.525 100.022,111.988 100.083,110.500 100.083 C 109.012 100.083,108.475 100.022,108.159 99.817 C 107.934 99.670,107.475 99.461,107.140 99.351 C 106.804 99.241,106.488 99.042,106.437 98.909 C 106.386 98.776,106.255 98.667,106.145 98.667 C 105.875 98.667,104.523 97.201,104.223 96.583 C 104.089 96.308,103.873 95.896,103.742 95.667 C 103.612 95.438,103.503 95.025,103.502 94.750 C 103.500 94.475,103.419 93.964,103.322 93.614 C 103.104 92.829,103.523 90.101,103.931 89.650 C 104.109 89.454,104.148 89.271,104.049 89.094 C 103.636 88.355,88.628 73.214,87.473 72.371 C 87.143 72.130,85.879 72.364,85.220 72.789 C 84.401 73.317,80.494 72.756,79.554 71.975 C 79.373 71.826,79.255 71.853,79.019 72.100 C 78.853 72.274,78.443 72.662,78.108 72.962 C 77.774 73.263,77.500 73.576,77.500 73.659 C 77.500 73.743,77.350 73.858,77.167 73.917 C 76.983 73.975,76.833 74.084,76.833 74.159 C 76.833 74.318,73.679 77.500,73.521 77.500 C 73.462 77.500,73.320 77.650,73.205 77.833 C 73.091 78.017,72.918 78.167,72.822 78.167 C 72.725 78.167,72.125 78.692,71.489 79.333 C 70.852 79.975,70.388 80.500,70.457 80.499 C 70.527 80.499,70.937 80.142,71.369 79.707 C 72.785 78.284,72.755 78.295,73.102 79.042 C 73.240 79.340,73.460 79.771,73.591 80.000 C 73.722 80.229,73.830 80.667,73.831 80.974 C 73.832 81.280,73.983 81.721,74.167 81.955 C 74.350 82.188,74.500 82.613,74.500 82.900 C 74.500 83.187,74.649 83.699,74.830 84.038 C 75.012 84.377,75.208 84.976,75.267 85.369 C 75.325 85.762,75.479 86.254,75.609 86.462 C 75.740 86.671,75.925 87.271,76.021 87.796 C 76.117 88.320,76.293 88.862,76.411 89.000 C 76.529 89.138,76.661 89.636,76.703 90.107 C 76.751 90.638,76.918 91.138,77.140 91.421 C 77.362 91.703,77.500 92.116,77.500 92.497 C 77.500 92.876,77.629 93.264,77.833 93.500 C 78.045 93.744,78.167 94.124,78.167 94.541 C 78.167 94.927,78.302 95.388,78.494 95.658 C 78.674 95.911,78.873 96.448,78.936 96.851 C 78.999 97.254,79.189 97.845,79.359 98.164 C 79.528 98.484,79.667 98.973,79.667 99.252 C 79.667 99.531,79.783 99.925,79.925 100.128 C 80.067 100.331,80.238 100.817,80.304 101.207 L 80.425 101.917 81.430 101.965 C 82.660 102.025,82.984 101.751,83.185 100.480 C 83.259 100.009,83.425 99.503,83.554 99.354 C 83.683 99.205,83.835 98.721,83.893 98.278 C 83.950 97.835,84.148 97.281,84.332 97.047 C 84.539 96.784,84.667 96.370,84.667 95.962 C 84.667 95.555,84.794 95.140,85.000 94.879 C 85.201 94.623,85.333 94.203,85.333 93.820 C 85.333 93.462,85.515 92.842,85.750 92.401 C 85.979 91.970,86.167 91.403,86.167 91.141 C 86.167 90.880,86.317 90.386,86.500 90.044 C 86.683 89.701,86.834 89.195,86.834 88.919 C 86.834 88.643,86.973 88.189,87.143 87.911 C 87.313 87.633,87.502 87.069,87.563 86.658 C 87.625 86.248,87.823 85.688,88.003 85.414 C 88.188 85.134,88.332 84.632,88.332 84.263 C 88.333 83.891,88.452 83.479,88.608 83.306 C 88.759 83.139,88.944 82.617,89.018 82.147 C 89.092 81.676,89.259 81.169,89.388 81.021 C 89.516 80.872,89.670 80.378,89.729 79.923 C 89.911 78.527,90.621 77.940,91.981 78.063 C 93.302 78.181,93.405 78.250,95.588 80.455 C 99.098 83.999,99.055 83.801,96.344 83.869 L 94.443 83.917 94.141 84.417 C 93.677 85.183,93.500 85.649,93.500 86.101 C 93.500 86.328,93.361 86.792,93.190 87.132 C 93.020 87.472,92.830 88.079,92.768 88.481 C 92.706 88.883,92.508 89.399,92.328 89.628 C 92.127 89.883,92.000 90.301,92.000 90.705 C 92.000 91.112,91.872 91.526,91.667 91.788 C 91.469 92.040,91.333 92.464,91.333 92.833 C 91.333 93.184,91.199 93.628,91.025 93.853 C 90.855 94.071,90.662 94.662,90.597 95.166 C 90.531 95.670,90.371 96.200,90.240 96.345 C 90.109 96.489,89.954 96.977,89.896 97.429 C 89.838 97.880,89.650 98.484,89.479 98.770 C 89.307 99.055,89.167 99.506,89.167 99.771 C 89.167 100.036,88.983 100.597,88.759 101.019 C 88.270 101.937,88.404 102.167,89.429 102.167 C 89.812 102.167,90.453 102.284,90.854 102.428 C 91.268 102.576,92.560 102.748,93.845 102.825 C 95.268 102.910,96.288 103.052,96.595 103.208 C 96.864 103.345,97.629 103.494,98.296 103.540 C 99.087 103.594,99.613 103.717,99.809 103.895 C 99.974 104.044,100.292 104.167,100.514 104.167 C 101.121 104.167,101.967 104.443,102.262 104.738 C 102.406 104.882,102.710 105.000,102.937 105.000 C 103.185 105.000,103.595 105.238,103.965 105.598 L 104.580 106.195 103.959 106.764 C 103.618 107.077,103.161 107.333,102.945 107.333 C 102.728 107.333,102.378 107.483,102.167 107.667 C 101.921 107.880,101.543 108.000,101.119 108.000 C 100.741 108.000,100.218 108.147,99.902 108.342 C 99.539 108.567,98.930 108.718,98.132 108.782 C 97.464 108.836,96.692 108.993,96.417 109.132 C 96.102 109.291,95.148 109.428,93.834 109.503 C 92.688 109.568,91.487 109.725,91.167 109.852 C 90.210 110.231,73.032 110.188,72.000 109.804 C 71.505 109.620,70.570 109.504,69.250 109.462 C 67.796 109.416,67.136 109.327,66.833 109.134 C 66.604 108.989,65.892 108.833,65.250 108.787 C 64.579 108.739,63.764 108.556,63.333 108.356 C 62.921 108.164,62.381 108.006,62.134 108.004 C 61.887 108.002,61.332 107.813,60.901 107.583 C 60.470 107.354,59.993 107.167,59.841 107.167 C 59.690 107.167,59.321 106.914,59.022 106.606 L 58.478 106.045 59.189 105.522 C 59.579 105.235,60.015 105.000,60.158 104.999 C 60.300 104.999,60.666 104.847,60.970 104.661 C 61.275 104.476,61.875 104.277,62.304 104.220 C 62.732 104.162,63.345 103.977,63.664 103.808 C 64.037 103.610,64.593 103.500,65.214 103.500 C 65.796 103.500,66.396 103.389,66.717 103.221 C 67.093 103.025,67.914 102.907,69.500 102.821 C 70.857 102.748,72.040 102.594,72.479 102.434 C 72.880 102.287,73.392 102.167,73.615 102.167 C 74.353 102.167,74.678 101.884,74.495 101.403 C 74.406 101.169,74.333 100.795,74.333 100.572 C 74.333 100.348,74.183 99.886,74.000 99.544 C 73.817 99.201,73.667 98.714,73.667 98.460 C 73.667 98.206,73.517 97.719,73.333 97.377 C 73.150 97.035,73.000 96.563,73.000 96.329 C 73.000 96.095,72.856 95.621,72.680 95.276 C 72.503 94.930,72.309 94.333,72.247 93.949 C 72.186 93.564,71.992 93.002,71.818 92.699 C 71.640 92.391,71.500 91.832,71.500 91.433 C 71.500 90.930,71.401 90.629,71.167 90.417 C 70.934 90.206,70.833 89.903,70.833 89.413 C 70.833 88.950,70.713 88.558,70.478 88.260 C 70.280 88.008,70.086 87.465,70.040 87.029 C 69.995 86.601,69.848 86.125,69.715 85.971 C 69.581 85.818,69.430 85.368,69.380 84.971 C 69.267 84.079,69.082 83.834,68.521 83.831 C 67.863 83.827,67.588 83.606,67.909 83.340 C 68.051 83.222,68.167 83.031,68.167 82.914 C 68.167 82.798,68.274 82.661,68.406 82.611 C 68.537 82.560,68.736 82.346,68.847 82.134 C 68.958 81.923,68.644 82.189,68.150 82.725 C 67.655 83.261,66.931 84.041,66.542 84.458 C 66.152 84.874,65.833 85.274,65.833 85.346 C 65.833 85.418,65.683 85.525,65.500 85.583 C 65.317 85.642,65.167 85.759,65.167 85.843 C 65.167 86.023,62.674 88.500,62.494 88.500 C 62.175 88.500,62.210 89.457,62.551 90.083 C 63.034 90.969,63.103 94.920,62.645 95.441 C 62.495 95.611,62.316 95.938,62.247 96.167 C 62.049 96.820,60.877 98.217,60.081 98.748 C 56.247 101.301,51.467 100.210,49.292 96.285 C 48.385 94.648,48.320 90.789,49.181 89.694 C 49.356 89.471,49.500 89.216,49.500 89.127 C 49.500 88.691,51.221 86.918,51.916 86.638 C 52.191 86.527,52.459 86.375,52.510 86.301 C 53.133 85.402,57.669 85.425,59.111 86.335 C 59.448 86.548,59.540 86.495,60.448 85.573 C 60.984 85.029,61.822 84.251,62.311 83.846 C 63.352 82.981,64.188 82.165,64.029 82.169 C 63.967 82.171,63.558 82.509,63.120 82.919 C 62.248 83.738,61.275 83.927,60.593 83.411 C 60.415 83.277,60.040 83.164,59.760 83.161 C 58.764 83.151,56.167 81.030,56.167 80.227 C 56.167 80.018,55.998 79.689,55.792 79.497 L 55.417 79.148 55.370 69.949 C 55.318 59.673,55.345 60.081,54.710 59.922 C 54.457 59.858,54.116 59.662,53.952 59.486 C 53.788 59.311,53.483 59.167,53.274 59.167 C 53.064 59.167,52.735 58.998,52.542 58.792 C 52.348 58.585,52.091 58.332,51.970 58.228 C 51.184 57.552,50.333 56.450,50.333 56.107 C 50.333 55.890,50.183 55.521,50.000 55.288 C 49.717 54.928,49.667 54.612,49.667 53.181 C 49.667 51.817,49.730 51.381,50.000 50.877 C 50.183 50.535,50.333 50.153,50.333 50.029 C 50.333 49.660,50.956 48.922,53.417 46.375 C 57.644 42.000,76.955 22.734,77.441 22.408 C 79.385 21.100,82.835 20.619,83.955 21.500 C 84.188 21.683,84.543 21.833,84.745 21.833 C 85.141 21.833,111.834 48.344,112.708 49.606 C 112.978 49.996,113.167 50.490,113.167 50.809 C 113.167 51.106,113.285 51.580,113.431 51.860 C 113.811 52.596,113.541 55.063,112.977 56.000 C 112.894 56.137,112.710 56.512,112.567 56.833 C 112.293 57.448,110.750 59.000,110.412 59.000 C 110.302 59.000,109.946 59.182,109.619 59.404 C 109.292 59.625,108.850 59.832,108.637 59.862 L 108.250 59.917 108.167 69.167 C 108.091 77.567,108.057 78.463,107.793 78.917 C 107.633 79.192,107.424 79.604,107.328 79.833 C 106.839 81.006,105.504 82.500,104.946 82.500 C 104.850 82.500,104.603 82.658,104.398 82.851 C 104.105 83.126,103.931 83.171,103.597 83.060 C 103.160 82.913,99.333 79.266,99.333 78.995 C 99.333 78.913,99.186 78.766,99.006 78.670 C 98.212 78.245,98.808 78.012,100.808 77.963 L 102.750 77.917 102.793 66.516 C 102.823 58.431,102.890 55.050,103.022 54.891 C 103.164 54.719,103.891 54.666,106.145 54.664 C 109.730 54.662,109.883 54.633,109.568 54.027 C 109.341 53.589,109.052 53.279,106.750 51.003 C 106.108 50.369,100.297 44.559,93.836 38.092 C 85.286 29.533,81.987 26.333,81.716 26.333 C 81.282 26.333,53.439 54.066,53.547 54.391 C 53.591 54.525,54.676 54.609,57.097 54.667 L 60.583 54.750 60.667 66.333 L 60.750 77.917 64.000 78.000 C 67.401 78.087,67.949 78.187,67.346 78.610 C 67.156 78.743,67.000 78.931,67.000 79.027 C 67.000 79.123,66.813 79.350,66.583 79.530 C 66.354 79.710,66.167 79.925,66.167 80.007 C 66.167 80.088,66.410 79.908,66.708 79.604 C 67.400 78.900,68.500 77.658,68.500 77.580 C 68.500 77.547,70.317 75.708,72.538 73.493 C 77.073 68.970,76.893 69.269,76.268 67.314 C 75.454 64.768,77.266 60.239,79.366 59.573 C 79.531 59.520,79.667 59.413,79.667 59.335 C 79.667 59.257,79.948 59.105,80.292 58.999 C 80.635 58.892,81.153 58.699,81.442 58.569 C 82.145 58.254,84.804 58.249,85.255 58.562 C 85.435 58.688,85.843 58.847,86.161 58.917 C 87.283 59.161,89.975 61.735,90.006 62.592 C 90.009 62.679,90.156 63.050,90.333 63.417 C 90.802 64.387,90.802 67.002,90.333 67.877 C 89.503 69.427,89.349 69.240,100.975 80.856 C 106.250 86.127,106.861 86.656,107.274 86.313 C 108.413 85.368,112.788 85.396,113.943 86.356 C 114.241 86.603,113.518 87.286,123.027 77.781 C 131.642 69.170,131.585 69.238,130.875 68.454 C 130.625 68.178,130.583 67.780,130.583 65.667 C 130.583 63.553,130.625 63.156,130.875 62.879 C 131.035 62.702,131.167 62.461,131.167 62.343 C 131.167 61.521,133.707 59.205,134.952 58.893 C 135.195 58.832,135.587 58.681,135.822 58.559 C 136.058 58.436,136.724 58.335,137.303 58.334 C 139.021 58.333,139.019 58.335,138.989 55.887 C 138.967 54.034,138.930 53.784,138.668 53.715 C 138.420 53.651,138.361 53.399,138.302 52.160 C 138.250 51.079,138.155 50.597,137.949 50.369 C 137.761 50.161,137.667 49.772,137.667 49.199 C 137.667 48.468,137.605 48.301,137.250 48.068 C 136.882 47.827,136.833 47.678,136.833 46.799 C 136.833 45.942,136.786 45.790,136.500 45.715 C 136.230 45.644,136.167 45.488,136.167 44.890 C 136.167 44.325,136.069 44.054,135.750 43.735 C 135.446 43.431,135.333 43.140,135.333 42.659 C 135.333 42.111,135.277 42.000,135.000 42.000 C 134.741 42.000,134.667 41.889,134.667 41.500 C 134.667 41.217,134.517 40.851,134.322 40.655 C 134.132 40.466,133.971 40.090,133.963 39.821 C 133.948 39.294,133.622 38.905,133.341 39.079 C 133.230 39.147,133.167 38.933,133.167 38.494 C 133.167 37.942,133.099 37.784,132.833 37.715 C 132.533 37.637,132.376 37.063,132.485 36.444 C 132.499 36.367,132.364 36.267,132.186 36.220 C 131.898 36.145,131.563 35.469,131.641 35.120 C 131.657 35.049,131.551 34.945,131.405 34.889 C 131.260 34.834,131.074 34.611,130.991 34.394 C 130.909 34.177,130.727 34.000,130.587 34.000 C 130.448 34.000,130.324 33.887,130.313 33.750 C 130.292 33.504,130.248 33.289,130.168 33.042 C 130.145 32.973,130.138 32.855,130.151 32.779 C 130.164 32.704,130.098 32.689,130.004 32.747 C 129.910 32.806,129.833 32.769,129.833 32.667 C 129.833 32.564,129.758 32.527,129.667 32.583 C 129.572 32.642,129.500 32.502,129.500 32.260 C 129.500 31.944,129.413 31.833,129.167 31.833 C 128.922 31.833,128.833 31.722,128.833 31.417 C 128.833 31.187,128.683 30.850,128.500 30.667 C 128.317 30.483,128.167 30.269,128.167 30.190 C 128.167 30.111,127.979 29.906,127.750 29.734 C 127.521 29.562,127.333 29.289,127.333 29.127 C 127.333 28.966,127.277 28.842,127.208 28.853 C 126.870 28.907,126.698 28.804,126.618 28.500 C 126.566 28.301,126.391 28.167,126.182 28.167 C 125.926 28.167,125.833 28.061,125.833 27.770 C 125.833 27.552,125.713 27.274,125.566 27.152 C 125.419 27.030,125.231 26.751,125.147 26.532 C 125.064 26.314,124.847 26.095,124.665 26.048 C 124.482 26.000,124.333 25.820,124.333 25.647 C 124.333 25.448,124.216 25.333,124.012 25.333 C 123.805 25.333,123.671 25.199,123.637 24.958 C 123.603 24.721,123.476 24.592,123.292 24.606 C 123.026 24.628,122.976 24.558,123.012 24.217 C 123.019 24.152,122.867 24.042,122.675 23.971 C 122.483 23.899,122.257 23.671,122.173 23.462 C 122.090 23.254,122.016 23.154,122.011 23.240 C 122.005 23.327,121.802 23.158,121.559 22.865 C 121.317 22.573,121.058 22.333,120.983 22.333 C 120.909 22.333,120.661 22.146,120.432 21.917 C 120.203 21.688,119.862 21.500,119.674 21.500 C 119.444 21.500,119.333 21.391,119.333 21.167 C 119.333 20.939,119.222 20.833,118.984 20.833 C 118.776 20.833,118.600 20.699,118.548 20.500 C 118.500 20.317,118.338 20.167,118.187 20.167 C 118.036 20.167,117.838 19.998,117.748 19.792 C 117.657 19.585,117.546 19.451,117.500 19.492 C 117.367 19.613,116.675 18.955,116.771 18.799 C 116.819 18.722,116.796 18.669,116.721 18.682 C 116.133 18.784,115.667 18.638,115.667 18.351 C 115.667 18.153,115.510 17.997,115.244 17.930 C 114.976 17.863,114.838 17.725,114.869 17.554 C 114.902 17.365,114.767 17.265,114.417 17.220 C 114.142 17.184,113.792 17.008,113.640 16.828 C 113.488 16.647,113.249 16.500,113.110 16.500 C 112.970 16.500,112.808 16.350,112.750 16.167 C 112.692 15.983,112.556 15.822,112.447 15.808 C 112.339 15.794,112.175 15.765,112.083 15.744 C 111.992 15.723,111.794 15.696,111.644 15.686 C 111.495 15.675,111.333 15.517,111.285 15.333 C 111.233 15.134,111.058 15.000,110.849 15.000 C 110.657 15.000,110.350 14.850,110.167 14.667 C 109.983 14.483,109.611 14.333,109.339 14.333 C 108.971 14.333,108.868 14.270,108.938 14.087 C 109.036 13.831,108.651 13.609,107.792 13.425 C 107.540 13.371,107.333 13.216,107.333 13.080 C 107.333 12.903,107.144 12.833,106.667 12.833 C 106.221 12.833,106.000 12.759,106.000 12.610 C 106.000 12.315,105.285 12.000,104.616 12.000 C 104.261 12.000,104.010 11.888,103.872 11.667 C 103.733 11.444,103.483 11.333,103.119 11.333 C 102.765 11.333,102.489 11.216,102.333 11.000 C 102.145 10.739,101.902 10.667,101.213 10.667 C 100.536 10.667,100.333 10.608,100.333 10.413 C 100.333 10.097,99.810 9.901,98.845 9.853 C 98.384 9.830,98.032 9.713,97.905 9.540 C 97.758 9.338,97.369 9.244,96.477 9.194 C 95.520 9.140,95.204 9.056,95.033 8.812 C 94.846 8.545,94.590 8.500,93.249 8.500 C 91.815 8.500,91.647 8.465,91.239 8.088 L 90.794 7.675 81.593 7.675 C 74.768 7.675,72.341 7.726,72.196 7.871 M73.732 55.764 C 73.933 56.287,73.845 62.589,73.633 62.800 C 73.233 63.200,67.069 63.069,66.652 62.652 C 66.287 62.287,66.200 56.252,66.552 55.708 C 66.776 55.361,73.598 55.414,73.732 55.764 M136.306 62.066 C 135.653 62.299,134.747 62.950,134.600 63.291 C 134.551 63.406,134.884 63.204,135.341 62.843 C 137.530 61.113,140.403 62.104,141.354 64.917 C 141.450 65.200,141.469 65.206,141.483 64.956 C 141.591 63.042,138.463 61.296,136.306 62.066 M314.250 62.532 C 314.067 62.636,313.857 62.821,313.783 62.944 C 313.702 63.080,313.342 63.167,312.858 63.167 C 312.423 63.167,311.966 63.260,311.842 63.375 C 311.660 63.544,311.640 63.536,311.733 63.333 C 311.797 63.196,311.724 63.252,311.571 63.458 C 311.366 63.735,311.123 63.833,310.646 63.833 C 310.291 63.833,309.991 63.908,309.979 64.000 C 309.968 64.092,309.949 64.260,309.938 64.375 C 309.925 64.497,309.622 64.605,309.208 64.635 C 308.644 64.675,308.500 64.750,308.500 64.999 C 308.500 65.231,308.359 65.326,307.958 65.364 C 307.616 65.397,307.433 65.498,307.462 65.637 C 307.488 65.759,307.431 65.810,307.336 65.752 C 307.242 65.693,307.119 65.762,307.065 65.905 C 307.010 66.048,306.897 66.123,306.815 66.072 C 306.641 65.964,306.167 66.391,306.167 66.655 C 306.167 66.753,306.017 66.833,305.833 66.833 C 305.611 66.833,305.500 66.944,305.500 67.167 C 305.500 67.389,305.389 67.500,305.167 67.500 C 304.951 67.500,304.833 67.611,304.833 67.814 C 304.833 67.991,304.683 68.167,304.488 68.218 C 304.297 68.268,304.103 68.457,304.056 68.639 C 304.008 68.821,303.826 69.007,303.651 69.052 C 303.476 69.098,303.333 69.255,303.333 69.401 C 303.333 69.640,303.141 69.742,302.792 69.686 C 302.723 69.676,302.667 69.854,302.667 70.083 C 302.667 70.456,302.583 70.533,302.227 70.486 C 302.038 70.461,301.839 70.905,301.836 71.356 C 301.834 71.653,301.726 71.823,301.500 71.882 C 301.304 71.933,301.167 72.109,301.167 72.309 C 301.167 72.496,300.979 72.852,300.750 73.099 C 300.455 73.417,300.333 73.737,300.333 74.191 C 300.333 74.722,300.276 74.833,300.000 74.833 C 299.719 74.833,299.667 74.944,299.667 75.543 C 299.667 76.068,299.581 76.306,299.339 76.458 C 299.057 76.634,299.006 76.883,298.964 78.289 C 298.929 79.480,298.859 79.917,298.702 79.917 C 298.272 79.917,298.200 80.444,298.187 83.690 C 298.174 87.058,298.297 87.947,298.752 87.772 C 298.959 87.693,299.000 87.897,299.000 88.992 C 299.000 90.450,299.090 90.833,299.434 90.833 C 299.608 90.833,299.667 91.092,299.667 91.849 C 299.667 92.724,299.713 92.877,300.000 92.952 C 300.247 93.016,300.333 93.179,300.333 93.582 C 300.333 94.149,300.693 94.607,300.993 94.421 C 301.139 94.331,301.268 95.189,301.186 95.708 C 301.176 95.777,301.223 95.824,301.292 95.814 C 301.678 95.753,301.833 95.878,301.833 96.250 C 301.833 96.581,301.917 96.667,302.240 96.667 C 302.589 96.667,302.654 96.754,302.698 97.292 C 302.727 97.635,302.837 97.917,302.944 97.917 C 303.220 97.917,303.412 98.143,303.415 98.470 C 303.416 98.624,303.529 98.750,303.667 98.750 C 303.804 98.750,303.957 98.900,304.007 99.083 C 304.056 99.267,304.263 99.441,304.465 99.470 C 304.668 99.499,304.833 99.592,304.833 99.675 C 304.833 99.891,305.936 101.000,306.151 101.000 C 306.249 101.000,306.482 101.131,306.668 101.292 C 306.855 101.452,307.175 101.624,307.379 101.674 C 307.583 101.724,307.759 101.855,307.771 101.966 C 307.821 102.446,307.840 102.499,307.958 102.480 C 308.586 102.381,309.137 102.536,309.215 102.833 C 309.284 103.096,309.442 103.167,309.966 103.167 C 310.536 103.167,310.645 103.226,310.735 103.583 C 310.824 103.938,310.936 104.000,311.485 104.000 C 311.917 104.000,312.164 104.086,312.231 104.261 C 312.286 104.404,312.407 104.474,312.499 104.417 C 312.591 104.360,312.667 104.382,312.667 104.465 C 312.667 104.548,313.206 104.632,313.866 104.651 C 314.900 104.681,316.136 104.973,315.333 104.997 C 315.116 105.004,315.115 105.025,315.327 105.159 C 315.893 105.517,324.187 105.374,324.284 105.005 C 324.363 104.700,326.087 104.481,327.056 104.652 C 327.133 104.665,327.235 104.524,327.284 104.338 C 327.351 104.081,327.510 104.000,327.947 104.000 C 328.575 104.000,329.174 103.746,329.383 103.392 C 329.457 103.268,329.742 103.167,330.018 103.167 C 330.294 103.167,330.477 103.097,330.424 103.012 C 330.371 102.926,330.404 102.809,330.497 102.752 C 330.590 102.694,330.667 102.741,330.667 102.855 C 330.667 102.990,330.740 102.969,330.875 102.796 C 330.990 102.649,331.233 102.502,331.417 102.471 C 331.612 102.437,331.772 102.258,331.803 102.040 C 331.846 101.738,331.963 101.667,332.418 101.667 C 332.727 101.667,333.034 101.580,333.099 101.474 C 333.177 101.348,333.138 101.324,332.984 101.404 C 332.855 101.471,332.927 101.370,333.143 101.179 C 333.360 100.989,333.646 100.833,333.778 100.833 C 333.911 100.833,333.974 100.759,333.917 100.667 C 333.861 100.576,334.006 100.414,334.241 100.307 C 334.475 100.201,334.667 99.975,334.667 99.807 C 334.667 99.611,334.787 99.500,335.000 99.500 C 335.222 99.500,335.333 99.389,335.333 99.167 C 335.333 98.983,335.403 98.833,335.488 98.833 C 335.573 98.833,335.751 98.725,335.883 98.593 C 336.186 98.290,336.291 95.167,335.998 95.167 C 335.897 95.167,335.858 95.094,335.913 95.005 C 335.968 94.917,335.860 94.749,335.673 94.632 C 335.486 94.515,335.333 94.288,335.333 94.127 C 335.333 93.944,335.207 93.833,335.000 93.833 C 334.699 93.833,334.641 93.751,334.679 93.382 C 334.706 93.119,333.979 93.023,331.875 93.012 L 329.667 93.000 329.667 93.417 C 329.667 93.768,329.589 93.833,329.168 93.833 C 328.850 93.833,328.594 93.954,328.461 94.167 C 328.347 94.350,328.084 94.500,327.877 94.500 C 327.611 94.500,327.500 94.598,327.500 94.833 C 327.500 95.059,327.389 95.167,327.156 95.167 C 326.671 95.167,326.167 95.467,326.167 95.756 C 326.167 95.923,325.986 96.000,325.593 96.000 C 325.214 96.000,324.942 96.110,324.792 96.324 C 324.626 96.562,324.338 96.658,323.706 96.686 C 323.156 96.712,322.814 96.809,322.758 96.957 C 322.709 97.084,322.593 97.141,322.501 97.084 C 322.409 97.027,322.333 97.060,322.333 97.157 C 322.333 97.527,317.548 97.381,317.167 97.000 C 316.914 96.747,316.611 96.667,315.917 96.667 C 315.111 96.667,315.000 96.626,315.000 96.333 C 315.000 96.050,314.889 96.000,314.262 96.000 C 313.627 96.000,313.516 95.948,313.470 95.632 C 313.438 95.409,313.265 95.228,313.032 95.173 C 312.820 95.124,312.662 95.008,312.680 94.917 C 312.698 94.825,312.557 94.678,312.366 94.590 C 312.176 94.502,311.983 94.286,311.937 94.110 C 311.883 93.902,311.762 93.825,311.593 93.890 C 311.431 93.952,311.333 93.898,311.333 93.745 C 311.333 93.610,311.254 93.500,311.157 93.500 C 311.060 93.500,311.027 93.425,311.083 93.333 C 311.140 93.242,311.109 93.167,311.015 93.167 C 310.921 93.167,310.736 92.960,310.604 92.708 C 310.472 92.456,310.319 92.269,310.265 92.292 C 309.998 92.405,309.852 92.299,309.803 91.958 C 309.774 91.752,309.637 91.583,309.500 91.583 C 309.341 91.583,309.220 91.370,309.167 91.000 C 309.110 90.604,308.963 90.364,308.708 90.252 C 308.424 90.127,308.333 89.949,308.333 89.513 C 308.333 89.173,308.201 88.797,308.010 88.594 C 307.760 88.328,307.679 87.975,307.651 87.042 C 307.632 86.377,307.544 85.833,307.457 85.833 C 307.369 85.833,307.340 85.723,307.392 85.589 C 307.506 85.289,307.230 85.080,307.108 85.374 C 307.059 85.489,307.034 84.758,307.052 83.750 C 307.076 82.329,307.133 81.927,307.304 81.962 C 307.425 81.988,307.477 81.931,307.419 81.837 C 307.361 81.744,307.385 81.667,307.472 81.667 C 307.559 81.667,307.626 81.573,307.622 81.458 C 307.560 79.794,307.682 79.000,308.000 79.000 C 308.284 79.000,308.333 78.889,308.333 78.245 C 308.333 77.738,308.413 77.459,308.575 77.397 C 308.708 77.346,308.900 77.052,309.002 76.743 C 309.104 76.435,309.317 76.142,309.475 76.091 C 309.655 76.034,309.778 75.801,309.803 75.467 C 309.850 74.849,309.868 74.823,310.276 74.763 C 310.445 74.738,310.593 74.632,310.604 74.526 C 310.616 74.420,310.634 74.258,310.646 74.167 C 310.657 74.075,310.786 74.000,310.932 74.000 C 311.078 74.000,311.235 73.857,311.281 73.682 C 311.327 73.507,311.507 73.327,311.682 73.281 C 311.867 73.233,312.000 73.052,312.000 72.849 C 312.000 72.562,312.103 72.500,312.573 72.500 C 312.889 72.500,313.201 72.413,313.266 72.308 C 313.347 72.177,313.310 72.160,313.151 72.256 C 312.951 72.376,312.951 72.355,313.145 72.115 C 313.271 71.960,313.522 71.833,313.703 71.833 C 313.891 71.833,314.068 71.691,314.118 71.500 C 314.200 71.189,314.711 71.057,315.458 71.154 C 315.573 71.169,315.668 71.047,315.669 70.882 C 315.671 70.644,315.702 70.631,315.819 70.816 C 315.938 71.004,316.010 70.980,316.190 70.691 C 316.549 70.117,323.666 70.133,323.919 70.708 C 324.078 71.072,324.160 71.107,324.958 71.147 C 325.165 71.158,325.333 71.271,325.333 71.399 C 325.333 71.670,325.689 71.833,326.279 71.833 C 326.558 71.833,326.727 71.945,326.785 72.167 C 326.840 72.379,327.012 72.500,327.257 72.500 C 327.469 72.500,327.779 72.674,327.946 72.886 C 328.261 73.287,328.343 73.333,328.731 73.333 C 328.859 73.333,328.953 73.465,328.940 73.625 C 328.919 73.889,329.156 73.921,331.454 73.963 L 333.991 74.009 334.662 73.338 C 335.260 72.740,335.333 72.579,335.333 71.865 C 335.333 71.382,335.438 70.935,335.597 70.740 C 335.832 70.451,335.850 70.449,335.766 70.717 C 335.709 70.897,335.738 70.975,335.839 70.913 C 336.087 70.760,335.929 69.917,335.653 69.917 C 335.477 69.917,335.395 69.594,335.333 68.667 C 335.287 67.979,335.194 67.435,335.125 67.458 C 334.808 67.564,334.667 67.474,334.667 67.167 C 334.667 66.919,334.556 66.833,334.232 66.833 C 333.931 66.833,333.825 66.763,333.886 66.604 C 333.992 66.326,333.700 65.998,333.437 66.099 C 333.333 66.139,333.173 66.001,333.082 65.794 C 332.970 65.538,332.748 65.400,332.392 65.366 C 332.039 65.331,331.840 65.209,331.783 64.991 C 331.714 64.728,331.550 64.667,330.922 64.667 C 330.452 64.667,330.187 64.602,330.249 64.501 C 330.360 64.322,330.123 63.794,329.943 63.818 C 329.297 63.906,328.844 63.795,328.759 63.527 C 328.680 63.279,328.466 63.215,327.622 63.186 C 326.772 63.158,326.532 63.084,326.301 62.784 C 325.971 62.354,314.971 62.124,314.250 62.532 M338.864 62.521 C 338.652 62.599,338.521 62.732,338.572 62.816 C 338.624 62.899,338.441 63.046,338.166 63.142 C 337.892 63.238,337.667 63.424,337.667 63.557 C 337.667 63.689,337.476 63.845,337.243 63.903 C 337.010 63.962,336.861 64.077,336.911 64.158 C 336.962 64.240,336.885 64.425,336.740 64.570 C 336.595 64.715,336.538 64.836,336.613 64.838 C 336.688 64.841,336.618 64.920,336.456 65.014 C 335.989 65.286,336.015 90.317,336.483 90.980 C 336.700 91.287,336.817 91.827,336.876 92.799 C 336.922 93.560,337.006 94.228,337.063 94.285 C 337.120 94.342,337.167 94.330,337.167 94.257 C 337.167 94.185,337.279 94.219,337.417 94.333 C 337.562 94.454,337.667 94.817,337.667 95.198 C 337.667 95.929,337.932 96.562,338.175 96.411 C 338.262 96.358,338.339 96.524,338.345 96.782 C 338.357 97.273,338.635 98.084,338.655 97.688 C 338.677 97.265,339.167 97.838,339.167 98.286 C 339.167 98.558,339.280 98.728,339.500 98.785 C 339.683 98.833,339.836 98.995,339.839 99.144 C 339.845 99.485,340.577 100.332,340.867 100.336 C 341.022 100.338,341.012 100.384,340.833 100.500 C 340.606 100.647,340.716 100.740,341.050 100.684 C 341.123 100.671,341.374 100.887,341.607 101.164 C 341.839 101.440,342.168 101.667,342.337 101.667 C 342.526 101.667,342.664 101.808,342.697 102.035 C 342.730 102.267,342.903 102.439,343.167 102.501 C 343.396 102.554,343.583 102.704,343.583 102.833 C 343.583 102.984,343.819 103.090,344.250 103.132 C 344.879 103.194,345.231 103.428,345.074 103.681 C 344.973 103.844,345.633 103.995,346.458 103.998 C 347.055 104.000,347.167 104.053,347.167 104.333 C 347.167 104.640,347.278 104.667,348.563 104.667 C 349.865 104.667,350.553 104.892,350.232 105.213 C 350.177 105.267,351.940 105.319,354.150 105.327 C 356.941 105.338,358.167 105.288,358.167 105.162 C 358.167 105.062,358.242 105.027,358.335 105.084 C 358.427 105.141,358.547 105.071,358.602 104.927 C 358.681 104.722,358.977 104.667,359.998 104.667 C 361.141 104.667,361.304 104.628,361.379 104.343 C 361.446 104.089,361.637 104.009,362.273 103.968 C 362.968 103.924,363.091 103.863,363.137 103.542 C 363.178 103.253,363.299 103.167,363.665 103.167 C 364.308 103.167,364.667 103.011,364.667 102.732 C 364.667 102.585,364.850 102.500,365.167 102.500 C 365.442 102.500,365.667 102.421,365.667 102.323 C 365.667 102.226,365.733 102.188,365.815 102.238 C 365.896 102.289,365.952 102.204,365.940 102.051 C 365.926 101.883,366.081 101.733,366.333 101.671 C 366.563 101.614,366.750 101.475,366.750 101.361 C 366.750 101.115,367.178 100.821,367.367 100.938 C 367.440 100.983,367.500 100.836,367.500 100.612 C 367.500 100.325,367.587 100.211,367.792 100.227 C 367.976 100.242,368.103 100.112,368.137 99.875 C 368.166 99.669,368.260 99.491,368.345 99.479 C 368.430 99.468,368.594 99.449,368.708 99.437 C 368.904 99.417,368.933 99.333,368.981 98.636 C 368.991 98.482,369.150 98.308,369.333 98.250 C 369.543 98.183,369.667 97.998,369.667 97.750 C 369.667 97.510,369.790 97.317,369.982 97.256 C 370.300 97.155,370.494 96.709,370.498 96.067 C 370.499 95.875,370.650 95.583,370.833 95.417 C 371.082 95.192,371.168 94.899,371.172 94.266 C 371.177 93.460,371.490 92.713,371.725 92.947 C 371.891 93.113,371.849 64.283,371.683 64.020 C 371.603 63.894,371.456 63.841,371.357 63.902 C 371.252 63.967,371.132 63.836,371.070 63.590 C 370.982 63.240,370.865 63.167,370.395 63.167 C 369.954 63.167,369.785 63.075,369.641 62.761 C 369.330 62.078,366.167 62.225,366.167 62.923 C 366.167 63.088,365.989 63.167,365.617 63.167 C 365.009 63.167,364.667 63.415,364.667 63.855 C 364.667 64.013,364.479 64.290,364.250 64.470 L 363.833 64.798 363.833 76.756 C 363.833 87.543,363.807 88.732,363.566 88.909 C 363.378 89.046,363.266 89.499,363.191 90.427 C 363.109 91.435,363.025 91.750,362.837 91.750 C 362.685 91.750,362.576 91.935,362.553 92.234 C 362.504 92.880,362.367 93.207,362.192 93.099 C 362.024 92.995,361.667 93.713,361.667 94.155 C 361.667 94.323,361.517 94.500,361.333 94.548 C 361.150 94.596,361.000 94.755,361.000 94.901 C 361.000 95.051,360.862 95.167,360.684 95.167 C 360.511 95.167,360.326 95.279,360.273 95.417 C 360.220 95.554,360.081 95.666,359.964 95.664 C 359.812 95.662,359.823 95.610,360.000 95.485 C 360.222 95.328,360.222 95.316,360.000 95.380 C 359.863 95.420,359.760 95.576,359.773 95.726 C 359.789 95.913,359.665 96.000,359.383 96.000 C 359.109 96.000,358.939 96.113,358.882 96.333 C 358.809 96.609,358.654 96.667,357.981 96.667 C 357.389 96.667,357.076 96.758,356.833 97.000 C 356.320 97.513,352.252 97.509,352.117 96.995 C 352.068 96.809,351.966 96.668,351.889 96.682 C 351.044 96.830,350.000 96.638,350.000 96.333 C 350.000 96.049,349.889 96.000,349.250 96.000 C 348.561 96.000,348.500 95.966,348.500 95.583 C 348.500 95.354,348.444 95.176,348.375 95.186 C 348.036 95.240,347.864 95.137,347.785 94.833 C 347.733 94.634,347.558 94.500,347.349 94.500 C 347.111 94.500,347.000 94.394,347.000 94.167 C 347.000 93.983,346.850 93.683,346.667 93.500 C 346.483 93.317,346.333 93.010,346.333 92.818 C 346.333 92.609,346.199 92.434,346.000 92.382 C 345.725 92.310,345.667 92.154,345.667 91.494 C 345.667 90.479,345.545 90.167,345.149 90.167 C 344.881 90.167,344.575 67.074,344.817 65.061 C 344.829 64.956,344.722 64.826,344.578 64.771 C 344.408 64.706,344.357 64.737,344.434 64.861 C 344.506 64.978,344.478 65.006,344.359 64.933 C 344.253 64.867,344.167 64.593,344.167 64.323 C 344.167 63.955,344.089 63.833,343.853 63.833 C 343.679 63.833,343.500 63.684,343.452 63.500 C 343.400 63.301,343.224 63.167,343.016 63.167 C 342.824 63.167,342.667 63.087,342.667 62.990 C 342.667 62.893,342.597 62.857,342.512 62.910 C 342.426 62.962,342.309 62.929,342.252 62.836 C 342.194 62.743,342.245 62.660,342.365 62.652 C 342.485 62.644,342.358 62.569,342.083 62.484 C 341.478 62.299,339.399 62.322,338.864 62.521 M134.122 64.191 C 133.963 64.467,133.836 64.819,133.839 64.972 C 133.843 65.125,133.998 64.924,134.185 64.526 C 134.581 63.680,134.540 63.462,134.122 64.191 M133.839 66.371 C 133.836 66.529,133.983 66.904,134.166 67.204 C 134.588 67.897,134.589 67.624,134.167 66.750 C 133.990 66.383,133.842 66.213,133.839 66.371 M141.346 66.358 C 141.322 66.878,140.525 68.055,139.805 68.636 C 139.408 68.956,139.222 69.169,139.392 69.108 C 140.251 68.800,141.673 66.875,141.452 66.317 C 141.382 66.139,141.356 66.149,141.346 66.358 M135.119 68.474 C 135.505 68.855,135.904 69.167,136.006 69.167 C 136.109 69.167,135.943 68.965,135.638 68.719 C 134.571 67.856,134.422 67.786,135.119 68.474 M136.583 69.340 C 136.997 69.509,138.110 69.509,138.667 69.340 C 138.934 69.259,138.574 69.212,137.667 69.209 C 136.776 69.206,136.374 69.255,136.583 69.340 M64.658 81.443 C 64.278 81.846,64.216 81.964,64.474 81.792 C 64.824 81.557,65.442 80.833,65.292 80.833 C 65.259 80.833,64.974 81.108,64.658 81.443 M53.806 89.716 C 51.077 91.797,51.549 95.268,54.704 96.318 L 55.760 96.670 56.838 96.306 C 60.884 94.940,59.973 89.167,55.712 89.167 C 54.627 89.167,54.464 89.214,53.806 89.716 " stroke="none" fill="#04dbcc" fill-rule="evenodd"></path><path id="path3" d="M82.301 61.991 C 78.622 62.707,78.745 68.571,82.455 69.341 C 86.350 70.150,88.765 65.838,86.026 62.966 C 85.053 61.947,83.977 61.665,82.301 61.991 M109.274 88.996 C 108.921 89.064,108.584 89.188,108.524 89.272 C 108.465 89.356,108.211 89.555,107.960 89.715 C 106.091 90.904,106.012 94.020,107.806 95.807 C 110.805 98.796,116.019 95.169,114.238 91.333 C 113.868 90.536,113.520 90.125,112.526 89.308 C 112.012 88.886,110.562 88.747,109.274 88.996 " stroke="none" fill="#f88624" fill-rule="evenodd"></path><path id="path4" d="M138.667 58.169 C 138.529 58.257,137.929 58.330,137.333 58.332 C 136.737 58.334,136.058 58.436,135.822 58.559 C 135.587 58.681,135.195 58.832,134.952 58.893 C 133.707 59.205,131.167 61.521,131.167 62.343 C 131.167 62.461,131.035 62.702,130.875 62.879 C 130.625 63.156,130.583 63.553,130.583 65.667 C 130.583 67.780,130.625 68.178,130.875 68.454 C 131.585 69.238,131.642 69.170,123.027 77.781 C 113.518 87.286,114.241 86.603,113.943 86.356 C 112.788 85.396,108.413 85.368,107.274 86.313 C 106.861 86.656,106.250 86.127,100.975 80.856 C 89.349 69.240,89.503 69.427,90.333 67.877 C 90.802 67.002,90.802 64.387,90.333 63.417 C 90.156 63.050,90.009 62.679,90.006 62.592 C 89.975 61.735,87.283 59.161,86.161 58.917 C 85.843 58.847,85.435 58.688,85.255 58.562 C 84.804 58.249,82.145 58.254,81.442 58.569 C 81.153 58.699,80.635 58.892,80.292 58.999 C 79.948 59.105,79.667 59.257,79.667 59.335 C 79.667 59.413,79.531 59.520,79.366 59.573 C 77.266 60.239,75.454 64.768,76.268 67.314 C 76.893 69.269,77.073 68.970,72.538 73.493 C 70.317 75.708,68.500 77.547,68.500 77.580 C 68.500 77.824,63.618 82.761,62.276 83.875 C 61.807 84.265,60.984 85.029,60.448 85.573 C 59.540 86.495,59.448 86.548,59.111 86.335 C 57.669 85.425,53.133 85.402,52.510 86.301 C 52.459 86.375,52.191 86.527,51.916 86.638 C 51.221 86.918,49.500 88.691,49.500 89.127 C 49.500 89.216,49.356 89.471,49.181 89.694 C 48.320 90.789,48.385 94.648,49.292 96.285 C 51.467 100.210,56.247 101.301,60.081 98.748 C 60.877 98.217,62.049 96.820,62.247 96.167 C 62.316 95.938,62.495 95.611,62.645 95.441 C 63.103 94.920,63.034 90.969,62.551 90.083 C 62.210 89.457,62.175 88.500,62.494 88.500 C 62.681 88.500,65.167 86.019,65.167 85.832 C 65.167 85.741,65.236 85.667,65.321 85.667 C 65.484 85.667,65.514 85.637,66.583 84.435 C 67.953 82.895,72.662 78.167,72.826 78.167 C 72.920 78.167,73.091 78.017,73.205 77.833 C 73.320 77.650,73.462 77.500,73.521 77.500 C 73.679 77.500,76.833 74.318,76.833 74.159 C 76.833 74.084,76.983 73.975,77.167 73.917 C 77.350 73.858,77.500 73.743,77.500 73.659 C 77.500 73.576,77.774 73.263,78.108 72.962 C 78.443 72.662,78.853 72.274,79.019 72.100 C 79.255 71.853,79.373 71.826,79.554 71.975 C 80.494 72.756,84.401 73.317,85.220 72.789 C 85.879 72.364,87.143 72.130,87.473 72.371 C 88.628 73.214,103.636 88.355,104.049 89.094 C 104.148 89.271,104.109 89.454,103.931 89.650 C 103.523 90.101,103.104 92.829,103.322 93.614 C 103.419 93.964,103.500 94.475,103.502 94.750 C 103.503 95.025,103.612 95.438,103.742 95.667 C 103.873 95.896,104.089 96.308,104.223 96.583 C 104.516 97.187,105.803 98.569,106.208 98.717 C 106.369 98.775,106.500 98.894,106.500 98.982 C 106.500 99.069,106.781 99.233,107.125 99.346 C 107.469 99.458,107.934 99.670,108.159 99.817 C 108.747 100.200,112.253 100.200,112.841 99.817 C 113.066 99.670,113.538 99.456,113.889 99.341 C 114.655 99.090,116.788 97.002,116.941 96.353 C 116.998 96.113,117.166 95.778,117.314 95.608 C 117.669 95.199,117.718 90.405,117.369 90.189 C 117.251 90.116,117.113 89.797,117.061 89.481 C 116.969 88.910,117.039 88.834,125.227 80.633 C 134.319 71.526,133.714 72.023,135.094 72.517 C 135.999 72.840,138.803 73.219,139.000 73.045 C 139.137 72.924,138.311 72.327,138.147 72.429 C 137.897 72.583,134.771 71.992,134.487 71.736 C 133.956 71.260,133.515 71.652,125.135 80.039 L 116.603 88.577 116.612 89.330 C 116.618 89.744,116.781 90.421,116.974 90.833 C 117.452 91.851,117.463 93.783,116.996 94.810 C 116.815 95.209,116.665 95.622,116.664 95.727 C 116.649 96.653,114.311 98.804,112.897 99.193 C 112.541 99.290,112.206 99.441,112.152 99.527 C 111.984 99.794,109.296 99.714,108.743 99.426 C 108.472 99.285,108.129 99.168,107.982 99.168 C 107.834 99.167,107.437 98.979,107.099 98.750 C 106.761 98.521,106.441 98.333,106.387 98.333 C 106.333 98.333,106.036 98.052,105.726 97.708 C 105.417 97.365,105.061 96.971,104.936 96.833 C 104.811 96.696,104.653 96.396,104.585 96.167 C 104.516 95.938,104.338 95.611,104.189 95.441 C 103.723 94.912,103.696 91.390,104.149 90.453 C 104.931 88.838,105.463 89.528,96.612 80.667 C 87.306 71.350,87.225 71.278,86.570 71.736 C 86.385 71.866,85.937 72.021,85.575 72.080 C 85.213 72.139,84.572 72.262,84.151 72.354 C 83.299 72.540,80.798 72.144,80.333 71.749 C 79.464 71.012,79.311 71.109,75.846 74.585 C 74.065 76.372,72.574 77.833,72.532 77.833 C 72.491 77.833,71.449 78.846,70.217 80.083 C 68.985 81.321,67.907 82.333,67.822 82.333 C 67.737 82.333,67.667 82.402,67.667 82.485 C 67.667 82.675,66.146 84.316,63.688 86.778 L 61.792 88.676 61.869 89.474 C 61.911 89.913,62.078 90.530,62.240 90.845 C 62.785 91.902,62.783 93.508,62.234 94.884 C 61.614 96.437,60.450 98.167,60.024 98.167 C 59.933 98.167,59.645 98.347,59.383 98.567 C 59.122 98.787,58.594 99.052,58.211 99.155 C 57.828 99.258,57.469 99.415,57.414 99.505 C 57.256 99.760,54.434 99.703,53.889 99.433 C 53.629 99.305,53.154 99.076,52.833 98.925 C 51.739 98.409,51.312 98.138,51.221 97.902 C 51.172 97.773,51.027 97.667,50.899 97.667 C 50.771 97.667,50.667 97.597,50.667 97.513 C 50.667 97.428,50.489 97.147,50.273 96.888 C 50.056 96.629,49.822 96.229,49.753 96.000 C 49.684 95.771,49.505 95.444,49.355 95.274 C 49.134 95.023,49.083 94.567,49.083 92.833 C 49.083 91.099,49.134 90.644,49.355 90.392 C 49.505 90.222,49.684 89.896,49.754 89.667 C 50.562 87.011,55.736 85.166,58.401 86.583 C 59.506 87.171,59.542 87.158,61.117 85.583 C 61.896 84.804,62.582 84.166,62.642 84.164 C 62.701 84.163,64.100 82.779,65.750 81.090 C 67.400 79.400,70.550 76.200,72.750 73.980 C 74.950 71.759,76.916 69.720,77.119 69.447 L 77.488 68.951 77.119 68.434 C 76.552 67.638,76.556 63.366,77.125 62.836 C 77.331 62.644,77.500 62.381,77.500 62.252 C 77.500 61.884,79.257 60.002,79.603 60.001 C 79.705 60.000,79.968 59.859,80.188 59.686 C 81.509 58.647,85.277 58.744,86.931 59.860 C 87.704 60.382,89.000 61.632,89.000 61.855 C 89.000 61.922,89.105 62.081,89.234 62.210 C 90.042 63.018,90.281 66.110,89.695 68.167 C 89.499 68.854,89.338 69.497,89.336 69.596 C 89.335 69.694,91.190 71.649,93.458 73.940 C 95.727 76.231,98.746 79.281,100.167 80.718 C 106.888 87.515,106.692 87.361,107.701 86.641 C 108.437 86.117,112.565 86.039,113.118 86.540 C 114.114 87.441,113.621 87.843,123.071 78.409 L 131.706 69.788 131.602 69.030 C 131.545 68.613,131.367 68.079,131.207 67.844 C 130.785 67.224,130.786 64.101,131.208 63.505 C 131.369 63.278,131.500 62.974,131.500 62.829 C 131.500 62.242,132.927 60.637,134.242 59.744 C 134.839 59.340,137.643 58.725,138.098 58.899 C 138.374 59.005,139.069 58.457,138.982 58.201 C 138.938 58.074,138.834 58.063,138.667 58.169 M136.623 61.500 C 136.281 61.683,135.870 61.834,135.709 61.834 C 135.363 61.835,134.510 62.648,133.874 63.583 C 132.851 65.086,133.276 67.372,134.872 68.957 C 135.172 69.255,135.548 69.499,135.709 69.499 C 135.870 69.500,136.281 69.650,136.623 69.833 C 137.394 70.247,137.894 70.247,138.750 69.833 C 139.117 69.656,139.534 69.509,139.678 69.506 C 139.822 69.503,140.103 69.313,140.302 69.083 C 140.501 68.854,140.740 68.667,140.832 68.667 C 140.925 68.667,141.000 68.557,141.000 68.423 C 141.000 68.289,141.169 68.022,141.375 67.830 C 142.229 67.035,141.771 63.117,140.773 62.688 C 140.694 62.654,140.474 62.448,140.285 62.230 C 140.095 62.012,139.822 61.831,139.678 61.828 C 139.534 61.825,139.117 61.677,138.750 61.500 C 137.894 61.087,137.394 61.087,136.623 61.500 M138.717 61.988 C 142.290 62.818,142.445 68.170,138.928 69.248 C 137.468 69.696,136.053 69.432,135.121 68.539 C 132.133 65.677,134.674 61.050,138.717 61.988 M54.467 88.811 C 54.220 88.869,53.723 89.104,53.363 89.333 C 52.772 89.709,52.532 89.990,51.877 91.075 C 51.512 91.682,51.601 94.435,52.000 94.833 C 52.183 95.017,52.333 95.223,52.333 95.292 C 52.333 95.927,54.593 97.167,55.750 97.167 C 57.035 97.167,58.877 96.103,59.357 95.083 C 59.444 94.900,59.622 94.563,59.755 94.333 C 60.086 93.760,60.087 91.613,59.756 91.339 C 59.623 91.228,59.464 90.975,59.404 90.777 C 59.281 90.366,58.517 89.500,58.279 89.500 C 58.192 89.500,58.035 89.383,57.931 89.241 C 57.583 88.766,55.673 88.529,54.467 88.811 M57.569 89.625 C 60.389 91.554,59.985 95.243,56.838 96.306 L 55.760 96.670 54.704 96.318 C 51.549 95.268,51.077 91.797,53.806 89.716 C 54.807 88.952,56.525 88.911,57.569 89.625 " stroke="none" fill="#146a7d" fill-rule="evenodd"></path></g></svg>